<svg width="24" height="24" viewBox="0 0 24 24" fill="none" xmlns="http://www.w3.org/2000/svg">
<path opacity="0.913" fill-rule="evenodd" clip-rule="evenodd" d="M11.8359 0.210969C11.9986 0.181665 12.1314 0.22854 12.2344 0.351594C12.2657 0.664096 12.2657 0.976593 12.2344 1.28909C12.0625 1.47659 11.8907 1.47659 11.7188 1.28909C11.6875 0.976593 11.6875 0.664096 11.7188 0.351594C11.7677 0.310652 11.8068 0.263777 11.8359 0.210969Z" fill="white"/>
<path opacity="0.856" fill-rule="evenodd" clip-rule="evenodd" d="M8.22656 1.71099C8.37417 1.69746 8.5148 1.7209 8.64844 1.7813C8.78123 1.91411 8.91408 2.04693 9.04688 2.17974C9.20072 2.60262 9.06792 2.76668 8.64844 2.67193C8.41523 2.47827 8.22773 2.25171 8.08594 1.99224C8.10863 1.88439 8.1555 1.79064 8.22656 1.71099Z" fill="white"/>
<path opacity="0.854" fill-rule="evenodd" clip-rule="evenodd" d="M15.3985 1.71091C15.7164 1.64644 15.8648 1.77144 15.8438 2.08591C15.6519 2.3639 15.4097 2.58265 15.1172 2.74216C14.8739 2.67767 14.788 2.52143 14.8594 2.27341C15.0171 2.06114 15.1968 1.87364 15.3985 1.71091Z" fill="white"/>
<path opacity="0.968" fill-rule="evenodd" clip-rule="evenodd" d="M11.4609 2.36719C13.3821 2.25099 14.6087 3.11036 15.1406 4.94532C15.3512 6.64172 14.6871 7.85265 13.1484 8.57813C11.6088 9.06479 10.3353 8.68196 9.3281 7.42969C8.52428 6.12554 8.55555 4.8443 9.42185 3.58594C9.95622 2.93221 10.6359 2.52595 11.4609 2.36719ZM11.8828 3.77344C12.1183 3.78253 12.2355 3.90753 12.2343 4.14844C12.6401 4.33556 12.8276 4.64806 12.7968 5.08594C12.6738 5.25338 12.5331 5.26899 12.375 5.13282C12.3626 4.90969 12.2611 4.74563 12.0703 4.64063C11.7003 4.64403 11.5753 4.82372 11.6953 5.17969C11.9607 5.27508 12.2263 5.37662 12.4922 5.48438C12.8613 5.83754 12.916 6.23597 12.6562 6.67969C12.5358 6.79074 12.4029 6.88449 12.2578 6.96094C12.2627 7.26108 12.1221 7.37827 11.8359 7.31251C11.767 7.20737 11.7201 7.09018 11.6953 6.96094C11.254 6.76599 11.09 6.43786 11.2031 5.97657C11.5173 5.88343 11.6736 6.0084 11.6718 6.35157C11.875 6.53907 12.0781 6.53907 12.2812 6.35157C12.3387 6.1598 12.2997 5.99574 12.164 5.85938C11.3768 5.79221 11.0565 5.37812 11.2031 4.61719C11.3305 4.41167 11.5023 4.25543 11.7187 4.14844C11.7189 3.99615 11.7736 3.87115 11.8828 3.77344Z" fill="white"/>
<path opacity="0.875" fill-rule="evenodd" clip-rule="evenodd" d="M6.77343 5.27342C7.07071 5.26564 7.36757 5.27342 7.66405 5.29686C7.71876 5.3203 7.7578 5.35935 7.78124 5.41405C7.84959 5.61472 7.79493 5.76313 7.61718 5.85936C7.35154 5.89063 7.08595 5.89063 6.8203 5.85936C6.59174 5.68269 6.57609 5.48736 6.77343 5.27342Z" fill="white"/>
<path opacity="0.872" fill-rule="evenodd" clip-rule="evenodd" d="M16.289 5.27342C16.5863 5.26564 16.8832 5.27342 17.1797 5.29686C17.3744 5.50306 17.3588 5.69056 17.1328 5.85936C16.8671 5.89063 16.6016 5.89063 16.3359 5.85936C16.1582 5.76313 16.1035 5.61472 16.1719 5.41405C16.2046 5.35822 16.2436 5.31135 16.289 5.27342Z" fill="white"/>
<path opacity="0.856" fill-rule="evenodd" clip-rule="evenodd" d="M8.69531 8.4141C9.03867 8.39029 9.17147 8.54657 9.09375 8.88285C8.92969 9.04692 8.76562 9.21098 8.60156 9.37504C8.29331 9.50409 8.12925 9.40251 8.10938 9.07035C8.26495 8.81334 8.46028 8.59462 8.69531 8.4141Z" fill="white"/>
<path opacity="0.856" fill-rule="evenodd" clip-rule="evenodd" d="M14.9765 8.41406C15.4016 8.48648 15.6984 8.72869 15.8672 9.14062C15.791 9.43641 15.6191 9.51455 15.3515 9.375C15.1875 9.21094 15.0234 9.04688 14.8594 8.88281C14.806 8.69902 14.8451 8.54278 14.9765 8.41406Z" fill="white"/>
<path opacity="0.919" fill-rule="evenodd" clip-rule="evenodd" d="M11.8359 9.72657C12.0006 9.69732 12.1335 9.74419 12.2344 9.86719C12.2657 10.1797 12.2657 10.4922 12.2344 10.8047C12.0625 10.9297 11.8907 10.9297 11.7188 10.8047C11.6875 10.4922 11.6875 10.1797 11.7188 9.86719C11.7515 9.81137 11.7905 9.76449 11.8359 9.72657Z" fill="white"/>
<path opacity="0.975" fill-rule="evenodd" clip-rule="evenodd" d="M5.27344 10.4297C6.18259 10.3564 6.78418 10.747 7.07813 11.6016C7.1094 12.2422 7.1094 12.8828 7.07813 13.5234C6.78704 14.4228 6.16984 14.8056 5.22657 14.6719C4.64559 14.5128 4.26277 14.1456 4.07813 13.5703C4.03429 12.849 4.04992 12.1303 4.12501 11.4141C4.34923 10.8931 4.73204 10.5649 5.27344 10.4297Z" fill="white"/>
<path opacity="0.976" fill-rule="evenodd" clip-rule="evenodd" d="M18.0703 10.4297C18.6791 10.3539 19.1869 10.5414 19.5938 10.9922C19.7255 11.1775 19.8192 11.3807 19.875 11.6016C19.9188 12.3073 19.9031 13.0104 19.8281 13.711C19.4701 14.4799 18.8686 14.8002 18.0234 14.6719C17.4219 14.5078 17.0391 14.125 16.875 13.5235C16.8437 12.8828 16.8437 12.2422 16.875 11.6016C17.0527 10.9786 17.4511 10.588 18.0703 10.4297Z" fill="white"/>
<path opacity="0.974" fill-rule="evenodd" clip-rule="evenodd" d="M11.6484 12.1641C12.96 12.0934 13.7178 12.7028 13.9219 13.9922C13.9532 14.6016 13.9532 15.2109 13.9219 15.8203C13.8116 16.8056 13.2726 17.4072 12.3047 17.625C11.3285 17.7269 10.6176 17.344 10.1719 16.4766C10.0954 16.2642 10.0485 16.0455 10.0313 15.8203C10 15.2109 10 14.6016 10.0313 13.9922C10.1503 13.0062 10.6894 12.3969 11.6484 12.1641Z" fill="white"/>
<path opacity="0.977" fill-rule="evenodd" clip-rule="evenodd" d="M5.03903 15.3515C6.5853 15.2174 7.79627 15.7799 8.67185 17.039C9.03817 17.5827 9.06944 18.1452 8.7656 18.7265C8.53825 19.008 8.24917 19.1877 7.89841 19.2656C6.35153 19.2968 4.80466 19.2968 3.25778 19.2656C2.43026 19.0408 2.0787 18.5018 2.2031 17.6484C2.73537 16.374 3.68068 15.6084 5.03903 15.3515Z" fill="white"/>
<path opacity="0.977" fill-rule="evenodd" clip-rule="evenodd" d="M17.8359 15.3515C19.5885 15.2244 20.8776 15.9275 21.7031 17.4609C21.9327 18.3849 21.5968 18.9865 20.6953 19.2656C19.1484 19.2968 17.6015 19.2968 16.0547 19.2656C15.5047 19.1375 15.1532 18.8016 15 18.2578C14.92 17.8105 15.0137 17.4043 15.2812 17.039C15.9034 16.1276 16.7549 15.5651 17.8359 15.3515Z" fill="white"/>
<path opacity="0.982" fill-rule="evenodd" clip-rule="evenodd" d="M11.5547 18.6797C13.7357 18.6252 15.3217 19.5627 16.3125 21.4922C16.5788 22.6395 16.1491 23.3817 15.0234 23.7188C12.9922 23.7501 10.9609 23.7501 8.92969 23.7188C7.80324 23.3799 7.37354 22.6378 7.64063 21.4922C8.44871 19.8582 9.75338 18.9207 11.5547 18.6797Z" fill="white"/>
</svg>
