<svg width="24" height="24" viewBox="0 0 24 24" fill="none" xmlns="http://www.w3.org/2000/svg">
<g clip-path="url(#clip0_962_2874)">
<mask id="mask0_962_2874" style="mask-type:alpha" maskUnits="userSpaceOnUse" x="0" y="0" width="24" height="24">
<rect width="24" height="24" fill="#D9D9D9"/>
</mask>
<g mask="url(#mask0_962_2874)">
<path d="M15 15.5V14.5H17V15.5H15ZM15.6 19L14 17.8L14.6 17L16.2 18.2L15.6 19ZM14.6 13L14 12.2L15.6 11L16.2 11.8L14.6 13ZM8.5 18.5V16.5H8C7.725 16.5 7.48958 16.4021 7.29375 16.2063C7.09792 16.0104 7 15.775 7 15.5V14.5C7 14.225 7.09792 13.9896 7.29375 13.7938C7.48958 13.5979 7.725 13.5 8 13.5H10L12.5 12V18L10 16.5H9.5V18.5H8.5ZM13 16.675V13.325C13.225 13.525 13.4063 13.7688 13.5438 14.0563C13.6813 14.3438 13.75 14.6583 13.75 15C13.75 15.3417 13.6813 15.6562 13.5438 15.9437C13.4063 16.2312 13.225 16.475 13 16.675Z" fill="white"/>
<path d="M5 22C4.45 22 3.97917 21.8042 3.5875 21.4125C3.19583 21.0208 3 20.55 3 20V6C3 5.45 3.19583 4.97917 3.5875 4.5875C3.97917 4.19583 4.45 4 5 4H6V2H8V4H16V2H18V4H19C19.55 4 20.0208 4.19583 20.4125 4.5875C20.8042 4.97917 21 5.45 21 6V20C21 20.55 20.8042 21.0208 20.4125 21.4125C20.0208 21.8042 19.55 22 19 22H5ZM5 20H19V10H5V20Z" fill="white"/>
</g>
</g>
<defs>
<clipPath id="clip0_962_2874">
<rect width="24" height="24" fill="white"/>
</clipPath>
</defs>
</svg>
