<svg width="24" height="25" viewBox="0 0 24 25" fill="none" xmlns="http://www.w3.org/2000/svg">
<mask id="mask0_227_9599" style="mask-type:alpha" maskUnits="userSpaceOnUse" x="0" y="0" width="24" height="25">
<rect y="0.974548" width="24" height="24" fill="#D9D9D9"/>
</mask>
<g mask="url(#mask0_227_9599)">
<path d="M12 17.9745C12.2833 17.9745 12.5208 17.8787 12.7125 17.687C12.9042 17.4954 13 17.2579 13 16.9745V12.9745C13 12.6912 12.9042 12.4537 12.7125 12.262C12.5208 12.0704 12.2833 11.9745 12 11.9745C11.7167 11.9745 11.4792 12.0704 11.2875 12.262C11.0958 12.4537 11 12.6912 11 12.9745V16.9745C11 17.2579 11.0958 17.4954 11.2875 17.687C11.4792 17.8787 11.7167 17.9745 12 17.9745ZM12 9.97455C12.2833 9.97455 12.5208 9.87872 12.7125 9.68705C12.9042 9.49538 13 9.25788 13 8.97455C13 8.69122 12.9042 8.45371 12.7125 8.26205C12.5208 8.07038 12.2833 7.97455 12 7.97455C11.7167 7.97455 11.4792 8.07038 11.2875 8.26205C11.0958 8.45371 11 8.69122 11 8.97455C11 9.25788 11.0958 9.49538 11.2875 9.68705C11.4792 9.87872 11.7167 9.97455 12 9.97455ZM12 22.9745C10.6167 22.9745 9.31667 22.712 8.1 22.187C6.88333 21.662 5.825 20.9495 4.925 20.0495C4.025 19.1495 3.3125 18.0912 2.7875 16.8745C2.2625 15.6579 2 14.3579 2 12.9745C2 11.5912 2.2625 10.2912 2.7875 9.07455C3.3125 7.85788 4.025 6.79955 4.925 5.89955C5.825 4.99955 6.88333 4.28705 8.1 3.76205C9.31667 3.23705 10.6167 2.97455 12 2.97455C13.3833 2.97455 14.6833 3.23705 15.9 3.76205C17.1167 4.28705 18.175 4.99955 19.075 5.89955C19.975 6.79955 20.6875 7.85788 21.2125 9.07455C21.7375 10.2912 22 11.5912 22 12.9745C22 14.3579 21.7375 15.6579 21.2125 16.8745C20.6875 18.0912 19.975 19.1495 19.075 20.0495C18.175 20.9495 17.1167 21.662 15.9 22.187C14.6833 22.712 13.3833 22.9745 12 22.9745Z" fill="#0643F2"/>
</g>
</svg>
