<svg width="20" height="22" viewBox="0 0 20 22" fill="none" xmlns="http://www.w3.org/2000/svg">
<path d="M7.41578 21.6455C6.58609 21.6164 4.77244 21.4413 4.24711 21.3412C2.87541 21.0785 1.68299 20.2613 0.949192 19.0731C0.386336 18.16 0.240411 17.4762 0.0694692 15.0247C-0.00557826 13.9282 -0.00557826 8.32463 0.0694692 7.22811C0.207056 5.2602 0.315458 4.54725 0.590632 3.87599C1.19518 2.41256 2.51685 1.28685 4.06366 0.932461C4.40137 0.853244 5.90232 0.673964 6.68615 0.623933C7.32822 0.57807 11.4183 0.561393 11.4183 0.598917C11.4183 0.611425 11.2932 0.765689 11.1431 0.93663C10.6136 1.54535 10.2592 2.17074 10.0007 2.9504C9.75893 3.68003 9.69222 4.15533 9.7214 4.98919C9.75476 5.98982 9.89651 6.55268 10.3343 7.43657C11.1348 9.04175 12.6024 10.1591 14.4202 10.5469C15.0414 10.6803 16.0879 10.6803 16.7008 10.551C17.272 10.426 17.7723 10.2467 18.2935 9.97568C18.5353 9.8506 18.7396 9.75053 18.7479 9.75053C18.7813 9.75053 18.7188 14.0241 18.6729 14.7537C18.6145 15.7335 18.5103 16.9759 18.4603 17.3178C18.4061 17.7056 18.1642 18.4143 17.9641 18.7896C17.2303 20.1529 15.9378 21.0869 14.4202 21.3579C13.8907 21.4538 12.6149 21.583 11.7685 21.633C11.1098 21.6664 8.26632 21.6789 7.41578 21.6455ZM14.3618 16.017C14.7537 15.8085 14.9747 15.3541 14.883 14.9371C14.8205 14.6536 14.6412 14.416 14.391 14.2659L14.1909 14.1491L9.50043 14.1366C6.16082 14.1283 4.74743 14.1366 4.59316 14.17C4.33466 14.2242 4.02197 14.4785 3.9094 14.7328C3.76764 15.0372 3.83018 15.5 4.04698 15.7543C4.15122 15.8794 4.39303 16.0378 4.53896 16.0795C4.63485 16.1087 6.36095 16.1212 9.43789 16.1171L14.1909 16.1087L14.3618 16.017ZM10.3468 11.8185C10.7471 11.6726 11.0014 11.314 11.0014 10.8846C11.0014 10.426 10.7137 10.0466 10.2718 9.92147C10.1592 9.89229 9.25444 9.87561 7.43246 9.87561C4.53896 9.87561 4.52228 9.87561 4.22626 10.1008C4.14705 10.1633 4.03031 10.3009 3.96777 10.4051C3.87604 10.5635 3.8552 10.6511 3.8552 10.8721C3.8552 11.3474 4.12203 11.6976 4.58065 11.8394C4.63902 11.856 5.92317 11.8685 7.43663 11.8727C9.63385 11.8727 10.2217 11.8602 10.3468 11.8185Z" fill="white"/>
<path d="M14.7663 9.18764C13.3696 8.93331 12.1105 7.96603 11.5184 6.68605C10.7262 4.97247 11.0806 2.96287 12.4065 1.64954C12.9193 1.14505 13.3821 0.844864 14.0075 0.615552C14.5912 0.402918 14.8789 0.357056 15.5876 0.357056C16.1505 0.357056 16.2839 0.369564 16.6341 0.461288C18.1184 0.861541 19.2441 1.87468 19.7569 3.27974C19.9612 3.83842 20.0196 4.26369 19.9946 4.97664C19.9696 5.68959 19.8779 6.09818 19.5902 6.69856C19.3567 7.18637 19.1607 7.46571 18.7647 7.88264C18.0934 8.57892 17.2637 9.0292 16.3506 9.18764C15.9212 9.26268 15.1791 9.26268 14.7663 9.18764ZM15.8295 7.89932L15.9837 7.75757L15.9962 6.48176L16.0087 5.21012L16.7759 5.19761L17.5431 5.18511L17.6723 5.06003C17.9058 4.83489 17.9099 4.48883 17.6765 4.28037C17.5097 4.13444 17.3054 4.10943 16.2089 4.13027C14.8622 4.15112 14.9456 4.03438 14.9289 5.91473C14.9122 7.61998 14.9206 7.72004 15.1165 7.90349C15.2374 8.02023 15.2916 8.04108 15.4667 8.04108C15.6418 8.04108 15.6961 8.02023 15.8295 7.89932Z" fill="white"/>
</svg>
