<svg width="24" height="24" viewBox="0 0 24 24" fill="none" xmlns="http://www.w3.org/2000/svg">
<path opacity="0.957" fill-rule="evenodd" clip-rule="evenodd" d="M11.6953 1.61719C11.9188 1.6027 12.1375 1.62613 12.3516 1.6875C13.2266 2.28125 14.1015 2.875 14.9766 3.46875C12.9765 3.5 10.9766 3.5 8.97656 3.46875C9.8783 2.83966 10.7846 2.22247 11.6953 1.61719Z" fill="white"/>
<path opacity="0.972" fill-rule="evenodd" clip-rule="evenodd" d="M4.9922 4.38281C9.64848 4.375 14.3047 4.38281 18.9609 4.40625C19.028 4.42806 19.0827 4.46712 19.125 4.52344C19.1563 6.30469 19.1563 8.08594 19.125 9.86719C16.8046 11.4685 14.7499 13.3669 12.9609 15.5625C12.7892 15.5164 12.6173 15.4539 12.4453 15.375C11.9463 15.2395 11.4776 15.3098 11.0391 15.5859C9.68795 13.9457 8.18795 12.4536 6.53907 11.1094C5.98121 10.6781 5.41089 10.264 4.82814 9.86719C4.79687 8.08594 4.79687 6.30469 4.82814 4.52344C4.88181 4.47017 4.93651 4.42329 4.9922 4.38281ZM11.4609 6.58594C13.3396 6.48141 14.6286 7.29394 15.3281 9.02344C15.5233 9.64486 15.5389 10.2698 15.375 10.8984C15.0549 11.586 14.5158 11.875 13.7578 11.7656C13.45 11.6782 13.1922 11.5141 12.9844 11.2734C12.1592 11.9242 11.3623 11.893 10.5938 11.1797C10.0131 10.0887 10.2553 9.22153 11.3203 8.57813C11.7785 8.37267 12.2394 8.36484 12.7031 8.55469C12.8002 8.49436 12.9018 8.4397 13.0078 8.39063C13.2569 8.33156 13.4366 8.41753 13.5469 8.64844C13.5625 9.27342 13.5782 9.89845 13.5938 10.5234C13.7356 10.8982 13.9934 10.9997 14.3672 10.8281C14.4929 10.7253 14.5632 10.5925 14.5781 10.4297C14.6697 9.17864 14.1619 8.26458 13.0547 7.6875C11.8236 7.23553 10.7689 7.49334 9.89064 8.46094C9.25276 9.4072 9.19023 10.3916 9.70314 11.4141C10.5932 12.6482 11.7495 12.992 13.1719 12.4453C13.5577 12.5452 13.6827 12.7795 13.5469 13.1484C13.2637 13.3628 12.9434 13.4957 12.5859 13.5469C10.9901 13.7215 9.76361 13.1356 8.90626 11.7891C8.16484 10.229 8.37578 8.81494 9.53907 7.54688C10.0942 7.05056 10.7349 6.73022 11.4609 6.58594Z" fill="white"/>
<path opacity="0.917" fill-rule="evenodd" clip-rule="evenodd" d="M3.82031 6.91406C3.91336 7.66247 3.94462 8.42808 3.91406 9.21094C3.28606 8.87325 2.66106 8.52169 2.03906 8.15625C2.64122 7.74862 3.23497 7.33453 3.82031 6.91406Z" fill="white"/>
<path opacity="0.919" fill-rule="evenodd" clip-rule="evenodd" d="M20.0391 6.91406C20.6815 7.29811 21.3065 7.71216 21.9141 8.15625C21.2921 8.52169 20.667 8.87325 20.0391 9.21094C20.0391 8.44533 20.0391 7.67967 20.0391 6.91406Z" fill="white"/>
<path opacity="0.989" fill-rule="evenodd" clip-rule="evenodd" d="M1.61719 8.97656C5.01806 10.728 7.90866 13.1108 10.2891 16.125C7.42045 18.0639 4.54545 19.9935 1.66406 21.9141C1.61719 17.6017 1.60156 13.2892 1.61719 8.97656Z" fill="white"/>
<path opacity="0.989" fill-rule="evenodd" clip-rule="evenodd" d="M22.2422 8.97656C22.3047 11.1091 22.3359 13.2576 22.3359 15.4219C22.3437 17.5926 22.3202 19.7566 22.2656 21.9141C19.3984 19.9844 16.5313 18.0547 13.6641 16.125C16.0392 13.1472 18.8986 10.7644 22.2422 8.97656Z" fill="white"/>
<path opacity="0.923" fill-rule="evenodd" clip-rule="evenodd" d="M11.8359 9.30467C12.4766 9.26563 12.75 9.56249 12.6562 10.1953C12.4003 10.8143 11.9706 10.9861 11.3672 10.7109C11.0721 10.3621 11.0644 10.0027 11.3437 9.6328C11.4916 9.49161 11.6556 9.38225 11.8359 9.30467Z" fill="white"/>
<path opacity="0.988" fill-rule="evenodd" clip-rule="evenodd" d="M11.7422 16.1954C11.9742 16.17 12.1929 16.209 12.3984 16.3125C15.3672 18.3126 18.336 20.3125 21.3047 22.3125C15.0859 22.3438 8.8672 22.3438 2.64844 22.3125C5.688 20.2799 8.71927 18.2408 11.7422 16.1954Z" fill="white"/>
</svg>
