<svg width="19" height="19" viewBox="0 0 19 19" fill="none" xmlns="http://www.w3.org/2000/svg">
<path opacity="0.995" fill-rule="evenodd" clip-rule="evenodd" d="M9.5736 0.706665C9.84105 0.706665 10.1085 0.706665 10.3759 0.706665C11.0974 0.913332 11.5587 1.38136 11.76 2.11075C11.7733 2.52529 11.7867 2.93983 11.8001 3.35437C14.1878 4.19093 15.632 5.8491 16.1327 8.32883C16.1801 9.38442 16.2202 10.4409 16.253 11.4981C16.473 13.7026 17.3422 15.6015 18.8606 17.1946C19.0529 17.5005 19.0463 17.8014 18.8405 18.0972C18.7737 18.1374 18.7068 18.1775 18.64 18.2176C12.8632 18.2444 7.08636 18.2444 1.30956 18.2176C0.971985 18.0432 0.858318 17.769 0.968571 17.3952C1.77294 16.5228 2.42818 15.5466 2.93429 14.4667C3.34421 13.5176 3.59828 12.5281 3.6965 11.4981C3.72928 10.4409 3.7694 9.38442 3.81685 8.32883C4.31835 5.8483 5.76255 4.19016 8.14946 3.35437C8.16281 2.93983 8.17621 2.52529 8.18957 2.11075C8.3908 1.38136 8.85214 0.913332 9.5736 0.706665ZM9.77418 1.95028C10.2123 1.89801 10.4731 2.08522 10.5565 2.51192C10.5765 2.71205 10.5832 2.91264 10.5765 3.11367C10.1753 3.11367 9.77418 3.11367 9.37301 3.11367C9.36202 2.84366 9.38208 2.57621 9.43319 2.31133C9.50091 2.14344 9.61456 2.02309 9.77418 1.95028Z" fill="white"/>
</svg>
