<svg width="22" height="21" viewBox="0 0 22 21" fill="none" xmlns="http://www.w3.org/2000/svg">
<path d="M6.35939 0.114014C5.62814 0.301514 4.95782 0.723389 4.50314 1.27183C3.86095 2.04995 3.55626 3.09058 3.68282 4.03276C3.88907 5.50933 4.91564 6.67651 6.36407 7.07495C6.78126 7.19214 7.71876 7.19214 8.13595 7.07495C10.3906 6.4562 11.4969 3.9812 10.4375 1.94214C9.95001 1.00464 9.06407 0.315577 8.06095 0.0905766C7.58751 -0.0125484 6.80939 -0.00317335 6.35939 0.114014Z" fill="white"/>
<path d="M3.26563 8.10156C2.78282 8.32188 2.075 9.01094 1.61563 9.71406C1.04844 10.5813 0.889067 11.1297 0.692192 12.8359C0.532817 14.2047 0.448442 16.6469 0.542192 17.1484C0.701567 18.0156 1.38125 18.7281 2.24375 18.9297C2.49219 18.9859 3.1625 19 6.43907 19H10.3391L10.0625 18.6156C9.51407 17.8516 9.03594 16.7172 8.85782 15.7656C8.74532 15.1328 8.74532 13.8859 8.8625 13.2578C9.04532 12.2781 9.45313 11.2938 10.0297 10.45C10.3906 9.92031 11.1078 9.175 11.6047 8.80469C11.8156 8.65 11.9844 8.50938 11.9844 8.48594C11.9844 8.42031 11.4125 8.08281 11.2484 8.05C11.0094 8.00313 10.8406 8.05469 10.5359 8.26094C9.93594 8.66875 9.20469 8.97813 8.45938 9.1375C7.91563 9.25938 6.76719 9.25469 6.21875 9.1375C5.50157 8.98281 4.72813 8.65469 4.1375 8.25156C3.81407 8.03125 3.53282 7.98438 3.26563 8.10156Z" fill="white"/>
<path d="M15.2422 8.9031C14.8109 8.96872 14.3141 9.08591 14.0234 9.18904C12.1531 9.86403 10.8078 11.4015 10.3625 13.3843C10.2453 13.8859 10.2453 15.1 10.3625 15.625C10.85 17.8843 12.5891 19.5859 14.8672 20.0359C15.35 20.1343 16.5031 20.1203 17 20.0125C19.2547 19.525 20.9609 17.7859 21.4109 15.5078C21.4484 15.3203 21.4766 14.889 21.4766 14.5C21.4766 14.1109 21.4484 13.6797 21.4109 13.4922C20.9656 11.2468 19.2969 9.51247 17.0937 9.01091C16.7047 8.92185 15.5609 8.85622 15.2422 8.9031ZM16.2031 11.1343C16.3719 11.2234 16.4422 11.2937 16.55 11.5093C16.625 11.6593 16.7141 11.7812 16.7516 11.7812C16.8594 11.7812 17.3703 12.0156 17.6047 12.1703C17.8156 12.3156 17.9844 12.5968 17.9844 12.8125C17.9844 13 17.8203 13.3047 17.6562 13.4218C17.5766 13.4781 17.4172 13.539 17.3047 13.5531C17.1312 13.5718 17.0375 13.5437 16.7 13.375C16.1328 13.0937 15.5844 13.0562 15.3594 13.2812C15.1437 13.4968 15.2422 13.5625 16.1375 13.8015C16.8547 13.989 17.2203 14.1578 17.5062 14.4297C17.8437 14.7437 17.9562 15.025 17.9562 15.5547C17.9516 16.3609 17.5859 16.9093 16.8594 17.1906C16.6812 17.2609 16.6297 17.3125 16.5312 17.514C16.4375 17.7062 16.3672 17.7812 16.2031 17.8656C15.9406 17.9968 15.8094 17.9968 15.5469 17.8609C15.3828 17.7812 15.3078 17.7015 15.2047 17.5C15.0828 17.2562 15.0641 17.2422 14.7359 17.125C14.3609 16.9937 14.0328 16.7875 13.8922 16.6047C13.6484 16.2765 13.7984 15.7375 14.1875 15.5406C14.3 15.4843 14.4453 15.4375 14.5109 15.4375C14.5719 15.4375 14.8156 15.5265 15.05 15.6343C15.4484 15.8218 15.5 15.8359 15.8891 15.8359C16.2687 15.8359 16.3109 15.8265 16.3953 15.7234C16.4422 15.6625 16.4844 15.5875 16.4844 15.5547C16.4844 15.475 16.2172 15.3672 15.5937 15.2031C14.9094 15.0203 14.5297 14.8422 14.2391 14.5703C13.9016 14.2562 13.7891 13.9703 13.7891 13.4453C13.7937 13.0703 13.8125 12.9859 13.9391 12.7093C14.1219 12.3203 14.4312 12.0156 14.8156 11.8468C15.0687 11.7343 15.1156 11.6922 15.2187 11.4812C15.3078 11.2937 15.3828 11.2187 15.5469 11.1343C15.6594 11.0781 15.8094 11.0312 15.875 11.0312C15.9406 11.0312 16.0906 11.0781 16.2031 11.1343Z" fill="white"/>
</svg>
