<svg width="24" height="24" viewBox="0 0 24 24" fill="none" xmlns="http://www.w3.org/2000/svg">
<path opacity="0.977" fill-rule="evenodd" clip-rule="evenodd" d="M11.2734 1.47655C13.7887 1.29226 15.6247 2.30788 16.7813 4.52343C17.0949 5.22468 17.2434 5.95907 17.2266 6.72655C17.7757 6.71596 18.2054 6.93468 18.5156 7.3828C18.5965 7.53158 18.659 7.68782 18.7031 7.85155C18.7344 8.60155 18.7344 9.35155 18.7031 10.1016C18.5547 10.6875 18.1875 11.0547 17.6016 11.2031C17.21 11.211 16.8194 11.2344 16.4297 11.2734C16.0723 12.7012 15.1817 13.6153 13.7578 14.0156C13.1367 14.188 12.5039 14.2583 11.8594 14.2266C11.5547 14.2187 11.25 14.2109 10.9453 14.2031C10.7344 14.1172 10.5859 13.9687 10.5 13.7578C10.1484 12.2344 10.7344 11.6484 12.2578 12C12.5499 12.1122 12.7062 12.3231 12.7266 12.6328C13.4337 12.5721 14.0353 12.2909 14.5313 11.7891C14.8122 11.3993 14.9528 10.9618 14.9531 10.4766C14.9687 9.38282 14.9844 8.28904 15 7.1953C15.1194 6.88185 15.3459 6.72561 15.6797 6.72655C15.6136 5.0594 14.8167 3.89531 13.2891 3.23436C11.4326 2.68253 9.94042 3.19035 8.81251 4.7578C8.44262 5.36235 8.26295 6.0186 8.27345 6.72655C8.60725 6.72561 8.83379 6.88185 8.95314 7.1953C8.9844 8.38279 8.9844 9.57032 8.95314 10.7578C8.86721 10.9687 8.71876 11.1172 8.50782 11.2031C7.78909 11.2344 7.07031 11.2344 6.35157 11.2031C5.76564 11.0547 5.39846 10.6875 5.25001 10.1016C5.21875 9.35155 5.21875 8.60155 5.25001 7.85155C5.39846 7.26561 5.76564 6.89844 6.35157 6.74999C6.47561 6.72669 6.60062 6.71886 6.72657 6.72655C6.80476 4.40735 7.8985 2.77453 10.0078 1.82811C10.4256 1.67304 10.8475 1.55585 11.2734 1.47655Z" fill="white"/>
<path opacity="0.989" fill-rule="evenodd" clip-rule="evenodd" d="M3.25781 6.72657C3.86739 6.71874 4.47676 6.72657 5.08594 6.75001C4.80141 7.0456 4.6217 7.39716 4.54688 7.80469C4.47758 8.44388 4.46196 9.08448 4.5 9.72657C4.69261 11.1845 5.52853 11.9423 7.00781 12C7.57181 13.3448 8.55619 14.2354 9.96094 14.6719C11.3047 15.0781 12.6484 15.0781 13.9922 14.6719C15.3969 14.2354 16.3813 13.3448 16.9453 12C18.7777 11.831 19.6215 10.8232 19.4766 8.97657C19.5197 8.34071 19.4182 7.73133 19.1719 7.14844C19.076 7.01143 18.9744 6.87858 18.8672 6.75001C19.5417 6.70641 20.2135 6.72202 20.8828 6.79688C21.716 7.08319 22.2394 7.65348 22.4531 8.50782C22.4844 11.8203 22.4844 15.1328 22.4531 18.4453C22.2109 19.375 21.625 19.9609 20.6953 20.2031C18.5391 20.2266 16.3829 20.2344 14.2266 20.2266C14.2266 20.4766 14.2266 20.7266 14.2266 20.9766C14.5707 20.9688 14.9144 20.9766 15.2578 21C15.6788 21.2097 15.8273 21.5456 15.7031 22.0078C15.6172 22.2188 15.4687 22.3672 15.2578 22.4531C13.0703 22.4844 10.8828 22.4844 8.69531 22.4531C8.27428 22.2435 8.12583 21.9075 8.25 21.4453C8.33592 21.2344 8.48438 21.0859 8.69531 21C9.03872 20.9766 9.38245 20.9688 9.72656 20.9766C9.72656 20.7266 9.72656 20.4766 9.72656 20.2266C7.57027 20.2344 5.41402 20.2266 3.25781 20.2031C2.32813 19.9609 1.74219 19.375 1.5 18.4453C1.46875 15.1328 1.46875 11.8203 1.5 8.50782C1.75073 7.57744 2.33666 6.98368 3.25781 6.72657Z" fill="white"/>
</svg>
