<svg width="34" height="34" viewBox="0 0 34 34" fill="none" xmlns="http://www.w3.org/2000/svg">
<g clip-path="url(#clip0_985_38)">
<path opacity="0.995" fill-rule="evenodd" clip-rule="evenodd" d="M-0.0332031 -0.0332031C1.18424 -0.0332031 2.4017 -0.0332031 3.61914 -0.0332031C3.61914 3.61914 3.61914 7.27148 3.61914 10.9238C2.4017 10.9238 1.18424 10.9238 -0.0332031 10.9238C-0.0332031 7.27148 -0.0332031 3.61914 -0.0332031 -0.0332031Z" fill="white"/>
<path opacity="0.98" fill-rule="evenodd" clip-rule="evenodd" d="M8.5332 -0.0332031C11.4994 -0.0332031 14.4655 -0.0332031 17.4316 -0.0332031C18.1027 0.113887 18.7225 0.39058 19.291 0.796875C20.2529 1.68129 21.1826 2.59991 22.0801 3.55273C20.3761 3.6302 18.6716 3.64127 16.9668 3.58594C16.512 3.12012 16.0472 2.66634 15.5723 2.22461C15.2965 2.46707 15.0309 2.72162 14.7754 2.98828C16.2474 4.46029 17.7194 5.93229 19.1914 7.4043C19.5799 8.11657 19.4581 8.72525 18.8262 9.23047C18.3824 9.44715 17.9397 9.44715 17.498 9.23047C16.2244 8.00109 14.9517 6.77257 13.6797 5.54492C12.1139 6.90545 10.5091 6.94968 8.86523 5.67773C8.6113 5.94289 8.36779 6.21958 8.13477 6.50781C8.60711 6.90452 9.12727 7.22553 9.69531 7.4707C9.72852 8.46653 9.73961 9.46262 9.72852 10.459C8.44017 10.3875 7.28915 9.95582 6.27539 9.16406C5.78891 9.13086 5.30193 9.11984 4.81445 9.13086C4.81445 6.45248 4.81445 3.77409 4.81445 1.0957C5.32832 1.11935 5.83743 1.08615 6.3418 0.996094C7.09431 0.686076 7.82478 0.342976 8.5332 -0.0332031Z" fill="white"/>
<path opacity="0.968" fill-rule="evenodd" clip-rule="evenodd" d="M33.9668 4.81445C33.9668 9.28579 33.9668 13.7572 33.9668 18.2285C26.2637 18.2285 18.5605 18.2285 10.8574 18.2285C10.8574 14.7311 10.8574 11.2337 10.8574 7.73633C11.8646 7.77856 12.7943 7.53505 13.6465 7.00586C13.9997 7.32581 14.3428 7.65784 14.6758 8.00195C14.6462 8.1602 14.5687 8.3041 14.4434 8.4336C13.7701 8.98404 12.9954 9.21646 12.1191 9.13086C12.1191 10.7246 12.1191 12.3184 12.1191 13.9121C14.222 13.8457 15.2402 14.8639 15.1738 16.9668C20.0215 16.9668 24.8691 16.9668 29.7168 16.9668C29.5951 14.8528 30.5912 13.8346 32.7051 13.9121C32.7051 12.3184 32.7051 10.7246 32.7051 9.13086C30.6307 9.15935 29.6346 8.14114 29.7168 6.07617C26.2857 6.08724 22.8548 6.07617 19.4238 6.04297C19.0254 5.64453 18.627 5.24609 18.2285 4.84766C23.4745 4.81445 28.7206 4.80338 33.9668 4.81445Z" fill="white"/>
<path opacity="0.973" fill-rule="evenodd" clip-rule="evenodd" d="M20.4199 7.20508C23.1426 7.20508 25.8652 7.20508 28.5879 7.20508C28.942 8.84312 29.9381 9.83922 31.5762 10.1934C31.5873 11.0569 31.5762 11.9202 31.543 12.7832C29.9544 13.1433 28.9693 14.1172 28.5879 15.7051C24.471 15.7715 20.3538 15.7936 16.2363 15.7715C15.8961 14.1805 14.9332 13.1844 13.3477 12.7832C13.3145 11.9202 13.3034 11.0569 13.3145 10.1934C14.2046 10.0198 14.9462 9.59929 15.5391 8.93164C15.9679 9.29389 16.3774 9.68123 16.7676 10.0938C17.8431 10.73 18.8613 10.6526 19.8223 9.86133C19.8444 9.88344 19.8666 9.90562 19.8887 9.92773C19.0855 11.5232 19.3732 12.8845 20.752 14.0117C22.2984 14.849 23.6597 14.6166 24.8359 13.3145C25.766 11.7338 25.5558 10.3282 24.2051 9.09766C23.1592 8.42768 22.0746 8.36128 20.9512 8.89844C20.6883 9.04679 20.4559 9.23492 20.2539 9.46289C20.4294 9.05921 20.529 8.62757 20.5527 8.16797C20.5349 7.84258 20.4907 7.52164 20.4199 7.20508Z" fill="white"/>
<path opacity="0.957" fill-rule="evenodd" clip-rule="evenodd" d="M22.0137 9.66206C23.5949 9.59412 24.3364 10.3467 24.2383 11.9199C23.9817 12.8179 23.384 13.3048 22.4453 13.3808C21.2987 13.2856 20.6679 12.6659 20.5527 11.5214C20.6252 10.5648 21.1121 9.94495 22.0137 9.66206Z" fill="white"/>
<path opacity="0.993" fill-rule="evenodd" clip-rule="evenodd" d="M33.9668 24.2051C33.9668 27.459 33.9668 30.7129 33.9668 33.9668C32.7494 33.9668 31.5319 33.9668 30.3145 33.9668C30.3145 30.7129 30.3145 27.459 30.3145 24.2051C31.5319 24.2051 32.7494 24.2051 33.9668 24.2051Z" fill="white"/>
<path opacity="0.98" fill-rule="evenodd" clip-rule="evenodd" d="M26.7285 33.9668C23.541 33.9668 20.3535 33.9668 17.166 33.9668C13.2656 31.673 9.36975 29.3598 5.47854 27.0273C5.04447 26.6451 4.90059 26.1692 5.0469 25.5996C5.37445 24.9103 5.91677 24.6557 6.67386 24.8359C8.95378 26.0644 11.2338 27.2929 13.5137 28.5215C14.0886 30.1039 15.1954 30.6905 16.834 30.2812C18.9504 29.7268 21.0533 29.1402 23.1426 28.5215C23.0435 28.1914 22.9549 27.8594 22.877 27.5254C20.5316 28.1228 18.1853 28.7204 15.8379 29.3183C14.761 29.0681 14.4179 28.4262 14.8086 27.3925C14.9303 27.2265 15.0742 27.0826 15.2403 26.9609C17.7774 26.2436 20.3231 25.5574 22.877 24.9023C24.0949 24.7716 25.3124 24.7716 26.5293 24.9023C27.3947 25.3362 28.2358 25.8121 29.0528 26.33C29.1192 28.5653 29.1413 30.801 29.1192 33.0371C28.3038 33.3125 27.5069 33.6224 26.7285 33.9668Z" fill="white"/>
</g>
<defs>
<clipPath id="clip0_985_38">
<rect width="34" height="34" fill="white"/>
</clipPath>
</defs>
</svg>
