<svg width="28" height="33" viewBox="0 0 28 33" fill="none" xmlns="http://www.w3.org/2000/svg">
<path d="M12.1932 0.521807C11.0218 0.726748 9.53483 1.34157 8.70013 1.97103C7.18506 3.10553 6.41349 4.65722 6.39245 6.62612C6.37842 7.9436 6.63794 9.10737 7.17804 10.1613L7.43055 10.6664L7.46563 8.99026C7.5007 7.17507 7.52174 7.08723 7.90752 6.8457C8.20212 6.6554 8.36345 6.66271 9.30336 6.91157C10.7763 7.30681 11.583 7.39465 13.6732 7.39465C15.7705 7.39465 16.5701 7.30681 18.0431 6.91889C18.976 6.67003 19.1093 6.6554 19.3758 6.80178C19.8388 7.05064 19.8458 7.0726 19.8808 8.81459L19.9159 10.3956L20.1754 9.88321C20.6384 8.94634 20.7576 8.40471 20.7576 7.28486C20.7576 6.43582 20.7296 6.23819 20.5893 5.85759C20.5051 5.61605 20.3718 5.09638 20.3017 4.69382C20.1263 3.73499 19.8107 3.05429 19.2496 2.43215C18.3658 1.44404 17.0681 0.821898 15.2514 0.514487C14.4448 0.382739 12.9718 0.382739 12.1932 0.521807Z" fill="white"/>
<path d="M8.32837 7.48248C8.25823 7.51176 8.23718 8.18514 8.23718 10.5346C8.23718 13.3306 8.25121 13.6014 8.37747 14.1357C8.88249 16.1925 10.3835 17.7588 12.3756 18.3151C13.0069 18.4907 14.4167 18.4907 15.034 18.3078C16.0791 18.0077 16.9138 17.4807 17.6713 16.639C18.4499 15.7753 18.8708 14.9043 19.0812 13.7259C19.2145 12.95 19.2215 7.62887 19.0882 7.51908C19.0181 7.46053 18.8988 7.46785 18.6463 7.54836C15.9599 8.3974 11.8144 8.434 9.00174 7.62155C8.67908 7.53372 8.37045 7.46785 8.32837 7.48248Z" fill="white"/>
<path d="M10.7763 19.2813C10.7974 19.9913 10.8184 20.1011 10.9868 20.3646C11.2042 20.7159 11.8004 21.1404 12.3616 21.3527C12.9297 21.5649 14.0801 21.6162 14.6833 21.4478C15.2725 21.2868 15.7565 21.0306 16.1282 20.672C16.5701 20.2475 16.6543 20.0133 16.6543 19.1862C16.6543 18.7982 16.6403 18.4835 16.6192 18.4835C16.5982 18.4835 16.4228 18.564 16.2404 18.6665C15.5951 19.0032 14.9358 19.1569 13.9187 19.1935C12.8175 19.2374 12.2914 19.1423 11.3515 18.7543L10.7483 18.4982L10.7763 19.2813Z" fill="white"/>
<path d="M9.41559 20.4377L8.79834 20.6207V23.2483V25.876H13.7083H18.6183V23.2557V20.628L18.0782 20.467C17.7766 20.3792 17.482 20.2913 17.4188 20.2694C17.3417 20.2474 17.2715 20.3279 17.1804 20.5329C16.8928 21.1916 15.9108 21.9016 14.8937 22.1944C14.1783 22.3993 12.9858 22.3627 12.2634 22.1212C11.3375 21.8064 10.4537 21.0965 10.2082 20.4743C10.1591 20.3499 10.096 20.2401 10.0679 20.2474C10.0469 20.2547 9.75228 20.3353 9.41559 20.4377Z" fill="white"/>
<path d="M5.684 21.521C4.4074 21.8943 3.17991 22.2968 2.94844 22.4213C1.749 23.0361 0.900281 24.0535 0.465398 25.4002L0.283028 25.9858L0.254971 29.1185C0.240943 31.468 0.254971 32.2804 0.318099 32.3609C0.388242 32.4487 0.91431 32.4634 3.68494 32.4634H6.97462V29.6454C6.97462 27.4277 6.99566 26.7689 7.07282 26.586C7.19206 26.2712 7.54978 25.9638 7.8514 25.9053L8.0969 25.8614V23.3435C8.0969 21.9602 8.07585 20.833 8.0478 20.833C8.01272 20.8403 6.95357 21.1477 5.684 21.521Z" fill="white"/>
<path d="M19.3197 23.3362V25.8614L19.5652 25.9053C19.8668 25.9638 20.2245 26.2712 20.3438 26.586C20.4209 26.7689 20.442 27.4277 20.442 29.6454V32.4634H23.7387C26.9933 32.4634 27.0284 32.4634 27.1055 32.3097C27.1616 32.2072 27.1757 31.2337 27.1616 29.0745C27.1336 26.0883 27.1266 25.9711 26.9722 25.4734C26.5303 24.0608 25.6536 23.0068 24.405 22.392C24.1315 22.2529 22.9671 21.8723 21.7466 21.5283C20.5612 21.1843 19.5231 20.8842 19.453 20.8623C19.3267 20.8183 19.3197 20.8989 19.3197 23.3362Z" fill="white"/>
<path d="M7.79532 26.7324C7.76726 26.7543 7.74622 28.0571 7.74622 29.6235V32.4634H8.623H9.49978V30.8165C9.49978 28.994 9.52783 28.833 9.92063 28.6207C10.2293 28.4524 17.1874 28.4524 17.503 28.6281C17.8748 28.8257 17.9169 29.0599 17.9169 30.8531V32.4634H18.7936H19.6704L19.6564 29.5869L19.6354 26.7177L13.7364 26.6958C10.4958 26.6884 7.81636 26.7031 7.79532 26.7324Z" fill="white"/>
<path d="M10.2714 29.9748V30.6335H13.7083H17.1453V29.9748V29.3161H13.7083H10.2714V29.9748Z" fill="white"/>
<path d="M10.2714 31.951V32.4634H13.7083H17.1453V31.951V31.4387H13.7083H10.2714V31.951Z" fill="white"/>
</svg>
