<svg width="34" height="34" viewBox="0 0 34 34" fill="none" xmlns="http://www.w3.org/2000/svg">
<path opacity="0.987" fill-rule="evenodd" clip-rule="evenodd" d="M1.16211 6.74027C1.85851 6.67427 2.56684 6.65209 3.28711 6.67387C4.92278 7.62467 6.5608 8.57654 8.20117 9.52934C8.13875 10.0791 8.11664 10.6325 8.13477 11.1895C8.08762 11.0306 8.04332 10.8646 8.00195 10.6914C7.48717 10.3843 6.96701 10.0854 6.44141 9.79496C6.416 9.83188 6.3828 9.854 6.3418 9.86137C6.38823 9.49985 6.23328 9.28954 5.87695 9.23051C5.70124 9.1975 5.52416 9.18641 5.3457 9.1973C3.96445 8.36251 2.56992 7.54352 1.16211 6.74027Z" fill="white"/>
<path opacity="0.993" fill-rule="evenodd" clip-rule="evenodd" d="M3.28711 6.67383C3.9069 6.67383 4.52669 6.67383 5.14648 6.67383C5.09585 6.72483 5.02944 6.75803 4.94727 6.77344C7.58811 8.31353 10.2222 9.80767 12.8496 11.2559C12.8939 11.278 12.9381 11.3002 12.9824 11.3223C13.0125 11.3859 13.0567 11.4413 13.1152 11.4883C14.2035 12.0986 15.2881 12.7073 16.3691 13.3145C16.1495 13.5117 15.9281 13.711 15.7051 13.9121C13.527 12.6125 11.3355 11.3286 9.13086 10.0605C9.16074 9.57047 8.93934 9.33805 8.4668 9.36328C8.36825 9.40724 8.27973 9.46263 8.20117 9.5293C6.5608 8.5765 4.92278 7.62463 3.28711 6.67383Z" fill="white"/>
<path opacity="0.988" fill-rule="evenodd" clip-rule="evenodd" d="M11.5215 6.67383C11.4937 6.72177 11.4495 6.75498 11.3887 6.77344C12.5548 7.43358 13.7059 8.10873 14.8418 8.79883C14.2216 8.7878 13.6018 8.79883 12.9824 8.83203C12.8021 8.89014 12.7136 9.01186 12.7168 9.19727C12.6758 9.20464 12.6426 9.22675 12.6172 9.26367C11.4676 8.57285 10.3055 7.90879 9.13086 7.27148C9.13086 7.07227 9.13086 6.87305 9.13086 6.67383C9.92773 6.67383 10.7246 6.67383 11.5215 6.67383Z" fill="white"/>
<path opacity="0.989" fill-rule="evenodd" clip-rule="evenodd" d="M11.5215 6.67383C12.5619 6.67383 13.6022 6.67383 14.6426 6.67383C15.8379 7.38218 17.0332 8.09047 18.2285 8.79883C17.0996 8.79883 15.9707 8.79883 14.8418 8.79883C13.7059 8.10873 12.5548 7.43358 11.3887 6.77344C11.4495 6.75498 11.4937 6.72177 11.5215 6.67383Z" fill="white"/>
<path opacity="0.989" fill-rule="evenodd" clip-rule="evenodd" d="M14.6426 6.67383C15.7494 6.67383 16.8561 6.67383 17.9629 6.67383C17.9555 6.7148 17.9334 6.748 17.8965 6.77344C19.0626 7.43358 20.2137 8.10873 21.3496 8.79883C20.3092 8.79883 19.2689 8.79883 18.2285 8.79883C17.0332 8.09047 15.8379 7.38218 14.6426 6.67383Z" fill="white"/>
<path opacity="0.993" fill-rule="evenodd" clip-rule="evenodd" d="M17.9629 6.67383C19.9772 6.67383 21.9916 6.67383 24.0059 6.67383C25.7545 7.72537 27.5253 8.74364 29.3184 9.72852C29.3184 10.2598 29.3184 10.791 29.3184 11.3223C29.1568 11.3773 29.0018 11.3441 28.8535 11.2227C27.6342 10.5025 26.4168 9.7831 25.2012 9.06445C25.1452 8.95336 25.0567 8.87586 24.9355 8.83203C23.7404 8.79883 22.5451 8.78774 21.3496 8.79883C20.2137 8.10873 19.0626 7.43358 17.8965 6.77344C17.9334 6.748 17.9555 6.7148 17.9629 6.67383Z" fill="white"/>
<path opacity="0.991" fill-rule="evenodd" clip-rule="evenodd" d="M24.0059 6.67385C25.6261 6.64258 27.242 6.67578 28.8535 6.77346C29.069 6.90501 29.2128 7.09314 29.2852 7.33792C29.3184 8.13446 29.3294 8.93133 29.3184 9.72854C27.5253 8.74367 25.7545 7.7254 24.0059 6.67385Z" fill="white"/>
<path opacity="0.994" fill-rule="evenodd" clip-rule="evenodd" d="M1.16209 6.74023C2.5699 7.54348 3.96444 8.36247 5.34569 9.19727C4.65913 9.18624 3.97294 9.19727 3.28709 9.23047C3.17722 9.27084 3.06655 9.30405 2.95506 9.33008C2.15819 8.86523 1.36131 8.40039 0.564435 7.93555C0.487871 7.50842 0.598548 7.14319 0.896467 6.83984C0.979142 6.78732 1.06768 6.75411 1.16209 6.74023Z" fill="white"/>
<path opacity="0.976" fill-rule="evenodd" clip-rule="evenodd" d="M5.14648 6.67383C6.14258 6.67383 7.13867 6.67383 8.13477 6.67383C8.12374 7.20554 8.13477 7.73679 8.16797 8.26758C8.4308 8.59536 8.71854 8.61747 9.03125 8.33398C9.12017 7.98628 9.15337 7.63207 9.13086 7.27148C10.3055 7.90879 11.4676 8.57285 12.6172 9.26367C12.6426 9.22675 12.6758 9.20464 12.7168 9.19727C12.7058 9.83955 12.7168 10.4815 12.75 11.123C12.7976 11.1592 12.8308 11.2035 12.8496 11.2559C10.2222 9.80767 7.58811 8.31353 4.94727 6.77344C5.02944 6.75803 5.09585 6.72483 5.14648 6.67383Z" fill="white"/>
<path opacity="0.996" fill-rule="evenodd" clip-rule="evenodd" d="M0.564453 7.93555C1.36133 8.40039 2.1582 8.86523 2.95508 9.33008C2.7014 9.77221 2.81207 10.071 3.28711 10.2266C3.72926 10.2598 4.17197 10.2708 4.61523 10.2598C5.89909 11.0123 7.18296 11.765 8.4668 12.5176C8.31725 12.5452 8.21764 12.6337 8.16797 12.7832C8.13483 13.1589 8.12374 13.5352 8.13477 13.9121C8.08682 13.9399 8.05362 13.9841 8.03516 14.0449C5.53767 12.6137 3.04744 11.1749 0.564453 9.72852C0.564453 9.13086 0.564453 8.5332 0.564453 7.93555Z" fill="white"/>
<path opacity="0.986" fill-rule="evenodd" clip-rule="evenodd" d="M25.2012 9.06445C26.4168 9.7831 27.6342 10.5025 28.8535 11.2227C29.0018 11.3441 29.1568 11.3773 29.3184 11.3223C29.3184 11.9199 29.3184 12.5176 29.3184 13.1152C29.1413 13.1152 28.9642 13.1152 28.7871 13.1152C27.7287 12.4306 26.6441 11.7775 25.5332 11.1562C25.4319 11.0892 25.3212 11.056 25.2012 11.0566C25.2012 10.3926 25.2012 9.72852 25.2012 9.06445Z" fill="white"/>
<path opacity="0.994" fill-rule="evenodd" clip-rule="evenodd" d="M0.564453 9.72852C3.04744 11.1749 5.53767 12.6137 8.03516 14.0449C8.05362 13.9841 8.08682 13.9399 8.13477 13.9121C8.12381 14.1125 8.1349 14.3117 8.16797 14.5098C8.39176 14.8895 8.66847 14.9338 8.99805 14.6426C10.9681 15.7494 12.9381 16.8561 14.9082 17.9629C15.1499 18.535 15.4598 19.0663 15.8379 19.5566C10.7467 16.6348 5.6556 13.7129 0.564453 10.791C0.564453 10.4369 0.564453 10.0827 0.564453 9.72852Z" fill="white"/>
<path opacity="0.995" fill-rule="evenodd" clip-rule="evenodd" d="M9.13086 10.0605C11.3355 11.3286 13.527 12.6125 15.7051 13.9121C15.5114 14.1888 15.3343 14.4765 15.1738 14.7754C13.2301 13.7149 11.3043 12.6192 9.39648 11.4883C9.29521 11.4213 9.18452 11.3881 9.06445 11.3887C9.1282 10.9519 9.15032 10.5091 9.13086 10.0605Z" fill="white"/>
<path opacity="0.996" fill-rule="evenodd" clip-rule="evenodd" d="M8.13477 11.1895C8.14519 11.4879 8.30012 11.665 8.59961 11.7207C8.81151 11.6854 8.96644 11.5747 9.06445 11.3887C9.18452 11.3881 9.29521 11.4213 9.39648 11.4883C11.3043 12.6192 13.2301 13.7149 15.1738 14.7754C14.9197 15.228 14.7869 15.715 14.7754 16.2363C14.6974 16.1074 14.5867 16.0078 14.4434 15.9375C12.6788 14.9134 10.908 13.9062 9.13086 12.916C9.01757 12.5781 8.79624 12.4453 8.4668 12.5176C7.18296 11.765 5.89909 11.0123 4.61523 10.2598C5.03639 10.2708 5.45696 10.2598 5.87695 10.2266C6.11198 10.1985 6.26692 10.0768 6.3418 9.86133C6.3828 9.85396 6.416 9.83184 6.44141 9.79492C6.96701 10.0854 7.48717 10.3842 8.00195 10.6914C8.04332 10.8645 8.08762 11.0305 8.13477 11.1895Z" fill="white"/>
<path opacity="0.982" fill-rule="evenodd" clip-rule="evenodd" d="M33.3691 12.916C32.3491 12.3397 31.3309 11.7642 30.3145 11.1895C30.3145 10.8353 30.3145 10.4811 30.3145 10.127C31.0895 10.1159 31.8642 10.127 32.6387 10.1602C32.9498 10.2498 33.1822 10.4379 33.3359 10.7246C33.3691 11.4548 33.3802 12.1852 33.3691 12.916Z" fill="white"/>
<path opacity="0.994" fill-rule="evenodd" clip-rule="evenodd" d="M0.564453 10.791C5.6556 13.7129 10.7467 16.6348 15.8379 19.5566C16.2871 19.992 16.7962 20.3461 17.3652 20.6191C17.4315 21.2151 17.4537 21.8128 17.4316 22.4121C17.3731 22.2923 17.2846 22.1927 17.166 22.1133C14.4858 20.5741 11.8074 19.0357 9.13086 17.498C9.15782 16.9391 9.12462 16.3857 9.03125 15.8379C8.86132 15.6487 8.65101 15.5933 8.40039 15.6719C8.26997 15.7682 8.18145 15.89 8.13477 16.0371C5.61133 14.5762 3.08789 13.1152 0.564453 11.6543C0.564453 11.3666 0.564453 11.0788 0.564453 10.791Z" fill="white"/>
<path opacity="0.989" fill-rule="evenodd" clip-rule="evenodd" d="M12.9824 11.3223C14.067 11.3223 15.1517 11.3223 16.2363 11.3223C17.879 12.3001 19.5392 13.2519 21.2168 14.1777C21.2168 14.9303 21.2168 15.683 21.2168 16.4355C21.1687 16.3215 21.1244 16.1997 21.084 16.0703C19.6302 15.2218 18.1693 14.3918 16.7012 13.5801C16.712 13.4236 16.701 13.2686 16.668 13.1152C16.5836 13.2071 16.484 13.2735 16.3691 13.3145C15.2881 12.7073 14.2035 12.0986 13.1152 11.4883C13.0567 11.4413 13.0125 11.3859 12.9824 11.3223Z" fill="white"/>
<path opacity="0.988" fill-rule="evenodd" clip-rule="evenodd" d="M16.2363 11.3223C17.2767 11.3223 18.317 11.3223 19.3574 11.3223C21.8125 12.7936 24.2917 14.2324 26.7949 15.6387C27.1883 16.8546 28.0295 17.408 29.3184 17.2988C29.3184 17.8301 29.3184 18.3613 29.3184 18.8926C27.2244 17.6797 25.1216 16.4844 23.0098 15.3066C22.6455 14.4029 22.059 13.6724 21.25 13.1152C21.2169 13.4687 21.2058 13.8229 21.2168 14.1777C19.5392 13.2519 17.879 12.3001 16.2363 11.3223Z" fill="white"/>
<path opacity="0.991" fill-rule="evenodd" clip-rule="evenodd" d="M19.3574 11.3223C20.4642 11.3223 21.5709 11.3223 22.6777 11.3223C24.1608 12.2189 25.6659 13.0822 27.1934 13.9121C26.8567 14.4364 26.7239 15.0119 26.7949 15.6387C24.2917 14.2324 21.8125 12.7936 19.3574 11.3223Z" fill="white"/>
<path opacity="0.985" fill-rule="evenodd" clip-rule="evenodd" d="M25.2012 11.0566C25.3212 11.0561 25.4319 11.0893 25.5332 11.1563C26.6441 11.7776 27.7287 12.4306 28.7871 13.1152C28.1511 13.1768 27.6198 13.4424 27.1934 13.9121C25.6659 13.0822 24.1608 12.2189 22.6777 11.3223C23.4306 11.3334 24.1833 11.3223 24.9355 11.2891C25.0567 11.2452 25.1452 11.1677 25.2012 11.0566Z" fill="white"/>
<path opacity="0.998" fill-rule="evenodd" clip-rule="evenodd" d="M0.564453 11.6543C3.08789 13.1152 5.61133 14.5762 8.13477 16.0371C8.13477 16.3248 8.13477 16.6127 8.13477 16.9004C6.2293 15.815 4.32566 14.7303 2.42383 13.6465C1.87391 13.2432 1.25412 13.0662 0.564453 13.1152C0.564453 12.6283 0.564453 12.1413 0.564453 11.6543Z" fill="white"/>
<path opacity="0.987" fill-rule="evenodd" clip-rule="evenodd" d="M30.3145 11.1895C31.3309 11.7642 32.3491 12.3397 33.3691 12.916C33.3691 13.558 33.3691 14.1998 33.3691 14.8418C32.4191 14.3003 31.4673 13.758 30.5137 13.2148C30.4382 13.1388 30.3718 13.0613 30.3145 12.9824C30.3145 12.3848 30.3145 11.7871 30.3145 11.1895Z" fill="white"/>
<path opacity="0.991" fill-rule="evenodd" clip-rule="evenodd" d="M16.7012 13.5801C18.1693 14.3918 19.6302 15.2218 21.084 16.0703C21.1244 16.1997 21.1687 16.3215 21.2168 16.4355C21.1793 16.6552 21.0465 16.788 20.8184 16.834C19.4483 16.0381 18.0759 15.2412 16.7012 14.4434C16.7012 14.1556 16.7012 13.8678 16.7012 13.5801Z" fill="white"/>
<path opacity="0.993" fill-rule="evenodd" clip-rule="evenodd" d="M9.13086 12.916C10.908 13.9062 12.6788 14.9134 14.4434 15.9375C14.5867 16.0078 14.6974 16.1074 14.7754 16.2363C14.6999 16.8165 14.7441 17.392 14.9082 17.9629C12.9381 16.8561 10.9681 15.7494 8.99805 14.6426C9.03039 14.578 9.06359 14.5116 9.09766 14.4434C9.13086 13.9348 9.14188 13.4256 9.13086 12.916Z" fill="white"/>
<path opacity="0.974" fill-rule="evenodd" clip-rule="evenodd" d="M30.3144 12.9824C30.3718 13.0613 30.4382 13.1388 30.5137 13.2148C31.4673 13.758 32.4191 14.3003 33.3691 14.8418C33.3691 15.4395 33.3691 16.0371 33.3691 16.6348C32.9396 16.6116 32.5191 16.6558 32.1074 16.7676C30.8258 16.0408 29.542 15.3104 28.2559 14.5762C28.197 14.5214 28.1749 14.455 28.1894 14.377C28.2874 14.2501 28.4202 14.1727 28.5879 14.1445C29.163 14.1113 29.7385 14.1003 30.3144 14.1113C30.3144 13.735 30.3144 13.3587 30.3144 12.9824Z" fill="white"/>
<path opacity="0.984" fill-rule="evenodd" clip-rule="evenodd" d="M28.1894 14.377C28.1749 14.455 28.197 14.5214 28.2559 14.5762C29.542 15.3104 30.8258 16.0408 32.1074 16.7676C31.2492 17.2074 30.8286 17.9157 30.8457 18.8926C30.6942 18.819 30.5503 18.7304 30.4141 18.627C30.3956 18.6878 30.3624 18.732 30.3144 18.7598C30.3144 17.9408 30.3144 17.1217 30.3144 16.3027C29.7164 16.3138 29.1187 16.3027 28.5215 16.2695C27.8852 16.0018 27.6528 15.526 27.8242 14.8418C27.8863 14.6363 28.0081 14.4813 28.1894 14.377Z" fill="white"/>
<path opacity="0.981" fill-rule="evenodd" clip-rule="evenodd" d="M2.42383 13.6465C4.32566 14.7303 6.2293 15.815 8.13477 16.9004C8.12374 17.1669 8.13483 17.4326 8.16797 17.6973C8.23736 17.7552 8.29268 17.8216 8.33398 17.8965C6.62238 16.9409 4.91795 15.9669 3.2207 14.9746C3.17531 14.9987 3.13105 15.0208 3.08789 15.041C2.99083 14.5149 2.76948 14.0501 2.42383 13.6465Z" fill="white"/>
<path opacity="0.987" fill-rule="evenodd" clip-rule="evenodd" d="M16.7012 14.4434C18.0759 15.2412 19.4483 16.0381 20.8184 16.834C20.2219 17.221 19.6021 17.5752 18.959 17.8965C18.2105 17.4917 17.469 17.0711 16.7344 16.6348C16.7012 15.9046 16.6901 15.1742 16.7012 14.4434Z" fill="white"/>
<path opacity="0.995" fill-rule="evenodd" clip-rule="evenodd" d="M8.33398 17.8965C8.39315 17.937 8.45956 17.9591 8.5332 17.9629C11.4553 19.7563 14.4214 21.4828 17.4316 23.1426C17.4316 23.3639 17.4316 23.5853 17.4316 23.8066C16.7676 23.8066 16.1035 23.8066 15.4395 23.8066C13.3062 22.6404 11.2033 21.423 9.13086 20.1543C9.15483 19.7497 9.12163 19.3512 9.03125 18.959C8.71854 18.6755 8.4308 18.6976 8.16797 19.0254C8.1349 19.2457 8.12381 19.467 8.13477 19.6895C7.45955 19.3632 6.81766 18.9869 6.20898 18.5605C6.43319 18.216 6.36678 17.9394 6.00977 17.7305C5.05298 17.6763 4.10116 17.6874 3.1543 17.7637C2.76012 17.5463 2.38382 17.3029 2.02539 17.0332C2.76134 16.5798 3.1155 15.9158 3.08789 15.041C3.13105 15.0208 3.17531 14.9987 3.2207 14.9746C4.91795 15.9669 6.62238 16.9409 8.33398 17.8965Z" fill="white"/>
<path opacity="0.999" fill-rule="evenodd" clip-rule="evenodd" d="M23.0098 15.3066C25.1216 16.4844 27.2244 17.6797 29.3184 18.8926C29.3184 19.5345 29.3184 20.1764 29.3184 20.8184C27.2894 19.6543 25.264 18.4812 23.2422 17.2988C23.2168 17.3358 23.1836 17.3579 23.1426 17.3652C23.2344 16.6711 23.1902 15.9849 23.0098 15.3066Z" fill="white"/>
<path opacity="0.994" fill-rule="evenodd" clip-rule="evenodd" d="M29.3184 20.8184C29.3184 21.1061 29.3184 21.3939 29.3184 21.6816C27.2305 20.5157 25.1497 19.3315 23.0762 18.1289C23.0263 18.0843 23.0041 18.029 23.0098 17.9629C23.0231 17.755 23.0673 17.5558 23.1426 17.3652C23.1836 17.3579 23.2168 17.3357 23.2422 17.2988C25.264 18.4812 27.2894 19.6543 29.3184 20.8184Z" fill="white"/>
<path opacity="0.997" fill-rule="evenodd" clip-rule="evenodd" d="M9.13086 17.498C11.8074 19.0357 14.4858 20.5741 17.166 22.1133C17.2846 22.1927 17.3731 22.2923 17.4316 22.4121C17.4316 22.6556 17.4316 22.8991 17.4316 23.1426C14.4214 21.4828 11.4553 19.7563 8.5332 17.9629C8.86975 17.9802 9.06897 17.8252 9.13086 17.498Z" fill="white"/>
<path opacity="0.994" fill-rule="evenodd" clip-rule="evenodd" d="M23.0098 17.9629C23.0041 18.029 23.0262 18.0843 23.0762 18.1289C25.1497 19.3315 27.2305 20.5157 29.3184 21.6816C29.3184 22.1244 29.3184 22.567 29.3184 23.0098C27.1287 21.7378 24.9373 20.4649 22.7441 19.1914C22.6429 19.1244 22.5322 19.0912 22.4121 19.0918C22.6303 18.7216 22.8295 18.3453 23.0098 17.9629Z" fill="white"/>
<path opacity="0.964" fill-rule="evenodd" clip-rule="evenodd" d="M2.02539 17.0332C2.38382 17.3029 2.76012 17.5463 3.1543 17.7637C2.86041 17.8871 2.7608 18.1085 2.85547 18.4277C2.93295 18.5052 3.01041 18.5827 3.08789 18.6602C4.08398 18.7044 5.08008 18.7044 6.07617 18.6602C6.11231 18.6125 6.15658 18.5793 6.20898 18.5605C6.81766 18.9869 7.45955 19.3632 8.13477 19.6895C8.12374 20.0664 8.13483 20.4427 8.16797 20.8184C8.36984 21.0829 8.62444 21.1493 8.93164 21.0176C8.96172 21.0812 9.00595 21.1366 9.06445 21.1836C10.5847 22.043 12.0899 22.9173 13.5801 23.8066C12.097 23.8066 10.6139 23.8066 9.13086 23.8066C9.14188 23.297 9.13086 22.7879 9.09766 22.2793C9.00734 22.1118 8.88562 21.9789 8.73242 21.8809C7.94531 21.4261 7.15952 20.9613 6.375 20.4863C6.33045 20.5363 6.27512 20.5584 6.20898 20.5527C6.43293 20.2052 6.36653 19.9284 6.00977 19.7227C5.03086 19.6685 4.0569 19.6796 3.08789 19.7559C3.09359 19.6897 3.07145 19.6344 3.02148 19.5898C2.19886 19.1344 1.37986 18.6807 0.564453 18.2285C0.564453 17.9186 0.564453 17.6087 0.564453 17.2988C1.08228 17.3548 1.56926 17.2662 2.02539 17.0332Z" fill="white"/>
<path opacity="0.991" fill-rule="evenodd" clip-rule="evenodd" d="M0.564453 18.2285C1.37986 18.6807 2.19886 19.1344 3.02148 19.5898C3.07145 19.6344 3.09359 19.6897 3.08789 19.7559C2.76614 20.0047 2.74401 20.2814 3.02148 20.5859C3.63418 20.6819 4.25397 20.7151 4.88086 20.6855C4.58323 20.7404 4.27334 20.7736 3.95117 20.7852C5.32781 21.6062 6.72237 22.392 8.13477 23.1426C8.13477 23.3639 8.13477 23.5853 8.13477 23.8066C8.04625 23.8066 7.95766 23.8066 7.86914 23.8066C5.4366 22.391 3.0017 20.9743 0.564453 19.5566C0.564453 19.1139 0.564453 18.6712 0.564453 18.2285Z" fill="white"/>
<path opacity="0.996" fill-rule="evenodd" clip-rule="evenodd" d="M22.4121 19.0918C22.5322 19.0912 22.6429 19.1244 22.7441 19.1914C24.9373 20.465 27.1287 21.7378 29.3184 23.0098C29.1747 23.5515 28.8205 23.8171 28.2559 23.8066C28.0843 23.7586 27.9073 23.7033 27.7246 23.6406C25.6642 22.4335 23.6056 21.2271 21.5488 20.0215C21.8835 19.7533 22.1713 19.4434 22.4121 19.0918Z" fill="white"/>
<path opacity="0.991" fill-rule="evenodd" clip-rule="evenodd" d="M0.564453 19.5566C3.0017 20.9743 5.4366 22.391 7.86914 23.8066C7.20508 23.8066 6.54102 23.8066 5.87695 23.8066C5.70545 23.7586 5.52837 23.7032 5.3457 23.6406C3.76098 22.7044 2.16723 21.7858 0.564453 20.8848C0.564453 20.442 0.564453 19.9994 0.564453 19.5566Z" fill="white"/>
<path opacity="0.988" fill-rule="evenodd" clip-rule="evenodd" d="M9.13086 20.1543C11.2033 21.423 13.3062 22.6404 15.4395 23.8066C14.8197 23.8066 14.1998 23.8066 13.5801 23.8066C12.0899 22.9173 10.5847 22.043 9.06445 21.1836C9.00595 21.1366 8.96172 21.0812 8.93164 21.0176C9.10011 20.7589 9.16652 20.4712 9.13086 20.1543Z" fill="white"/>
<path opacity="0.997" fill-rule="evenodd" clip-rule="evenodd" d="M21.5488 20.0215C23.6056 21.2271 25.6642 22.4335 27.7246 23.6406C27.9073 23.7032 28.0843 23.7586 28.2559 23.8066C27.5697 23.8066 26.8834 23.8066 26.1973 23.8066C26.225 23.7587 26.2692 23.7255 26.3301 23.707C24.4669 22.6652 22.6296 21.5917 20.8184 20.4863C21.0731 20.3479 21.3166 20.193 21.5488 20.0215Z" fill="white"/>
<path opacity="0.991" fill-rule="evenodd" clip-rule="evenodd" d="M20.8184 20.4863C22.6296 21.5917 24.4669 22.6652 26.3301 23.707C26.2693 23.7255 26.2251 23.7587 26.1973 23.8066C25.2455 23.8066 24.2936 23.8066 23.3418 23.8066C23.0908 23.7483 22.8473 23.6487 22.6114 23.5078C22.053 23.1493 21.4775 22.8173 20.8848 22.5117C20.703 22.4338 20.5702 22.312 20.4864 22.1465C20.4644 21.6354 20.4866 21.1264 20.5528 20.6191C20.6431 20.574 20.7316 20.5297 20.8184 20.4863Z" fill="white"/>
<path opacity="0.986" fill-rule="evenodd" clip-rule="evenodd" d="M30.8457 18.8926C31.1437 20.2296 31.9849 20.8716 33.3691 20.8184C33.3691 21.5931 33.3691 22.3678 33.3691 23.1426C32.3975 22.5929 31.4235 22.0395 30.4473 21.4824C30.4019 21.5065 30.3576 21.5286 30.3145 21.5488C30.3145 20.6191 30.3145 19.6895 30.3145 18.7598C30.3624 18.732 30.3956 18.6878 30.4141 18.627C30.5503 18.7304 30.6942 18.819 30.8457 18.8926Z" fill="white"/>
<path opacity="0.986" fill-rule="evenodd" clip-rule="evenodd" d="M8.73242 21.8809C8.46726 21.8639 8.27913 21.9746 8.16797 22.2129C8.13483 22.522 8.12374 22.8319 8.13477 23.1426C6.72237 22.392 5.32781 21.6062 3.95117 20.7852C4.27334 20.7736 4.58323 20.7404 4.88086 20.6855C5.27991 20.6966 5.67835 20.6855 6.07617 20.6523C6.11231 20.6047 6.15658 20.5715 6.20898 20.5527C6.27512 20.5584 6.33045 20.5363 6.375 20.4863C7.15952 20.9613 7.94531 21.4261 8.73242 21.8809Z" fill="white"/>
<path opacity="0.98" fill-rule="evenodd" clip-rule="evenodd" d="M0.564448 20.8848C2.16722 21.7858 3.76097 22.7044 5.3457 23.6406C5.52836 23.7032 5.70545 23.7586 5.87695 23.8066C4.37158 23.8177 2.86637 23.8066 1.36132 23.7734C1.01353 23.7137 0.758978 23.5255 0.597651 23.209C0.564457 22.4346 0.553389 21.6598 0.564448 20.8848Z" fill="white"/>
<path opacity="0.973" fill-rule="evenodd" clip-rule="evenodd" d="M20.4863 22.1465C20.5701 22.312 20.7029 22.4338 20.8848 22.5117C21.4774 22.8173 22.053 23.1493 22.6113 23.5078C22.8473 23.6487 23.0908 23.7483 23.3418 23.8066C22.39 23.8066 21.4381 23.8066 20.4863 23.8066C20.4863 23.2533 20.4863 22.6998 20.4863 22.1465Z" fill="white"/>
<path opacity="0.998" fill-rule="evenodd" clip-rule="evenodd" d="M33.3691 23.1426C33.3691 23.873 33.3691 24.6035 33.3691 25.334C32.3055 24.7345 31.243 24.1368 30.1816 23.541C30.2247 23.4357 30.2579 23.325 30.2812 23.209C30.3145 22.656 30.3255 22.1027 30.3145 21.5488C30.3576 21.5286 30.4019 21.5065 30.4473 21.4824C31.4235 22.0395 32.3975 22.5929 33.3691 23.1426Z" fill="white"/>
<path opacity="0.994" fill-rule="evenodd" clip-rule="evenodd" d="M30.1816 23.541C31.243 24.1368 32.3055 24.7345 33.3691 25.334C33.3802 25.7772 33.3691 26.22 33.3359 26.6621C33.3175 26.7229 33.2843 26.7672 33.2363 26.7949C31.9283 26.0748 30.6444 25.3222 29.3848 24.5371C29.7473 24.285 30.0129 23.953 30.1816 23.541Z" fill="white"/>
<path opacity="0.987" fill-rule="evenodd" clip-rule="evenodd" d="M7.4707 24.8027C8.84312 25.6217 10.2155 26.4408 11.5879 27.2598C10.5697 27.2598 9.55141 27.2598 8.5332 27.2598C8.30802 27.2172 8.08669 27.1397 7.86914 27.0273C6.88387 26.4351 5.88781 25.8595 4.88086 25.3008C4.76226 25.2214 4.67372 25.1217 4.61523 25.002C4.61523 24.9355 4.61523 24.8691 4.61523 24.8027C5.56706 24.8027 6.51888 24.8027 7.4707 24.8027Z" fill="white"/>
<path opacity="0.987" fill-rule="evenodd" clip-rule="evenodd" d="M10.5254 24.8027C11.6322 24.8027 12.7389 24.8027 13.8457 24.8027C15.2511 25.605 16.6457 26.424 18.0293 27.2598C16.9889 27.2598 15.9486 27.2598 14.9082 27.2598C13.4124 26.5116 11.9515 25.6926 10.5254 24.8027Z" fill="white"/>
<path opacity="0.988" fill-rule="evenodd" clip-rule="evenodd" d="M13.8457 24.8027C14.9525 24.8027 16.0592 24.8027 17.166 24.8027C18.5497 25.6385 19.9442 26.4575 21.3496 27.2598C20.2428 27.2598 19.1361 27.2598 18.0293 27.2598C16.6457 26.424 15.2511 25.605 13.8457 24.8027Z" fill="white"/>
<path opacity="0.989" fill-rule="evenodd" clip-rule="evenodd" d="M17.166 24.8027C18.2949 24.8027 19.4238 24.8027 20.5527 24.8027C20.525 24.8507 20.4808 24.8839 20.4199 24.9023C21.7743 25.6899 23.1246 26.4757 24.4707 27.2598C23.4303 27.2598 22.39 27.2598 21.3496 27.2598C19.9442 26.4575 18.5497 25.6385 17.166 24.8027Z" fill="white"/>
<path opacity="0.987" fill-rule="evenodd" clip-rule="evenodd" d="M20.5527 24.8027C21.5045 24.8027 22.4564 24.8027 23.4082 24.8027C24.7212 25.6035 26.0493 26.3893 27.3926 27.1602C27.5392 27.1728 27.672 27.206 27.791 27.2598C26.6842 27.2598 25.5775 27.2598 24.4707 27.2598C23.1246 26.4757 21.7743 25.6899 20.4199 24.9023C20.4808 24.8839 20.525 24.8507 20.5527 24.8027Z" fill="white"/>
<path opacity="0.987" fill-rule="evenodd" clip-rule="evenodd" d="M23.4082 24.8027C24.515 24.8027 25.6217 24.8027 26.7285 24.8027C28.1122 25.6385 29.5067 26.4575 30.9121 27.2598C29.8717 27.2598 28.8314 27.2598 27.791 27.2598C27.672 27.206 27.5392 27.1728 27.3926 27.1602C26.0493 26.3893 24.7212 25.6035 23.4082 24.8027Z" fill="white"/>
<path opacity="0.988" fill-rule="evenodd" clip-rule="evenodd" d="M29.3848 24.5371C30.6444 25.3222 31.9283 26.0748 33.2363 26.7949C33.1594 27.0155 33.0044 27.1594 32.7715 27.2266C32.1521 27.2598 31.5323 27.2708 30.9121 27.2598C29.5067 26.4575 28.1122 25.6385 26.7285 24.8027C27.3487 24.8138 27.9685 24.8027 28.5879 24.7695C28.8649 24.7251 29.1305 24.6476 29.3848 24.5371Z" fill="white"/>
<path opacity="0.993" fill-rule="evenodd" clip-rule="evenodd" d="M7.4707 24.8027C8.48891 24.8027 9.50718 24.8027 10.5254 24.8027C11.9515 25.6926 13.4124 26.5116 14.9082 27.2598C13.8014 27.2598 12.6947 27.2598 11.5879 27.2598C10.2155 26.4408 8.84312 25.6217 7.4707 24.8027Z" fill="white"/>
<path opacity="0.978" fill-rule="evenodd" clip-rule="evenodd" d="M4.61522 25.002C4.67371 25.1217 4.76225 25.2214 4.88085 25.3008C5.8878 25.8595 6.88386 26.4351 7.86913 27.0273C8.08668 27.1397 8.30801 27.2172 8.53319 27.2598C7.37752 27.2902 6.2265 27.257 5.08007 27.1602C4.8646 27.0286 4.72072 26.8405 4.64843 26.5957C4.61524 26.0649 4.60417 25.5337 4.61522 25.002Z" fill="white"/>
</svg>
