<svg width="34" height="34" viewBox="0 0 34 34" fill="none" xmlns="http://www.w3.org/2000/svg">
<g clip-path="url(#clip0_985_13)">
<path opacity="0.943" fill-rule="evenodd" clip-rule="evenodd" d="M14.377 0.830076C15.8823 0.819013 17.3875 0.830076 18.8926 0.863279C17.6309 1.85937 16.3691 2.85547 15.1074 3.85156C14.2502 3.92787 13.3869 3.96107 12.5176 3.95117C11.6986 3.92904 10.8795 3.9069 10.0605 3.88476C11.5035 2.86077 12.9423 1.84254 14.377 0.830076Z" fill="white"/>
<path opacity="0.946" fill-rule="evenodd" clip-rule="evenodd" d="M20.752 0.83007C22.4127 0.80795 24.0729 0.830083 25.7324 0.896476C24.5204 2.01176 23.2808 3.0964 22.0137 4.15038C21.8613 4.08851 21.7063 4.03316 21.5488 3.98437C19.9989 3.97328 18.4494 3.94008 16.9004 3.88476C18.2062 2.88821 19.4901 1.86998 20.752 0.83007Z" fill="white"/>
<path opacity="0.97" fill-rule="evenodd" clip-rule="evenodd" d="M26.5957 1.62695C26.6842 3.53008 26.7285 5.45586 26.7285 7.4043C26.7174 9.33008 26.7064 11.2559 26.6953 13.1816C26.651 13.2702 26.6068 13.3587 26.5625 13.4473C25.3893 14.6205 24.2162 15.7936 23.043 16.9668C23.0209 13.1373 22.9987 9.30796 22.9766 5.47852C22.9465 5.30258 22.8912 5.13656 22.8105 4.98047C24.102 3.89269 25.3637 2.77486 26.5957 1.62695Z" fill="white"/>
<path opacity="0.98" fill-rule="evenodd" clip-rule="evenodd" d="M8.26759 5.08006C12.7001 5.04732 17.1273 5.08053 21.5488 5.17967C21.7022 5.2884 21.8019 5.43228 21.8477 5.61131C21.892 9.7285 21.892 13.8457 21.8477 17.9629C21.8142 18.1966 21.6925 18.3626 21.4824 18.4609C17.0057 18.5269 12.5343 18.5048 8.06838 18.3945C7.94772 18.275 7.87022 18.1311 7.83595 17.9629C7.79166 13.8457 7.79166 9.7285 7.83595 5.61131C7.92075 5.38299 8.06459 5.20591 8.26759 5.08006ZM10.127 13.6465C11.0569 13.6354 11.9866 13.6465 12.916 13.6797C13.4141 13.8236 13.735 14.1445 13.8789 14.6426C13.9232 15.1738 13.9232 15.7051 13.8789 16.2363C13.7869 16.749 13.4881 17.0699 12.9824 17.1992C11.9863 17.2435 10.9903 17.2435 9.99416 17.1992C9.58463 17.0553 9.30798 16.7787 9.16408 16.3691C9.11979 15.7494 9.11979 15.1295 9.16408 14.5098C9.33169 14.043 9.65263 13.7552 10.127 13.6465ZM18.0293 13.6465C18.738 13.6354 19.4464 13.6465 20.1543 13.6797C20.6017 13.9333 20.6681 14.2653 20.3535 14.6758C20.2481 14.733 20.1374 14.7773 20.0215 14.8086C19.4017 14.8529 18.7819 14.8529 18.1621 14.8086C17.7163 14.703 17.5503 14.4263 17.6641 13.9785C17.779 13.8522 17.9007 13.7415 18.0293 13.6465ZM17.9629 16.1035C18.7158 16.0924 19.4685 16.1035 20.2207 16.1367C20.5241 16.3054 20.6237 16.56 20.5195 16.9004C20.4381 17.0482 20.3163 17.1478 20.1543 17.1992C19.446 17.2435 18.7377 17.2435 18.0293 17.1992C17.628 17.0077 17.5284 16.7089 17.7305 16.3027C17.8065 16.2273 17.884 16.1609 17.9629 16.1035Z" fill="white"/>
<path opacity="0.928" fill-rule="evenodd" clip-rule="evenodd" d="M10.2598 14.8418C11.1009 14.8418 11.942 14.8418 12.7832 14.8418C12.8038 15.2574 12.7816 15.6668 12.7168 16.0703C11.8981 16.1035 11.0791 16.1146 10.2598 16.1035C10.2598 15.683 10.2598 15.2623 10.2598 14.8418Z" fill="white"/>
<path opacity="0.951" fill-rule="evenodd" clip-rule="evenodd" d="M6.3418 15.4395C6.45248 15.4395 6.56315 15.4395 6.67383 15.4395C6.66274 16.3473 6.67383 17.2548 6.70703 18.1621C6.72516 18.2684 6.75836 18.368 6.80664 18.4609C5.25716 18.5052 3.70768 18.5052 2.1582 18.4609C3.56478 17.4629 4.95931 16.4557 6.3418 15.4395Z" fill="white"/>
<path opacity="0.974" fill-rule="evenodd" clip-rule="evenodd" d="M26.1309 15.4395C28.433 15.4284 30.7351 15.4395 33.0371 15.4727C31.8248 16.5968 30.5742 17.6704 29.2852 18.6934C29.0816 18.6128 28.8712 18.5574 28.6543 18.5274C26.817 18.5052 24.9798 18.4831 23.1426 18.4609C24.1521 17.4625 25.1482 16.4554 26.1309 15.4395Z" fill="white"/>
<path opacity="0.988" fill-rule="evenodd" clip-rule="evenodd" d="M33.9668 16.1699C33.9668 20.0658 33.9668 23.9616 33.9668 27.8574C32.7756 29.0818 31.5693 30.2993 30.3477 31.5098C30.3255 27.7246 30.3034 23.9395 30.2812 20.1543C30.2552 19.9466 30.1999 19.7474 30.1152 19.5566C31.3987 18.4281 32.6826 17.2992 33.9668 16.1699Z" fill="white"/>
<path opacity="0.985" fill-rule="evenodd" clip-rule="evenodd" d="M-0.0332031 32.7715C-0.0332031 28.5215 -0.0332031 24.2715 -0.0332031 20.0215C0.0429237 19.8903 0.153601 19.7907 0.298828 19.7227C4.72591 19.6784 9.15297 19.6784 13.5801 19.7227C13.7745 19.8063 13.8962 19.9502 13.9453 20.1543C13.9896 24.3158 13.9896 28.4772 13.9453 32.6387C13.89 32.8711 13.7461 33.015 13.5137 33.0703C9.15297 33.1146 4.79232 33.1146 0.431641 33.0703C0.250128 33.0103 0.0951807 32.9107 -0.0332031 32.7715ZM2.02539 28.2559C3.06599 28.2448 4.10636 28.2559 5.14648 28.2891C5.58278 28.4377 5.85947 28.7365 5.97656 29.1856C6.02084 29.7389 6.02084 30.2924 5.97656 30.8457C5.80873 31.4343 5.42136 31.7553 4.81445 31.8086C3.99544 31.8529 3.17643 31.8529 2.35742 31.8086C1.80063 31.736 1.43539 31.4372 1.26172 30.9121C1.21745 30.3145 1.21745 29.7168 1.26172 29.1192C1.41266 28.736 1.66722 28.4483 2.02539 28.2559ZM10.0605 28.2559C10.8135 28.2448 11.5661 28.2559 12.3184 28.2891C12.6218 28.4578 12.7214 28.7124 12.6172 29.0528C12.5357 29.2006 12.4139 29.3002 12.252 29.3516C11.5436 29.3959 10.8353 29.3959 10.127 29.3516C9.62472 29.0081 9.60261 28.6428 10.0605 28.2559ZM10.1934 30.6465C10.8799 30.6355 11.5661 30.6465 12.252 30.6797C12.7267 30.98 12.7709 31.3341 12.3848 31.7422C11.61 31.875 10.8353 31.875 10.0605 31.7422C9.72619 31.5421 9.64869 31.2654 9.82812 30.9121C9.92773 30.7814 10.0495 30.6929 10.1934 30.6465Z" fill="white"/>
<path opacity="0.985" fill-rule="evenodd" clip-rule="evenodd" d="M15.4395 19.6894C19.9384 19.6567 24.4319 19.6899 28.9199 19.789C28.9997 19.849 29.0551 19.9264 29.086 20.0215C29.1519 24.299 29.1297 28.5712 29.0195 32.8379C28.932 32.9698 28.8102 33.0473 28.6543 33.0703C24.2936 33.1146 19.933 33.1146 15.5723 33.0703C15.3399 33.015 15.196 32.8711 15.1406 32.6387C15.0963 28.4551 15.0963 24.2715 15.1406 20.0879C15.2291 19.9444 15.3287 19.8116 15.4395 19.6894ZM17.2324 28.2558C18.273 28.2448 19.3134 28.2558 20.3535 28.289C20.7409 28.4108 20.9955 28.6654 21.1172 29.0527C21.25 29.6947 21.25 30.3366 21.1172 30.9785C20.9315 31.487 20.5662 31.7636 20.0215 31.8086C19.2025 31.8529 18.3835 31.8529 17.5645 31.8086C16.9271 31.7467 16.5398 31.4036 16.4024 30.7793C16.3581 30.2923 16.3581 29.8053 16.4024 29.3183C16.4732 28.799 16.7499 28.4448 17.2324 28.2558ZM25.2676 28.2558C26.0205 28.2448 26.7732 28.2558 27.5254 28.289C27.9841 28.6737 27.962 29.0279 27.459 29.3515C26.7506 29.3958 26.0424 29.3958 25.334 29.3515C24.7592 29.0127 24.737 28.6475 25.2676 28.2558ZM25.334 30.6465C26.0206 30.6354 26.7068 30.6465 27.3926 30.6797C27.8907 30.9011 27.9793 31.2332 27.6582 31.6758C27.5326 31.7404 27.3998 31.7847 27.2598 31.8086C26.5696 31.8683 25.8834 31.8462 25.2012 31.7422C24.7689 31.3224 24.8132 30.9572 25.334 30.6465Z" fill="white"/>
<path opacity="0.927" fill-rule="evenodd" clip-rule="evenodd" d="M2.35742 29.3848C3.19857 29.3848 4.03971 29.3848 4.88086 29.3848C4.88086 29.8053 4.88086 30.2259 4.88086 30.6465C4.03971 30.6465 3.19857 30.6465 2.35742 30.6465C2.35742 30.2259 2.35742 29.8053 2.35742 29.3848Z" fill="white"/>
<path opacity="0.952" fill-rule="evenodd" clip-rule="evenodd" d="M17.5645 29.3848C18.3834 29.3848 19.2025 29.3848 20.0215 29.3848C20.0215 29.8053 20.0215 30.2259 20.0215 30.6465C19.2025 30.6465 18.3834 30.6465 17.5645 30.6465C17.5645 30.2259 17.5645 29.8053 17.5645 29.3848Z" fill="white"/>
</g>
<defs>
<clipPath id="clip0_985_13">
<rect width="34" height="34" fill="white"/>
</clipPath>
</defs>
</svg>
