<svg width="20" height="20" viewBox="0 0 20 20" fill="none" xmlns="http://www.w3.org/2000/svg">
<path d="M3.61084 0.0231724C3.29821 0.062252 2.92304 0.163858 2.82925 0.234201C2.62213 0.398336 2.54788 0.738329 2.66902 0.964991C2.70029 1.02361 3.15752 1.50038 3.68509 2.02796L4.64645 2.98541L3.81797 3.8139L2.98557 4.64629L2.00858 3.67321C1.47319 3.13782 0.992509 2.68059 0.945614 2.65714C0.726768 2.54381 0.351603 2.64542 0.214825 2.85645C0.121033 2.99713 0.0350583 3.41919 0.0116105 3.86861C-0.0587328 5.02536 0.375051 6.16649 1.20354 6.99498C1.7233 7.51474 2.35639 7.87036 3.11844 8.07748C3.4428 8.16346 3.57567 8.17518 4.09934 8.17518C4.63082 8.17518 4.75197 8.16346 5.09587 8.07358L5.48667 7.96806L8.76545 11.2468L12.0403 14.5217L11.9817 14.7132C11.8566 15.104 11.8215 15.3854 11.8215 15.9208C11.8215 16.7688 12.0208 17.4371 12.4663 18.1288C13.2635 19.3637 14.6704 20.0749 16.132 19.9929C18.2344 19.8717 19.8875 18.203 19.9891 16.0966C20.0868 14.1036 18.7933 12.3997 16.808 11.9073C16.2101 11.7588 15.3113 11.79 14.7134 11.9815L14.5219 12.0402L11.247 8.76529L7.96822 5.48651L8.07374 5.09571C8.16362 4.75181 8.17534 4.63066 8.17534 4.09918C8.17534 3.57551 8.16362 3.44264 8.07764 3.11828C7.63604 1.46912 6.3894 0.320177 4.74415 0.0544357C4.41979 -0.000274658 3.89612 -0.0119991 3.61084 0.0231724ZM16.7299 15.0688L17.0738 15.4127V15.9012V16.3897L16.7299 16.7336L16.3899 17.0736H15.9014H15.4129L15.0729 16.7336L14.729 16.3897V15.9012V15.4127L15.069 15.0727L15.4129 14.7288H15.9014H16.3899L16.7299 15.0688Z" fill="white"/>
<path d="M15.2292 0.0544825C13.584 0.331947 12.3217 1.52388 11.9074 3.19258C11.7589 3.79049 11.7902 4.68933 11.9817 5.28724L12.0403 5.47483L11.4424 6.07665L10.8406 6.67848L12.0833 7.9173L13.3221 9.16003L13.9201 8.56212L14.5141 7.96811L14.9049 8.07362C15.2488 8.1635 15.3699 8.17523 15.9014 8.17523C16.4251 8.17523 16.5579 8.1635 16.8823 8.07753C17.6482 7.87041 18.2774 7.51478 18.7972 6.99502C19.7429 6.04539 20.1572 4.75576 19.9461 3.43487C19.8719 2.99327 19.7976 2.82132 19.6179 2.70408C19.4733 2.60638 19.1997 2.58293 19.0551 2.65719C19.0082 2.68063 18.5275 3.13786 17.9921 3.67325L17.0152 4.64634L16.1828 3.81394L15.3543 2.98545L16.3156 2.028C16.8432 1.50043 17.3004 1.02366 17.3317 0.965037C17.4724 0.695388 17.3473 0.316316 17.0738 0.183445C16.7377 0.019311 15.8232 -0.0471249 15.2292 0.0544825Z" fill="white"/>
<path d="M6.06905 11.4502L5.47504 12.0403L5.28746 11.9817C4.68954 11.7902 3.79071 11.7589 3.19279 11.9074C2.19235 12.1536 1.39512 12.6734 0.812838 13.455C0.242276 14.2209 -0.0390973 15.1393 0.0117062 16.0967C0.035154 16.5735 0.117221 16.9956 0.21492 17.1441C0.359515 17.3629 0.730771 17.4567 0.965249 17.3317C1.02387 17.3004 1.50064 16.8432 2.02821 16.3156L2.98567 15.3542L3.81415 16.1827L4.64655 17.0151L3.67347 17.9921C3.13808 18.5275 2.68084 19.0082 2.6574 19.0551C2.58315 19.1997 2.60659 19.4732 2.70429 19.6178C2.82153 19.7976 2.99348 19.8718 3.43508 19.9461C4.74816 20.1571 6.02997 19.7507 6.97569 18.8128C7.51109 18.2852 7.87062 17.6599 8.07774 16.8822C8.16372 16.5579 8.17544 16.425 8.17544 15.9013C8.17544 15.3699 8.16372 15.2487 8.07383 14.9048L7.96832 14.514L8.56233 13.92L9.16025 13.3221L7.92924 12.0911C7.25316 11.415 6.69041 10.8601 6.67869 10.8601C6.66697 10.8601 6.39341 11.1258 6.06905 11.4502Z" fill="white"/>
</svg>
