<svg width="19" height="23" viewBox="0 0 19 23" fill="none" xmlns="http://www.w3.org/2000/svg">
<path d="M8.44532 0.884766C7.62989 1.02148 6.59474 1.43164 6.01368 1.85156C4.95899 2.6084 4.42188 3.64355 4.40724 4.95703C4.39747 5.83594 4.57813 6.6123 4.95411 7.31543L5.12989 7.65234L5.15431 6.53418C5.17872 5.32324 5.19337 5.26465 5.46192 5.10352C5.667 4.97656 5.77931 4.98145 6.4336 5.14746C7.45899 5.41113 8.02052 5.46973 9.4756 5.46973C10.9356 5.46973 11.4922 5.41113 12.5176 5.15234C13.167 4.98633 13.2598 4.97656 13.4453 5.07422C13.7676 5.24023 13.7725 5.25488 13.7969 6.41699L13.8213 7.47168L14.002 7.12988C14.3242 6.50488 14.4072 6.14355 14.4072 5.39648C14.4072 4.83008 14.3877 4.69824 14.29 4.44434C14.2315 4.2832 14.1387 3.93652 14.0899 3.66797C13.9678 3.02832 13.7481 2.57422 13.3574 2.15918C12.7422 1.5 11.8389 1.08496 10.5742 0.879883C10.0127 0.791992 8.98731 0.791992 8.44532 0.884766Z" fill="white"/>
<path d="M5.75488 5.52831C5.70605 5.54784 5.69141 5.99706 5.69141 7.56444C5.69141 9.42968 5.70117 9.61034 5.78906 9.96679C6.14062 11.3389 7.18555 12.3838 8.57227 12.7549C9.01172 12.8721 9.99316 12.8721 10.4229 12.75C11.1504 12.5498 11.7314 12.1982 12.2588 11.6367C12.8008 11.0605 13.0938 10.4795 13.2402 9.69335C13.333 9.17577 13.3379 5.62597 13.2451 5.55272C13.1963 5.51366 13.1133 5.51855 12.9375 5.57226C11.0674 6.13866 8.18164 6.16308 6.22363 5.62108C5.99902 5.56249 5.78418 5.51855 5.75488 5.52831Z" fill="white"/>
<path d="M7.45898 13.3995C7.47363 13.8731 7.48828 13.9463 7.60547 14.1221C7.75684 14.3565 8.17188 14.6397 8.5625 14.7813C8.95801 14.9229 9.75879 14.9571 10.1787 14.8448C10.5889 14.7374 10.9258 14.5665 11.1846 14.3272C11.4922 14.044 11.5508 13.8877 11.5508 13.336C11.5508 13.0772 11.541 12.8672 11.5264 12.8672C11.5117 12.8672 11.3896 12.921 11.2627 12.9893C10.8135 13.2139 10.3545 13.3165 9.64648 13.3409C8.87988 13.3702 8.51367 13.3067 7.85938 13.0479L7.43945 12.877L7.45898 13.3995Z" fill="white"/>
<path d="M6.51172 14.1709L6.08203 14.293V16.0459V17.7988H9.5H12.918V16.0508V14.2979L12.542 14.1904C12.332 14.1318 12.127 14.0732 12.083 14.0586C12.0293 14.0439 11.9805 14.0977 11.917 14.2344C11.7168 14.6738 11.0332 15.1475 10.3252 15.3428C9.82715 15.4795 8.99707 15.4551 8.49414 15.2939C7.84961 15.084 7.23438 14.6104 7.06348 14.1953C7.0293 14.1123 6.98535 14.0391 6.96582 14.0439C6.95117 14.0488 6.74609 14.1025 6.51172 14.1709Z" fill="white"/>
<path d="M3.91404 14.8936C3.02537 15.1426 2.17088 15.4111 2.00975 15.4941C1.17479 15.9043 0.583966 16.583 0.281231 17.4814L0.154278 17.8721L0.134747 19.9619C0.124981 21.5293 0.134747 22.0713 0.178692 22.125C0.227521 22.1836 0.593731 22.1934 2.52244 22.1934H4.81248V20.3135C4.81248 18.834 4.82713 18.3945 4.88084 18.2725C4.96385 18.0625 5.21287 17.8574 5.42283 17.8184L5.59373 17.7891V16.1094C5.59373 15.1865 5.57908 14.4346 5.55955 14.4346C5.53514 14.4395 4.79783 14.6445 3.91404 14.8936Z" fill="white"/>
<path d="M13.4062 16.1045V17.7891L13.5771 17.8184C13.7871 17.8574 14.0361 18.0625 14.1191 18.2725C14.1729 18.3945 14.1875 18.834 14.1875 20.3135V22.1934H16.4824C18.748 22.1934 18.7725 22.1934 18.8262 22.0908C18.8652 22.0225 18.875 21.373 18.8652 19.9326C18.8457 17.9404 18.8408 17.8623 18.7334 17.5303C18.4258 16.5879 17.8154 15.8848 16.9463 15.4746C16.7559 15.3818 15.9453 15.1279 15.0957 14.8984C14.2705 14.6689 13.5479 14.4688 13.499 14.4541C13.4111 14.4248 13.4062 14.4785 13.4062 16.1045Z" fill="white"/>
<path d="M5.38379 18.3701C5.36426 18.3848 5.34961 19.2539 5.34961 20.2988V22.1934H5.95996H6.57031V21.0947C6.57031 19.8789 6.58984 19.7715 6.86328 19.6299C7.07812 19.5176 11.9219 19.5176 12.1416 19.6348C12.4004 19.7666 12.4297 19.9229 12.4297 21.1191V22.1934H13.04H13.6504L13.6406 20.2744L13.626 18.3604L9.51953 18.3457C7.26367 18.3408 5.39844 18.3506 5.38379 18.3701Z" fill="white"/>
<path d="M7.10742 20.5332V20.9727H9.5H11.8926V20.5332V20.0938H9.5H7.10742V20.5332Z" fill="white"/>
<path d="M7.10742 21.8516V22.1934H9.5H11.8926V21.8516V21.5098H9.5H7.10742V21.8516Z" fill="white"/>
</svg>
