<svg width="24" height="24" viewBox="0 0 24 24" fill="none" xmlns="http://www.w3.org/2000/svg">
<path opacity="0.977" fill-rule="evenodd" clip-rule="evenodd" d="M8.05808 0.953125C8.3021 0.953125 8.54608 0.953125 8.7901 0.953125C9.23117 1.13137 9.61871 1.39691 9.95273 1.74974C10.6699 2.16591 11.4163 2.22332 12.1919 1.92198C12.6859 1.69238 13.1739 1.45554 13.6559 1.21149C13.7119 1.23689 13.7477 1.27995 13.7636 1.34067C13.7708 1.80765 13.6703 2.25261 13.4621 2.67554C12.894 3.87745 12.2122 5.0042 11.4168 6.05577C11.0726 6.0773 10.7281 6.08445 10.3833 6.0773C10.3905 5.38821 10.3833 4.69922 10.3618 4.01041C10.2396 3.75025 10.0459 3.68566 9.78049 3.81663C9.72877 3.8555 9.69286 3.90574 9.67284 3.96735C9.65131 4.67052 9.64412 5.37382 9.65131 6.0773C8.8475 6.0773 8.04374 6.0773 7.23993 6.0773C7.24712 5.38821 7.23993 4.69922 7.2184 4.01041C7.02368 3.70259 6.79404 3.67388 6.52944 3.92429C6.5151 3.9817 6.50071 4.03911 6.48638 4.09653C6.46484 4.75663 6.45765 5.41688 6.46484 6.0773C6.12006 6.08445 5.77558 6.0773 5.4314 6.05577C4.66106 5.01118 3.99363 3.89879 3.42909 2.7186C3.30432 2.44028 3.20385 2.15321 3.12767 1.85739C3.09896 1.6708 3.09896 1.4842 3.12767 1.29761C3.14437 1.25765 3.17308 1.22894 3.21379 1.21149C3.60351 1.38565 3.98387 1.57942 4.35489 1.7928C5.54396 2.35866 6.59174 2.17207 7.49829 1.23302C7.67686 1.11503 7.86344 1.02173 8.05808 0.953125Z" fill="black"/>
<path opacity="0.975" fill-rule="evenodd" clip-rule="evenodd" d="M4.09648 6.85231C6.9959 6.84512 9.89528 6.85231 12.7947 6.87384C13.1819 7.08841 13.2752 7.39702 13.0746 7.79963C12.9911 7.91185 12.8835 7.99078 12.7516 8.03647C9.8809 8.06519 7.01024 8.06519 4.13954 8.03647C3.83802 7.95065 3.69449 7.74973 3.70894 7.43362C3.70949 7.15334 3.83867 6.95957 4.09648 6.85231Z" fill="black"/>
<path opacity="0.979" fill-rule="evenodd" clip-rule="evenodd" d="M9.82355 22.9999C8.97668 22.9999 8.12986 22.9999 7.28299 22.9999C6.06576 22.9145 4.90315 22.6059 3.7951 22.0742C2.47537 21.3424 1.62134 20.2443 1.23302 18.78C1.11097 18.2768 1.01768 17.7744 0.953125 17.2729C0.953125 16.6414 0.953125 16.0098 0.953125 15.3783C1.20602 13.4946 1.93087 11.8153 3.12767 10.3402C3.54782 9.80507 3.99995 9.29553 4.48407 8.81158C7.06769 8.78286 9.65131 8.78286 12.2349 8.81158C12.6527 9.24369 13.0547 9.68863 13.4406 10.1464C13.1245 10.3263 12.9164 10.5918 12.8162 10.9431C12.809 14.7037 12.7875 18.4644 12.7516 22.2249C11.8062 22.619 10.8302 22.8774 9.82355 22.9999ZM8.31644 10.4263C8.50965 10.4117 8.66036 10.4835 8.76857 10.6416C8.79006 10.8421 8.79725 11.043 8.7901 11.2445C9.88293 11.3347 10.7226 11.8371 11.3091 12.7516C11.5027 13.1167 11.5745 13.5042 11.5244 13.9142C11.2512 14.2152 11.0215 14.1865 10.8355 13.8281C10.8332 13.3687 10.6681 12.9812 10.3403 12.6655C9.8989 12.2727 9.38218 12.043 8.7901 11.9765C8.77576 13.1682 8.7901 14.3595 8.83316 15.5505C9.76804 15.6697 10.5359 16.086 11.1369 16.7993C11.8174 17.961 11.6524 18.9873 10.6417 19.8781C10.0903 20.2828 9.47304 20.5197 8.7901 20.5886C8.79725 20.7901 8.79006 20.991 8.76857 21.1914C8.51705 21.4883 8.28737 21.4739 8.07961 21.1484C8.05812 20.9623 8.05093 20.7757 8.05807 20.5886C6.91573 20.4811 6.06167 19.9356 5.49599 18.9523C5.35509 18.6354 5.29765 18.3053 5.32375 17.9619C5.53151 17.6363 5.7612 17.622 6.01271 17.9188C6.06968 18.722 6.46441 19.289 7.19687 19.6197C7.46354 19.7206 7.73624 19.7995 8.01501 19.8565C8.06527 18.6655 8.07241 17.4741 8.03654 16.2825C7.02691 16.1512 6.2231 15.6775 5.62517 14.8616C5.09128 13.7991 5.25634 12.8589 6.12036 12.0411C6.68312 11.5783 7.32902 11.3127 8.05807 11.2445C8.05093 11.0573 8.05812 10.8708 8.07961 10.6847C8.13817 10.5761 8.2171 10.4899 8.31644 10.4263Z" fill="black"/>
<path opacity="0.972" fill-rule="evenodd" clip-rule="evenodd" d="M23 10.9863C23 14.9191 23 18.852 23 22.7848C22.9426 22.871 22.8708 22.9427 22.7847 23.0001C19.7705 23.0001 16.7563 23.0001 13.742 23.0001C13.6702 22.9209 13.6056 22.8348 13.5483 22.7418C13.5056 18.8065 13.5199 14.8737 13.5913 10.9432C13.6481 10.8577 13.7271 10.8074 13.8282 10.7925C16.7993 10.7638 19.7705 10.7638 22.7416 10.7925C22.8347 10.8499 22.9208 10.9145 23 10.9863ZM15.5075 11.9767C17.4326 11.9563 19.3559 11.9778 21.2776 12.0413C21.5182 12.1526 21.6833 12.3321 21.7728 12.5795C21.8139 13.2714 21.7995 13.9604 21.7297 14.6464C21.5948 14.8959 21.3867 15.0466 21.1054 15.0986C19.1513 15.1407 17.1993 15.1264 15.2492 15.0555C15.0228 14.9584 14.8721 14.7933 14.797 14.5603C14.7292 13.9595 14.7148 13.3566 14.754 12.7518C14.8119 12.2992 15.0631 12.0409 15.5075 11.9767ZM15.0339 16.3258C15.4934 16.3186 15.9527 16.3258 16.4118 16.3473C16.6239 16.4486 16.7029 16.6137 16.6486 16.8425C16.6127 16.9358 16.5482 17.0004 16.4548 17.0363C15.9668 17.065 15.4788 17.065 14.9908 17.0363C14.7708 16.8913 14.7205 16.6976 14.8401 16.455C14.9112 16.4163 14.9758 16.3732 15.0339 16.3258ZM17.7897 16.3258C18.2493 16.3186 18.7086 16.3258 19.1676 16.3473C19.3798 16.4486 19.4587 16.6137 19.4045 16.8425C19.3686 16.9358 19.304 17.0004 19.2107 17.0363C18.7227 17.065 18.2347 17.065 17.7467 17.0363C17.5267 16.8913 17.4764 16.6976 17.5959 16.455C17.6671 16.4163 17.7317 16.3732 17.7897 16.3258ZM20.5456 16.3258C21.0051 16.3186 21.4644 16.3258 21.9235 16.3473C22.1356 16.4486 22.2146 16.6137 22.1603 16.8425C22.1245 16.9358 22.0599 17.0004 21.9666 17.0363C21.4786 17.065 20.9905 17.065 20.5025 17.0363C20.2825 16.8913 20.2323 16.6976 20.3518 16.455C20.4229 16.4163 20.4875 16.3732 20.5456 16.3258ZM14.9908 17.919C15.479 17.9118 15.9671 17.919 16.4548 17.9405C16.6426 18.0364 16.7072 18.1871 16.6486 18.3927C16.5984 18.5003 16.5194 18.5793 16.4118 18.6295C15.9525 18.6582 15.4932 18.6582 15.0339 18.6295C14.7736 18.5053 14.7091 18.3116 14.8401 18.0482C14.8894 17.9993 14.9396 17.9562 14.9908 17.919ZM17.7467 17.919C18.2349 17.9118 18.7229 17.919 19.2107 17.9405C19.3985 18.0364 19.4631 18.1871 19.4045 18.3927C19.3542 18.5003 19.2753 18.5793 19.1676 18.6295C18.7083 18.6582 18.249 18.6582 17.7897 18.6295C17.5295 18.5053 17.4649 18.3116 17.5959 18.0482C17.6452 17.9993 17.6955 17.9562 17.7467 17.919ZM20.5025 17.919C20.9907 17.9118 21.4788 17.919 21.9666 17.9405C22.1544 18.0364 22.2189 18.1871 22.1603 18.3927C22.1101 18.5003 22.0312 18.5793 21.9235 18.6295C21.4642 18.6582 21.0049 18.6582 20.5456 18.6295C20.2854 18.5053 20.2208 18.3116 20.3518 18.0482C20.4011 17.9993 20.4514 17.9562 20.5025 17.919ZM15.0339 19.4692C15.4791 19.462 15.924 19.4692 16.3687 19.4907C16.6917 19.6343 16.7492 19.8496 16.541 20.1366C16.4595 20.1785 16.3734 20.2072 16.2826 20.2227C15.8351 20.2615 15.3901 20.2471 14.9477 20.1797C14.6991 19.9084 14.7278 19.6716 15.0339 19.4692ZM17.7897 19.4692C18.2349 19.462 18.6799 19.4692 19.1246 19.4907C19.4476 19.6343 19.505 19.8496 19.2968 20.1366C19.2154 20.1785 19.1292 20.2072 19.0385 20.2227C18.5909 20.2615 18.146 20.2471 17.7036 20.1797C17.4549 19.9084 17.4836 19.6716 17.7897 19.4692ZM20.5456 19.4692C20.9908 19.462 21.4357 19.4692 21.8804 19.4907C22.2034 19.6343 22.2609 19.8496 22.0527 20.1366C21.9712 20.1785 21.8851 20.2072 21.7943 20.2227C21.3468 20.2615 20.9018 20.2471 20.4595 20.1797C20.2108 19.9084 20.2395 19.6716 20.5456 19.4692ZM14.9908 21.0624C15.479 21.0552 15.9671 21.0624 16.4548 21.0839C16.7534 21.3335 16.739 21.5632 16.4118 21.7729C15.9381 21.8016 15.4645 21.8016 14.9908 21.7729C14.7708 21.628 14.7205 21.4342 14.8401 21.1916C14.8894 21.1427 14.9396 21.0996 14.9908 21.0624ZM17.7467 21.0624C18.2349 21.0552 18.7229 21.0624 19.2107 21.0839C19.5093 21.3335 19.4949 21.5632 19.1676 21.7729C18.694 21.8016 18.2203 21.8016 17.7467 21.7729C17.5267 21.628 17.4764 21.4342 17.5959 21.1916C17.6452 21.1427 17.6955 21.0996 17.7467 21.0624ZM20.5025 21.0624C20.9907 21.0552 21.4788 21.0624 21.9666 21.0839C22.2651 21.3335 22.2508 21.5632 21.9235 21.7729C21.4498 21.8016 20.9762 21.8016 20.5025 21.7729C20.2825 21.628 20.2323 21.4342 20.3518 21.1916C20.4011 21.1427 20.4514 21.0996 20.5025 21.0624Z" fill="black"/>
<path opacity="0.959" fill-rule="evenodd" clip-rule="evenodd" d="M7.92888 11.9766C7.97194 11.9766 8.01501 11.9766 8.05807 11.9766C8.05807 13.1535 8.05807 14.3305 8.05807 15.5075C7.12736 15.434 6.47426 14.9747 6.09882 14.1296C5.95987 13.4729 6.15364 12.9347 6.68014 12.5148C7.05907 12.239 7.47533 12.0595 7.92888 11.9766Z" fill="black"/>
<path opacity="0.981" fill-rule="evenodd" clip-rule="evenodd" d="M15.5936 12.7517C17.3879 12.7445 19.1821 12.7517 20.9762 12.7733C21.0031 12.8055 21.0247 12.8415 21.0408 12.8809C21.0695 13.3258 21.0695 13.7708 21.0408 14.2158C21.0247 14.2552 21.0031 14.2911 20.9762 14.3234C19.182 14.3521 17.3878 14.3521 15.5936 14.3234C15.5721 14.3019 15.5506 14.2804 15.529 14.2588C15.5003 13.7852 15.5003 13.3115 15.529 12.8378C15.5599 12.8144 15.5815 12.7857 15.5936 12.7517Z" fill="black"/>
<path opacity="0.948" fill-rule="evenodd" clip-rule="evenodd" d="M8.7901 16.3257C9.46068 16.3847 10.0277 16.6574 10.491 17.1438C11.0167 17.9889 10.8948 18.7281 10.125 19.3614C9.71982 19.6328 9.27487 19.7979 8.7901 19.8566C8.7901 18.6797 8.7901 17.5027 8.7901 16.3257Z" fill="black"/>
</svg>
