<svg width="24" height="24" viewBox="0 0 24 24" fill="none" xmlns="http://www.w3.org/2000/svg">
<g clip-path="url(#clip0_967_3053)">
<path opacity="0.991" fill-rule="evenodd" clip-rule="evenodd" d="M4.85156 -0.0234375C9.63281 -0.0234375 14.4141 -0.0234375 19.1953 -0.0234375C20.179 0.233703 20.7962 0.858703 21.0469 1.85156C21.1231 3.53749 21.1387 5.22502 21.0937 6.91406C20.8923 8.08425 20.2126 8.79516 19.0547 9.04688C17.2578 9.06248 15.4609 9.07814 13.6641 9.09375C13.1114 9.89437 12.5645 10.6991 12.0234 11.5078C11.4824 10.6991 10.9355 9.89437 10.3828 9.09375C8.58595 9.07814 6.78904 9.06248 4.99218 9.04688C3.83427 8.79516 3.15458 8.08425 2.95312 6.91406C2.90808 5.20936 2.9237 3.50625 2.99999 1.80469C3.27139 0.837937 3.88857 0.228562 4.85156 -0.0234375ZM8.69531 3.63281C9.13279 3.63281 9.57032 3.63281 10.0078 3.63281C10.0078 4.08594 10.0078 4.53906 10.0078 4.99219C9.57032 4.99219 9.13279 4.99219 8.69531 4.99219C8.69531 4.53906 8.69531 4.08594 8.69531 3.63281ZM11.3672 3.63281C11.8047 3.63281 12.2422 3.63281 12.6797 3.63281C12.6797 4.08594 12.6797 4.53906 12.6797 4.99219C12.2422 4.99219 11.8047 4.99219 11.3672 4.99219C11.3672 4.53906 11.3672 4.08594 11.3672 3.63281ZM14.0391 3.63281C14.4765 3.63281 14.9141 3.63281 15.3516 3.63281C15.3516 4.08594 15.3516 4.53906 15.3516 4.99219C14.9141 4.99219 14.4765 4.99219 14.0391 4.99219C14.0391 4.53906 14.0391 4.08594 14.0391 3.63281Z" fill="white"/>
<path opacity="0.98" fill-rule="evenodd" clip-rule="evenodd" d="M3.6797 12.8673C4.7635 12.7567 5.63069 13.1317 6.28126 13.9923C7.01725 15.3275 6.83758 16.5228 5.7422 17.5782C4.80484 18.2056 3.82049 18.2838 2.78908 17.8126C1.59712 17.0027 1.21431 15.9011 1.64064 14.5079C2.03851 13.6014 2.7182 13.0545 3.6797 12.8673Z" fill="white"/>
<path opacity="0.98" fill-rule="evenodd" clip-rule="evenodd" d="M11.6016 12.8673C13.0138 12.7579 13.9903 13.3516 14.5313 14.6485C14.8905 16.1562 14.3827 17.2578 13.0078 17.9532C11.4495 18.4042 10.3011 17.912 9.56253 16.4766C9.10203 14.6154 9.78171 13.4123 11.6016 12.8673Z" fill="white"/>
<path opacity="0.978" fill-rule="evenodd" clip-rule="evenodd" d="M19.4297 12.8672C20.9652 12.7862 21.9574 13.4738 22.4062 14.9297C22.6063 16.2718 22.1141 17.264 20.9297 17.9063C19.5546 18.4007 18.4374 18.0648 17.5781 16.8985C16.9515 15.6752 17.1 14.5581 18.0234 13.5469C18.4408 13.2054 18.9096 12.9788 19.4297 12.8672Z" fill="white"/>
<path opacity="0.988" fill-rule="evenodd" clip-rule="evenodd" d="M6.4922 23.9767C4.33595 23.9767 2.1797 23.9767 0.0234532 23.9767C-0.168797 22.6745 0.104641 21.487 0.843766 20.4142C2.16258 18.8988 3.77977 18.4535 5.69533 19.0782C6.28066 19.3201 6.78845 19.6717 7.21877 20.1329C7.25003 20.1798 7.25003 20.2267 7.21877 20.2735C6.61408 21.432 6.37192 22.6664 6.4922 23.9767Z" fill="white"/>
<path opacity="0.988" fill-rule="evenodd" clip-rule="evenodd" d="M16.1953 23.9767C13.4141 23.9767 10.6328 23.9767 7.85155 23.9767C7.6768 22.5814 8.01271 21.3314 8.85936 20.2267C10.2247 18.8287 11.8263 18.4615 13.6641 19.1251C15.1766 19.8417 16.0125 21.037 16.1719 22.711C16.1953 23.1326 16.2031 23.5545 16.1953 23.9767Z" fill="white"/>
<path opacity="0.989" fill-rule="evenodd" clip-rule="evenodd" d="M23.9766 22.0546C23.9766 22.6952 23.9766 23.3358 23.9766 23.9765C21.8359 23.9765 19.6953 23.9765 17.5547 23.9765C17.6746 22.6406 17.4246 21.3828 16.8047 20.203C17.3226 19.5775 17.9789 19.1556 18.7734 18.9374C20.553 18.5306 22.0296 19.0228 23.2031 20.414C23.5636 20.9159 23.8214 21.4628 23.9766 22.0546Z" fill="white"/>
</g>
<defs>
<clipPath id="clip0_967_3053">
<rect width="24" height="24" fill="white"/>
</clipPath>
</defs>
</svg>
