<svg width="24" height="24" viewBox="0 0 24 24" fill="none" xmlns="http://www.w3.org/2000/svg">
<path d="M12.2336 1.04268C11.9898 1.16619 11.9992 0.97143 12.0133 6.45798L12.0227 11.5835L12.1539 11.6975L12.2851 11.8115H17.3474H22.4144L22.555 11.6643L22.7004 11.5218L22.6675 10.966C22.4707 7.56954 20.8489 4.63863 18.1302 2.77178C16.5881 1.71247 14.8163 1.12344 12.8195 1.00943C12.4867 0.990431 12.318 0.999931 12.2336 1.04268Z" fill="white"/>
<path d="M9.86708 2.1969C7.64529 2.42016 5.82193 3.16595 4.14387 4.53403C3.08922 5.39382 2.0627 6.68589 1.44398 7.93996C1.20961 8.41024 1.20961 8.41024 1.65491 8.20123C2.76111 7.67395 4.09231 7.66445 5.17508 8.17273C6.32816 8.70951 7.15781 9.69756 7.50936 10.9421C7.59842 11.2509 7.61717 11.4314 7.61717 12.0489C7.61717 12.676 7.60311 12.8422 7.50936 13.1652C7.27968 13.9775 6.85782 14.6663 6.23441 15.2411L5.89692 15.5546L6.24378 15.5736C6.65158 15.5926 6.93751 15.7209 7.21406 15.9964C7.52342 16.3099 7.61717 16.5617 7.61717 17.0605C7.61717 17.4452 7.60311 17.5117 7.48124 17.735C7.40624 17.8728 7.3078 18.02 7.26093 18.0628C7.17656 18.1388 7.18125 18.1483 7.31718 18.3288C7.74372 18.8703 7.74372 19.7064 7.32187 20.2194L7.18593 20.3809L7.34062 20.5804C7.67341 21.0269 7.73435 21.6635 7.49061 22.167C7.4203 22.3095 7.37811 22.4425 7.39686 22.4615C7.41561 22.4758 7.62185 22.547 7.85153 22.6135C11.3295 23.5921 15.0184 22.6848 17.6527 20.2051C18.0089 19.8679 18.0699 19.7396 17.9714 19.5211C17.9433 19.4498 16.3637 17.8158 14.4653 15.8966L11.0155 12.4052V7.41268C11.0155 1.57937 11.0811 2.1969 10.4436 2.1874C10.2327 2.18265 9.9702 2.1874 9.86708 2.1969Z" fill="white"/>
<path d="M2.64368 8.66691C1.64059 8.92817 0.815624 9.59321 0.375016 10.5053C0.140651 10.9803 0.0515916 11.3366 0.0140932 11.8828C-0.0890277 13.5359 1.04061 15.0608 2.66242 15.4503C3.08897 15.5548 3.82488 15.5548 4.24205 15.4455C6.54821 14.8612 7.60754 12.1679 6.32321 10.1632C5.90604 9.51246 5.17951 8.96143 4.42954 8.72391C3.9655 8.57665 3.10303 8.54815 2.64368 8.66691ZM3.68426 9.4982C3.78269 9.58371 3.8155 9.66446 3.83425 9.85447C3.853 10.0967 3.86238 10.1062 4.07331 10.2012C4.62641 10.4483 4.94983 11.0753 4.67797 11.3698C4.54204 11.5171 4.27017 11.5218 4.14362 11.3698C4.09205 11.3128 4.02175 11.2035 3.99362 11.1323C3.84831 10.7903 3.05616 10.7808 2.97179 11.118C2.89679 11.4363 3.08428 11.5883 3.74519 11.7451C4.24205 11.8686 4.53735 12.0586 4.69672 12.3769C5.00608 12.9754 4.71547 13.7069 4.06862 13.9397C3.86706 14.011 3.84363 14.0347 3.84363 14.1677C3.84363 14.3767 3.75457 14.6095 3.65613 14.6617C3.50145 14.7472 3.28584 14.714 3.16397 14.5905C3.07022 14.4955 3.04678 14.429 3.04678 14.22C3.04678 13.9634 3.04678 13.9634 2.8546 13.8732C2.264 13.6072 1.86558 12.8329 2.18432 12.5764C2.43275 12.3769 2.62961 12.4576 2.87804 12.8566C3.03741 13.1132 3.25303 13.2367 3.54833 13.2367C3.76863 13.2367 3.82488 13.2177 3.94206 13.0989C4.21392 12.8186 4.06393 12.6476 3.39833 12.4576C3.14053 12.3864 2.84054 12.2724 2.72805 12.2106C2.10463 11.8401 1.99214 10.9755 2.50306 10.4578C2.61555 10.3485 2.78429 10.225 2.87804 10.1917C3.03741 10.1347 3.04678 10.1157 3.04678 9.92098C3.04678 9.4602 3.37958 9.23694 3.68426 9.4982Z" fill="white"/>
<path d="M13.4618 12.9186C13.3961 12.9899 13.3586 13.0896 13.3586 13.1941C13.3586 13.3461 13.5836 13.5884 16.9585 17.0038C21.1583 21.2601 20.6708 20.8896 21.2615 20.2578C22.7614 18.6427 23.7317 16.4481 23.9473 14.1679C24.0317 13.3081 24.0176 13.0611 23.8817 12.9281L23.7692 12.8094H18.6647H13.5602L13.4618 12.9186Z" fill="white"/>
<path d="M0.445222 16.391C0.0280513 16.5763 -0.12663 17.1368 0.149921 17.4883C0.356163 17.7591 0.25773 17.7496 3.45448 17.7496H6.39811L6.57154 17.6308C6.78247 17.4883 6.9184 17.1701 6.87153 16.923C6.83403 16.714 6.63716 16.4765 6.43561 16.391C6.2153 16.296 0.656151 16.296 0.445222 16.391Z" fill="white"/>
<path d="M0.370339 18.6567C0.00941598 18.8705 -0.0983922 19.355 0.131286 19.6875C0.346902 19.9915 0.257844 19.982 3.45459 19.982C6.74508 19.982 6.57165 20.001 6.78727 19.5973C6.96539 19.26 6.88102 18.9322 6.54353 18.6805C6.41697 18.5807 6.36072 18.5807 3.47803 18.5712C0.557832 18.557 0.539082 18.557 0.370339 18.6567Z" fill="white"/>
<path d="M0.374985 20.88C0.178118 20.9845 0 21.279 0 21.5023C0 21.7256 0.178118 22.0201 0.374985 22.1246C0.529666 22.2101 0.703097 22.2148 3.44986 22.2148H6.36068L6.51536 22.1103C6.72629 21.9631 6.83879 21.7968 6.8716 21.5878C6.91379 21.336 6.75442 21.0273 6.52005 20.8943C6.33725 20.7898 6.33256 20.7898 3.4358 20.7898C0.703097 20.7898 0.529666 20.7945 0.374985 20.88Z" fill="white"/>
</svg>
