<svg width="24" height="24" viewBox="0 0 24 24" fill="none" xmlns="http://www.w3.org/2000/svg">
<path opacity="0.913" fill-rule="evenodd" clip-rule="evenodd" d="M11.8359 0.210847C11.9986 0.181542 12.1314 0.228417 12.2344 0.351472C12.2657 0.663974 12.2657 0.976471 12.2344 1.28897C12.0625 1.47647 11.8907 1.47647 11.7188 1.28897C11.6875 0.976471 11.6875 0.663974 11.7188 0.351472C11.7677 0.31053 11.8068 0.263655 11.8359 0.210847Z" fill="white"/>
<path opacity="0.856" fill-rule="evenodd" clip-rule="evenodd" d="M8.22656 1.71099C8.37417 1.69746 8.5148 1.7209 8.64844 1.7813C8.78123 1.91411 8.91408 2.04693 9.04688 2.17974C9.20072 2.60262 9.06792 2.76668 8.64844 2.67193C8.41523 2.47827 8.22773 2.25171 8.08594 1.99224C8.10863 1.88439 8.1555 1.79064 8.22656 1.71099Z" fill="white"/>
<path opacity="0.854" fill-rule="evenodd" clip-rule="evenodd" d="M15.3985 1.71103C15.7164 1.64656 15.8648 1.77156 15.8438 2.08603C15.6519 2.36402 15.4097 2.58278 15.1172 2.74228C14.8739 2.6778 14.788 2.52155 14.8594 2.27353C15.0171 2.06126 15.1968 1.87376 15.3985 1.71103Z" fill="white"/>
<path opacity="0.968" fill-rule="evenodd" clip-rule="evenodd" d="M11.4609 2.36707C13.3821 2.25086 14.6087 3.11024 15.1406 4.9452C15.3512 6.6416 14.6871 7.85252 13.1484 8.57801C11.6088 9.06467 10.3353 8.68184 9.3281 7.42957C8.52428 6.12541 8.55555 4.84418 9.42185 3.58582C9.95622 2.93208 10.6359 2.52583 11.4609 2.36707ZM11.8828 3.77332C12.1183 3.78241 12.2355 3.90741 12.2343 4.14832C12.6401 4.33544 12.8276 4.64793 12.7968 5.08582C12.6738 5.25326 12.5331 5.26887 12.375 5.1327C12.3626 4.90957 12.2611 4.74551 12.0703 4.64051C11.7003 4.64391 11.5753 4.8236 11.6953 5.17957C11.9607 5.27496 12.2263 5.37649 12.4922 5.48426C12.8613 5.83741 12.916 6.23585 12.6562 6.67957C12.5358 6.79062 12.4029 6.88437 12.2578 6.96082C12.2627 7.26096 12.1221 7.37815 11.8359 7.31238C11.767 7.20724 11.7201 7.09006 11.6953 6.96082C11.254 6.76587 11.09 6.43774 11.2031 5.97645C11.5173 5.88331 11.6736 6.00827 11.6718 6.35145C11.875 6.53895 12.0781 6.53895 12.2812 6.35145C12.3387 6.15968 12.2997 5.99562 12.164 5.85926C11.3768 5.79209 11.0565 5.37799 11.2031 4.61707C11.3305 4.41155 11.5023 4.2553 11.7187 4.14832C11.7189 3.99602 11.7736 3.87103 11.8828 3.77332Z" fill="white"/>
<path opacity="0.875" fill-rule="evenodd" clip-rule="evenodd" d="M6.77343 5.27342C7.07071 5.26564 7.36757 5.27342 7.66405 5.29686C7.71876 5.3203 7.7578 5.35935 7.78124 5.41405C7.84959 5.61472 7.79493 5.76313 7.61718 5.85936C7.35154 5.89063 7.08595 5.89063 6.8203 5.85936C6.59174 5.68269 6.57609 5.48736 6.77343 5.27342Z" fill="white"/>
<path opacity="0.872" fill-rule="evenodd" clip-rule="evenodd" d="M16.289 5.27342C16.5863 5.26564 16.8832 5.27342 17.1797 5.29686C17.3744 5.50306 17.3588 5.69056 17.1328 5.85936C16.8671 5.89063 16.6016 5.89063 16.3359 5.85936C16.1582 5.76313 16.1035 5.61472 16.1719 5.41405C16.2046 5.35822 16.2436 5.31135 16.289 5.27342Z" fill="white"/>
<path opacity="0.856" fill-rule="evenodd" clip-rule="evenodd" d="M8.69531 8.41398C9.03867 8.39017 9.17147 8.54645 9.09375 8.88273C8.92969 9.0468 8.76562 9.21086 8.60156 9.37492C8.29331 9.50397 8.12925 9.40239 8.10938 9.07023C8.26495 8.81322 8.46028 8.5945 8.69531 8.41398Z" fill="white"/>
<path opacity="0.856" fill-rule="evenodd" clip-rule="evenodd" d="M14.9765 8.41406C15.4016 8.48648 15.6984 8.72869 15.8672 9.14062C15.791 9.43641 15.6191 9.51455 15.3515 9.375C15.1875 9.21094 15.0234 9.04688 14.8594 8.88281C14.806 8.69902 14.8451 8.54278 14.9765 8.41406Z" fill="white"/>
<path opacity="0.919" fill-rule="evenodd" clip-rule="evenodd" d="M11.8359 9.72645C12.0006 9.6972 12.1335 9.74407 12.2344 9.86707C12.2657 10.1796 12.2657 10.4921 12.2344 10.8046C12.0625 10.9296 11.8907 10.9296 11.7188 10.8046C11.6875 10.4921 11.6875 10.1796 11.7188 9.86707C11.7515 9.81124 11.7905 9.76437 11.8359 9.72645Z" fill="white"/>
<path opacity="0.975" fill-rule="evenodd" clip-rule="evenodd" d="M5.27344 10.4296C6.18259 10.3563 6.78418 10.7469 7.07813 11.6015C7.1094 12.2421 7.1094 12.8827 7.07813 13.5233C6.78704 14.4227 6.16984 14.8055 5.22657 14.6718C4.64559 14.5127 4.26277 14.1455 4.07813 13.5702C4.03429 12.8489 4.04992 12.1302 4.12501 11.414C4.34923 10.8929 4.73204 10.5648 5.27344 10.4296Z" fill="white"/>
<path opacity="0.976" fill-rule="evenodd" clip-rule="evenodd" d="M18.0703 10.4297C18.6791 10.3539 19.1869 10.5414 19.5938 10.9922C19.7255 11.1775 19.8192 11.3807 19.875 11.6016C19.9188 12.3073 19.9031 13.0104 19.8281 13.711C19.4701 14.4799 18.8686 14.8002 18.0234 14.6719C17.4219 14.5078 17.0391 14.125 16.875 13.5235C16.8437 12.8828 16.8437 12.2422 16.875 11.6016C17.0527 10.9786 17.4511 10.588 18.0703 10.4297Z" fill="white"/>
<path opacity="0.974" fill-rule="evenodd" clip-rule="evenodd" d="M11.6484 12.164C12.96 12.0933 13.7178 12.7027 13.9219 13.9921C13.9532 14.6015 13.9532 15.2108 13.9219 15.8202C13.8116 16.8055 13.2726 17.4071 12.3047 17.6249C11.3285 17.7267 10.6176 17.3439 10.1719 16.4765C10.0954 16.2641 10.0485 16.0454 10.0313 15.8202C10 15.2108 10 14.6015 10.0313 13.9921C10.1503 13.0061 10.6894 12.3967 11.6484 12.164Z" fill="white"/>
<path opacity="0.977" fill-rule="evenodd" clip-rule="evenodd" d="M5.03903 15.3516C6.5853 15.2175 7.79627 15.78 8.67185 17.0391C9.03817 17.5828 9.06944 18.1453 8.7656 18.7266C8.53825 19.0082 8.24917 19.1878 7.89841 19.2657C6.35153 19.297 4.80466 19.297 3.25778 19.2657C2.43026 19.0409 2.0787 18.5019 2.2031 17.6485C2.73537 16.3742 3.68068 15.6085 5.03903 15.3516Z" fill="white"/>
<path opacity="0.977" fill-rule="evenodd" clip-rule="evenodd" d="M17.8359 15.3515C19.5885 15.2244 20.8776 15.9275 21.7031 17.4609C21.9327 18.3849 21.5968 18.9865 20.6953 19.2656C19.1484 19.2968 17.6015 19.2968 16.0547 19.2656C15.5047 19.1375 15.1532 18.8016 15 18.2578C14.92 17.8105 15.0137 17.4043 15.2812 17.039C15.9034 16.1276 16.7549 15.5651 17.8359 15.3515Z" fill="white"/>
<path opacity="0.982" fill-rule="evenodd" clip-rule="evenodd" d="M11.5547 18.6797C13.7357 18.6252 15.3217 19.5627 16.3125 21.4922C16.5788 22.6395 16.1491 23.3817 15.0234 23.7188C12.9922 23.7501 10.9609 23.7501 8.92969 23.7188C7.80324 23.3799 7.37354 22.6378 7.64063 21.4922C8.44871 19.8582 9.75338 18.9207 11.5547 18.6797Z" fill="white"/>
</svg>
