<svg width="24" height="24" viewBox="0 0 24 24" fill="none" xmlns="http://www.w3.org/2000/svg">
<g clip-path="url(#clip0_967_3350)">
<path opacity="0.986" fill-rule="evenodd" clip-rule="evenodd" d="M14.2734 -0.0234375C14.5391 -0.0234375 14.8047 -0.0234375 15.0703 -0.0234375C18.4209 0.45971 20.9131 2.17846 22.5469 5.13281C23.2383 6.4763 23.5665 7.8982 23.5313 9.39844C23.4503 9.5603 23.3174 9.64622 23.1328 9.65625C21.3203 9.68752 19.5078 9.68752 17.6953 9.65625C16.8134 8.16511 15.5868 7.04794 14.0156 6.30469C13.9844 4.30469 13.9844 2.30469 14.0156 0.304688C14.0596 0.159491 14.1456 0.0501159 14.2734 -0.0234375Z" fill="white"/>
<path opacity="0.979" fill-rule="evenodd" clip-rule="evenodd" d="M11.9297 23.9766C11.2734 23.9766 10.6172 23.9766 9.96094 23.9766C5.67304 23.3989 2.69649 21.1177 1.03125 17.1328C-0.30918 13.0746 0.40957 9.43392 3.1875 6.21094C5.22375 4.09408 7.71595 2.99252 10.6641 2.90625C10.7812 2.96094 10.8672 3.04688 10.9219 3.16406C10.9453 4.00767 10.9531 4.85142 10.9453 5.69531C8.03812 5.78578 5.81156 7.05141 4.26562 9.49219C3.07228 11.6397 2.88478 13.8741 3.70312 16.1953C4.8592 18.9263 6.89826 20.5591 9.82031 21.0938C11.9264 21.372 13.8326 20.8876 15.5391 19.6406C15.6266 19.6073 15.6969 19.6307 15.75 19.7109C16.2031 20.3047 16.6562 20.8984 17.1094 21.4922C17.1406 21.6484 17.1406 21.8047 17.1094 21.9609C15.9999 22.8164 14.7577 23.4023 13.3828 23.7188C12.8952 23.825 12.4108 23.9109 11.9297 23.9766Z" fill="white"/>
<path opacity="0.979" fill-rule="evenodd" clip-rule="evenodd" d="M10.3359 7.05457C12.7967 6.93752 14.7577 7.85941 16.2187 9.82019C17.5959 12.0552 17.674 14.3365 16.4531 16.6639C15.0237 18.8748 12.9846 19.9139 10.3359 19.7811C8.17083 19.5234 6.52237 18.4687 5.39062 16.6171C4.29688 14.4921 4.29688 12.3671 5.39062 10.2421C6.53212 8.39393 8.18058 7.33141 10.3359 7.05457ZM10.8516 8.50769C11.1448 8.51749 11.3714 8.64251 11.5312 8.88269C11.5982 9.22108 11.6217 9.56486 11.6016 9.91394C12.1951 9.91127 12.7263 10.0909 13.1953 10.453C13.6215 10.734 13.7231 11.1011 13.5 11.5546C13.0528 11.953 12.6387 11.9139 12.2578 11.4374C12.1539 11.3776 12.0445 11.3307 11.9297 11.2968C11.2578 11.2655 10.5859 11.2655 9.91406 11.2968C9.38972 11.5731 9.27253 11.9716 9.5625 12.4921C9.66 12.5681 9.76153 12.6385 9.86719 12.703C10.5078 12.7186 11.1484 12.7343 11.7891 12.7499C13.0282 12.9109 13.7157 13.614 13.8516 14.8593C13.6955 16.195 12.9455 16.8903 11.6016 16.9452C11.6093 17.2581 11.6016 17.5706 11.5781 17.8827C11.2297 18.4386 10.8234 18.4855 10.3594 18.0233C10.3138 17.9346 10.2825 17.8409 10.2656 17.7421C10.2422 17.4769 10.2344 17.2113 10.2422 16.9452C9.62128 16.9796 9.06661 16.8077 8.57812 16.4296C8.29847 16.0522 8.33751 15.7006 8.69531 15.3749C8.81292 15.3123 8.93794 15.2732 9.07031 15.2577C9.3338 15.3258 9.58383 15.4274 9.82031 15.5624C10.5234 15.5936 11.2266 15.5936 11.9297 15.5624C12.2815 15.4605 12.4533 15.2261 12.4453 14.8593C12.4532 14.5158 12.297 14.2814 11.9766 14.1561C11.3359 14.1405 10.6953 14.1249 10.0547 14.1093C8.97412 13.9661 8.31005 13.3646 8.0625 12.3046C8.00498 11.0366 8.59092 10.2475 9.82031 9.93738C9.96009 9.91404 10.1007 9.90621 10.2422 9.91394C10.2263 9.58235 10.2497 9.25422 10.3125 8.92957C10.4406 8.71427 10.6202 8.57365 10.8516 8.50769Z" fill="white"/>
<path opacity="0.98" fill-rule="evenodd" clip-rule="evenodd" d="M18.6328 12.5859C20.1798 12.5781 21.7267 12.5859 23.2734 12.6094C23.3906 12.6641 23.4765 12.75 23.5312 12.8672C23.4422 15.3811 22.4344 17.4357 20.5078 19.0313C20.2192 19.1096 19.9926 19.0237 19.8281 18.7734C19.2415 17.9995 18.6556 17.2261 18.0703 16.4531C18.5836 15.2113 18.7711 13.9222 18.6328 12.5859Z" fill="white"/>
</g>
<defs>
<clipPath id="clip0_967_3350">
<rect width="24" height="24" fill="white"/>
</clipPath>
</defs>
</svg>
