<svg width="24" height="24" viewBox="0 0 24 24" fill="none" xmlns="http://www.w3.org/2000/svg">
<g clip-path="url(#clip0_1008_1203)">
<path fill-rule="evenodd" clip-rule="evenodd" d="M5.07898 5.06902C8.87398 1.27902 15.044 1.31902 18.862 5.13802C22.682 8.95802 22.722 15.131 18.926 18.926C15.131 22.721 8.95798 22.682 5.13798 18.862C4.06348 17.792 3.25163 16.4874 2.76615 15.0508C2.28068 13.6141 2.13481 12.0845 2.33998 10.582C2.3669 10.3848 2.47105 10.2064 2.62952 10.086C2.78798 9.96562 2.98779 9.9131 3.18498 9.94002C3.38217 9.96694 3.56059 10.0711 3.68098 10.2296C3.80138 10.388 3.8539 10.5878 3.82698 10.785C3.65282 12.0583 3.77629 13.3547 4.18769 14.5722C4.59908 15.7897 5.2872 16.8953 6.19798 17.802C9.44298 21.046 14.666 21.065 17.866 17.866C21.065 14.666 21.046 9.44302 17.802 6.19802C14.559 2.95602 9.33898 2.93502 6.13898 6.13002L6.88698 6.13302C6.98547 6.13348 7.08291 6.15333 7.17373 6.19145C7.26454 6.22957 7.34696 6.2852 7.41628 6.35517C7.4856 6.42513 7.54046 6.50807 7.57773 6.59924C7.61499 6.69041 7.63394 6.78803 7.63348 6.88652C7.63302 6.98501 7.61316 7.08245 7.57505 7.17327C7.53693 7.26409 7.4813 7.34651 7.41133 7.41583C7.34136 7.48514 7.25843 7.54 7.16726 7.57727C7.07609 7.61454 6.97847 7.63348 6.87998 7.63302L4.33398 7.62102C4.13628 7.61997 3.94699 7.5409 3.80729 7.40101C3.66758 7.26112 3.58877 7.07172 3.58798 6.87402L3.57498 4.33002C3.57445 4.23153 3.59333 4.1339 3.63054 4.0427C3.66774 3.95151 3.72255 3.86854 3.79182 3.79852C3.86109 3.7285 3.94348 3.67282 4.03427 3.63464C4.12506 3.59647 4.22249 3.57655 4.32098 3.57602C4.41947 3.5755 4.5171 3.59438 4.6083 3.63158C4.69949 3.66879 4.78247 3.72359 4.85248 3.79286C4.9225 3.86214 4.97818 3.94452 5.01636 4.03531C5.05453 4.12611 5.07445 4.22353 5.07498 4.32202L5.07898 5.07002V5.06902Z" fill="white"/>
<path d="M10.7299 7.46869C10.8705 7.32804 11.0613 7.24902 11.2602 7.24902L11.2592 7.25002C11.4581 7.25002 11.6489 7.32904 11.7895 7.46969C11.9302 7.61035 12.0092 7.80111 12.0092 8.00002V12.31L9.28922 15.03C9.22 15.1016 9.13721 15.1587 9.04569 15.198C8.95417 15.2372 8.85574 15.2579 8.75616 15.2587C8.65658 15.2595 8.55782 15.2405 8.46567 15.2027C8.37352 15.165 8.2898 15.1093 8.21942 15.0388C8.14903 14.9684 8.09338 14.8846 8.05571 14.7924C8.01805 14.7002 7.99912 14.6014 8.00003 14.5019C8.00094 14.4023 8.02168 14.3039 8.06103 14.2124C8.10038 14.1209 8.15755 14.0382 8.22922 13.969L10.5102 11.689V7.99902C10.5102 7.80011 10.5892 7.60935 10.7299 7.46869Z" fill="white"/>
<rect x="13" y="15" width="8" height="6" fill="#02468B"/>
<mask id="mask0_1008_1203" style="mask-type:alpha" maskUnits="userSpaceOnUse" x="10" y="10" width="13" height="13">
<rect x="10" y="10" width="13" height="13" fill="#D9D9D9"/>
</mask>
<g mask="url(#mask0_1008_1203)">
<path d="M18.1248 18.3955V17.8538H19.2082V18.3955H18.1248ZM18.4498 20.2913L17.5832 19.6413L17.9082 19.208L18.7748 19.858L18.4498 20.2913ZM17.9082 17.0413L17.5832 16.608L18.4498 15.958L18.7748 16.3913L17.9082 17.0413ZM14.604 20.0205V18.9372H14.3332C14.1842 18.9372 14.0567 18.8841 13.9506 18.7781C13.8445 18.672 13.7915 18.5445 13.7915 18.3955V17.8538C13.7915 17.7049 13.8445 17.5774 13.9506 17.4713C14.0567 17.3652 14.1842 17.3122 14.3332 17.3122H15.4165L16.7707 16.4997V19.7497L15.4165 18.9372H15.1457V20.0205H14.604ZM17.0415 19.032V17.2174C17.1634 17.3257 17.2616 17.4577 17.336 17.6135C17.4105 17.7692 17.4478 17.9396 17.4478 18.1247C17.4478 18.3097 17.4105 18.4801 17.336 18.6359C17.2616 18.7916 17.1634 18.9236 17.0415 19.032Z" fill="white"/>
<path d="M13.25 10.833H13V11.083V11.9163H12.7083C12.3436 11.9163 12.0251 12.0491 11.7665 12.3078C11.5078 12.5665 11.375 12.8849 11.375 13.2497V20.833C11.375 21.1978 11.5078 21.5162 11.7665 21.7749C12.0251 22.0336 12.3436 22.1663 12.7083 22.1663H20.2917C20.6564 22.1663 20.9749 22.0336 21.2335 21.7749C21.4922 21.5162 21.625 21.1978 21.625 20.833V13.2497C21.625 12.8849 21.4922 12.5665 21.2335 12.3078C20.9749 12.0491 20.6564 11.9163 20.2917 11.9163H20V11.083V10.833H19.75H18.6667H18.4167V11.083V11.9163H14.5833V11.083V10.833H14.3333H13.25ZM20.0417 15.6663V20.583H12.9583V15.6663H20.0417Z" fill="white" stroke="#02468B" stroke-width="0.5"/>
</g>
</g>
<defs>
<clipPath id="clip0_1008_1203">
<rect width="24" height="24" fill="white"/>
</clipPath>
</defs>
</svg>
