<svg width="24" height="24" viewBox="0 0 24 24" fill="none" xmlns="http://www.w3.org/2000/svg">
<mask id="mask0_967_3375" style="mask-type:alpha" maskUnits="userSpaceOnUse" x="0" y="0" width="24" height="24">
<rect width="24" height="24" fill="#D9D9D9"/>
</mask>
<g mask="url(#mask0_967_3375)">
<path d="M18 15V13H22V15H18ZM19.2 22L16 19.6L17.2 18L20.4 20.4L19.2 22ZM17.2 10L16 8.4L19.2 6L20.4 7.6L17.2 10ZM5 21V17H4C3.45 17 2.97917 16.8042 2.5875 16.4125C2.19583 16.0208 2 15.55 2 15V13C2 12.45 2.19583 11.9792 2.5875 11.5875C2.97917 11.1958 3.45 11 4 11H8L13 8V20L8 17H7V21H5ZM14 17.35V10.65C14.45 11.05 14.8125 11.5375 15.0875 12.1125C15.3625 12.6875 15.5 13.3167 15.5 14C15.5 14.6833 15.3625 15.3125 15.0875 15.8875C14.8125 16.4625 14.45 16.95 14 17.35Z" fill="white"/>
</g>
<path opacity="0.963" fill-rule="evenodd" clip-rule="evenodd" d="M5.50568 2.00365C6.92559 1.94905 8.02829 2.50698 8.81379 3.67744C9.48839 4.86268 9.5147 6.06276 8.89274 7.27768C8.15529 8.4972 7.06838 9.09987 5.632 9.08569C4.32958 8.98738 3.34795 8.37945 2.68707 7.26189C2.5992 7.11256 2.53341 6.95465 2.48969 6.78817C2.51997 6.58699 2.63577 6.5054 2.83708 6.54342C2.87222 6.55228 2.9038 6.56807 2.93182 6.59079C3.04104 6.82238 3.16473 7.04608 3.3029 7.26189C3.96185 8.15322 4.84874 8.58745 5.9636 8.56461C7.20088 8.44256 8.07726 7.81884 8.59272 6.69343C9.01677 5.52691 8.83256 4.46894 8.04005 3.51954C7.23805 2.68905 6.26694 2.38114 5.1267 2.59579C4.15504 2.84446 3.45498 3.4208 3.02657 4.32485C3.0292 4.33011 3.03183 4.33539 3.03446 4.34065C3.18286 4.16504 3.34077 4.15451 3.50818 4.30906C3.55294 4.39621 3.55822 4.4857 3.52397 4.5775C3.4798 4.63749 3.42979 4.69276 3.37396 4.7433C3.16868 4.92753 2.9634 5.11174 2.75813 5.29597C2.63636 5.35609 2.52319 5.34293 2.41863 5.25649C2.28178 4.99331 2.14493 4.73015 2.00808 4.46697C1.96657 4.18741 2.085 4.07424 2.36336 4.12747C2.41303 4.15871 2.45514 4.19818 2.48969 4.2459C3.06932 2.92697 4.07465 2.17955 5.50568 2.00365Z" fill="white"/>
<path opacity="0.989" fill-rule="evenodd" clip-rule="evenodd" d="M5.52144 3.25108C6.4843 3.18908 7.22909 3.55751 7.7558 4.35642C8.08072 4.93609 8.15441 5.54666 7.97686 6.18812C7.69274 7.02492 7.12165 7.54863 6.26359 7.75927C5.21915 7.92242 4.40593 7.56714 3.82396 6.69341C3.49904 6.11375 3.42534 5.50317 3.60289 4.86172C3.83498 4.15591 4.29554 3.66377 4.98456 3.3853C5.16189 3.32517 5.34084 3.28044 5.52144 3.25108ZM5.71093 4.02482C5.85441 4.00049 5.95705 4.05313 6.01884 4.18272C6.03916 4.59263 6.0497 5.00318 6.05042 5.41438C6.36907 5.65268 6.68488 5.89479 6.99785 6.14075C7.0865 6.39946 6.99439 6.52315 6.72152 6.51182C6.36606 6.25777 6.01341 5.99986 5.66355 5.73809C5.61724 5.70234 5.58302 5.65759 5.56092 5.60387C5.53527 5.15711 5.53 4.70972 5.54513 4.26168C5.55501 4.14942 5.61028 4.07047 5.71093 4.02482Z" fill="white"/>
</svg>
