<svg width="24" height="24" viewBox="0 0 24 24" fill="none" xmlns="http://www.w3.org/2000/svg">
<g clip-path="url(#clip0_967_3359)">
<path opacity="0.986" fill-rule="evenodd" clip-rule="evenodd" d="M-0.0234375 19.2422C-0.0234375 13.461 -0.0234375 7.67969 -0.0234375 1.89845C0.0815316 1.67654 0.253407 1.5281 0.492188 1.45314C5.15109 1.40659 9.80733 1.42222 14.4609 1.50001C14.6277 1.58869 14.7449 1.7215 14.8125 1.89845C14.8359 3.63276 14.8438 5.36711 14.8359 7.10158C13.3626 7.46556 12.4563 8.3874 12.1172 9.8672C9.19523 9.8785 6.27338 9.90194 3.35156 9.93751C2.84558 10.1452 2.71276 10.4967 2.95312 10.9922C3.05159 11.1313 3.1844 11.2172 3.35156 11.25C5.3205 11.2578 7.28925 11.2813 9.25781 11.3203C8.86983 12.0852 8.71355 12.8977 8.78906 13.7578C8.79169 14.2277 8.81513 14.6964 8.85938 15.1641C8.90119 15.4406 8.97928 15.7063 9.09375 15.961C9.11719 17.2109 9.12502 18.4608 9.11719 19.711C6.24216 19.7188 3.36714 19.711 0.492188 19.6875C0.253407 19.6126 0.0815316 19.4641 -0.0234375 19.2422ZM3.35156 4.28908C6.05475 4.28126 8.75784 4.28908 11.4609 4.31251C11.9669 4.52019 12.0997 4.87173 11.8594 5.3672C11.7609 5.50628 11.6281 5.5922 11.4609 5.62501C8.7578 5.65628 6.0547 5.65628 3.35156 5.62501C2.84558 5.41736 2.71276 5.06579 2.95312 4.57033C3.06196 4.43461 3.19478 4.34086 3.35156 4.28908ZM3.35156 7.10158C6.05475 7.09375 8.75784 7.10158 11.4609 7.12501C11.9669 7.33267 12.0997 7.68423 11.8594 8.1797C11.7609 8.31878 11.6281 8.4047 11.4609 8.43751C8.7578 8.46878 6.0547 8.46878 3.35156 8.43751C2.84558 8.22986 2.71276 7.87829 2.95312 7.38283C3.06196 7.24712 3.19478 7.15337 3.35156 7.10158ZM3.35156 12.7266C4.05805 12.7054 4.76119 12.7289 5.46094 12.7969C5.77669 12.9833 5.89388 13.2567 5.8125 13.6172C5.72217 13.8482 5.55811 13.9966 5.32031 14.0625C4.614 14.1071 3.91087 14.0914 3.21094 14.0156C2.82118 13.7603 2.73524 13.4244 2.95312 13.0078C3.06196 12.8721 3.19478 12.7784 3.35156 12.7266Z" fill="white"/>
<path opacity="0.957" fill-rule="evenodd" clip-rule="evenodd" d="M15.2109 8.5077C16.5411 8.48623 17.8692 8.50967 19.1953 8.57801C19.8466 8.78389 20.3153 9.19793 20.6016 9.8202C18.2578 9.88268 15.9141 9.88268 13.5703 9.8202C13.8963 9.10329 14.4432 8.66576 15.2109 8.5077Z" fill="white"/>
<path opacity="0.988" fill-rule="evenodd" clip-rule="evenodd" d="M23.9766 12.4922C23.9766 13.3516 23.9766 14.211 23.9766 15.0703C23.7355 15.9129 23.1886 16.452 22.3359 16.6875C21.2748 16.9586 20.2201 17.2477 19.1719 17.5547C19.1597 17.2711 19.1284 16.9898 19.0781 16.7109C18.9922 16.5625 18.875 16.4453 18.7266 16.3594C17.6514 16.2827 16.5733 16.2671 15.4922 16.3125C15.2544 16.3784 15.0903 16.5268 15 16.7578C14.992 17.0248 14.9686 17.2904 14.9297 17.5547C13.8375 17.2454 12.7438 16.9407 11.6484 16.6406C10.9687 16.3984 10.5078 15.9375 10.2656 15.2578C10.2132 14.7683 10.1898 14.2761 10.1953 13.7813C10.2031 13.3516 10.2109 12.9219 10.2187 12.4922C10.4282 11.7984 10.8892 11.3843 11.6016 11.25C15.2578 11.2187 18.9141 11.2187 22.5703 11.25C23.2835 11.3932 23.7523 11.8073 23.9766 12.4922Z" fill="white"/>
<path opacity="0.982" fill-rule="evenodd" clip-rule="evenodd" d="M10.5234 17.6016C10.7754 17.743 11.041 17.8602 11.3203 17.9531C12.5258 18.2818 13.7289 18.6178 14.9297 18.9609C14.9686 19.3036 14.9921 19.6474 15 19.9922C15.0903 20.2232 15.2544 20.3716 15.4922 20.4375C16.5733 20.4829 17.6514 20.4673 18.7266 20.3906C18.875 20.3047 18.9922 20.1875 19.0781 20.0391C19.1401 19.6669 19.1635 19.2919 19.1484 18.9141C20.4325 18.593 21.7138 18.2571 22.9922 17.9062C23.2124 17.8235 23.4234 17.7219 23.625 17.6016C23.6563 18.7422 23.6563 19.8828 23.625 21.0234C23.3996 21.8582 22.8605 22.3504 22.0078 22.5C18.7266 22.5313 15.4453 22.5313 12.1641 22.5C11.3114 22.3504 10.7723 21.8582 10.5469 21.0234C10.5234 19.8829 10.5156 18.7423 10.5234 17.6016Z" fill="white"/>
<path opacity="0.937" fill-rule="evenodd" clip-rule="evenodd" d="M16.3359 17.6484C16.8203 17.6484 17.3047 17.6484 17.7891 17.6484C17.7891 18.1328 17.7891 18.6172 17.7891 19.1016C17.3047 19.1016 16.8203 19.1016 16.3359 19.1016C16.3359 18.6172 16.3359 18.1328 16.3359 17.6484Z" fill="white"/>
</g>
<defs>
<clipPath id="clip0_967_3359">
<rect width="24" height="24" fill="white"/>
</clipPath>
</defs>
</svg>
