<svg width="24" height="24" viewBox="0 0 24 24" fill="none" xmlns="http://www.w3.org/2000/svg">
<path d="M1.74536 1.0307C1.56324 1.10248 1.52782 1.25116 1.52782 1.89717V2.51754H1.40135C1.19393 2.51754 0.748735 2.71236 0.526138 2.90206C0.41484 3.0046 0.25801 3.21481 0.177066 3.37888C0.0404722 3.66086 0.0354132 3.70188 0.0202361 4.60423L0 5.54248H10.5025H21.0051V4.75805C21.0051 3.87107 20.9342 3.50705 20.7066 3.16354C20.398 2.71236 19.9477 2.51754 19.199 2.51754H18.7285V3.35837V4.20433L18.597 4.30687C18.3794 4.48119 18.1619 4.44017 18.0455 4.20433C17.9848 4.08641 17.9696 3.78391 17.9696 2.63033C17.9696 1.26141 17.9646 1.19476 17.8685 1.1076C17.8128 1.05633 17.6965 1.01532 17.6155 1.01532C17.5346 1.01532 17.4182 1.05633 17.3626 1.1076C17.2715 1.18964 17.2614 1.26654 17.2614 1.86128V2.51754H16.6796H16.0978V3.36349C16.0978 4.16331 16.0928 4.20945 15.9865 4.31199C15.855 4.43504 15.6577 4.4453 15.516 4.3325C15.4199 4.26072 15.4148 4.17869 15.3895 2.74825C15.3643 1.2768 15.3592 1.23578 15.253 1.12811C15.1012 0.974301 14.8482 0.974301 14.7218 1.12811C14.6459 1.23065 14.6307 1.34345 14.6307 1.88178V2.51754H14.0742H13.5177V3.28659C13.5177 3.86594 13.4975 4.09666 13.4418 4.20433C13.3255 4.44017 13.1079 4.48119 12.8904 4.30687L12.7589 4.20433V2.77389C12.7589 1.82026 12.7386 1.30243 12.7032 1.21527C12.6172 1.02557 12.3997 0.953792 12.2125 1.05121C12.1315 1.09222 12.0506 1.16913 12.0304 1.21014C12.0152 1.25629 12 1.56904 12 1.90742V2.51754H11.4435H10.887V3.33786C10.887 4.1428 10.882 4.16331 10.7605 4.28636C10.6037 4.45042 10.4115 4.45042 10.2546 4.28636L10.1282 4.16331V2.72774C10.1282 1.93818 10.113 1.25629 10.0978 1.21014C10.0776 1.16913 9.99663 1.09222 9.91568 1.05121C9.79427 0.989682 9.73356 0.984555 9.62226 1.0307C9.41484 1.11786 9.36931 1.28192 9.36931 1.92793V2.51754H8.81282H8.25632V3.33786C8.25632 4.1428 8.25127 4.16331 8.12985 4.28636C7.97302 4.45042 7.78078 4.45042 7.62395 4.28636L7.49747 4.16331V2.70724C7.49747 1.36395 7.49241 1.23578 7.40641 1.12811C7.27993 0.974301 7.02698 0.974301 6.87521 1.12811C6.77403 1.22552 6.76391 1.30243 6.74874 1.87666L6.7285 2.51754H6.17707H5.62563V3.35837V4.20433L5.4941 4.30687C5.27656 4.48119 5.05902 4.44017 4.94266 4.20433C4.88196 4.08641 4.86678 3.78391 4.86678 2.63033C4.86678 1.26141 4.86172 1.19476 4.7656 1.1076C4.70995 1.05633 4.59359 1.01532 4.51265 1.01532C4.4317 1.01532 4.31535 1.05633 4.2597 1.1076C4.16863 1.18964 4.15852 1.26654 4.15852 1.86128V2.51754H3.57673H2.99494V3.36349C2.99494 4.16331 2.98988 4.20945 2.88364 4.31199C2.75211 4.43504 2.55481 4.4453 2.41315 4.3325C2.31703 4.26072 2.31197 4.17869 2.28668 2.74825C2.26138 1.32294 2.25632 1.23065 2.1602 1.13837C2.02867 1.01532 1.88702 0.974301 1.74536 1.0307Z" fill="white"/>
<path d="M0.020372 12.551L0.035549 18.7958L0.151907 19.0521C0.293559 19.3597 0.511097 19.6007 0.819697 19.7853L1.04735 19.9237L8.01363 19.9391L14.9799 19.9493L14.9951 18.6317C15.0103 17.3704 15.0153 17.2987 15.1266 17.068C15.3846 16.5399 15.8652 16.222 16.4925 16.1707L16.8467 16.14L16.8669 15.5709C16.8973 14.8838 17.0086 14.5557 17.3323 14.1763C17.4588 14.0276 17.6915 13.8431 17.8787 13.7405L18.1974 13.5662L19.5887 13.5406L20.9799 13.5149L20.9951 9.91062L21.0052 6.31145H10.5077H0.0102539L0.020372 12.551ZM2.53977 8.33663L3.02037 8.82369L3.50098 8.33663C3.91076 7.92134 4.00182 7.84956 4.14348 7.84956C4.35595 7.84956 4.51278 8.00337 4.51278 8.21358C4.51278 8.34175 4.42678 8.45968 4.03724 8.86471L3.55663 9.36203L4.03724 9.85423C4.56337 10.3977 4.60891 10.5207 4.38631 10.7463C4.16371 10.977 4.04229 10.9258 3.50604 10.3874L3.02037 9.9055L2.56506 10.3618C2.30705 10.6182 2.04398 10.8335 1.96304 10.854C1.76068 10.9053 1.55831 10.7412 1.53808 10.5105C1.52796 10.3515 1.56337 10.2952 2.00351 9.8491L2.48917 9.36716L2.00857 8.86984C1.60891 8.45968 1.52796 8.35201 1.52796 8.21358C1.52796 8.00337 1.68479 7.84956 1.89221 7.84956C2.03386 7.84956 2.12998 7.92134 2.53977 8.33663ZM6.28344 8.33663L6.76405 8.82369L7.24466 8.33663C7.65444 7.92134 7.7455 7.84956 7.88715 7.84956C8.09963 7.84956 8.25646 8.00337 8.25646 8.21358C8.25646 8.34175 8.17046 8.45968 7.78091 8.86471L7.30031 9.36203L7.78091 9.85423C8.30705 10.3977 8.35258 10.5207 8.12998 10.7463C7.90739 10.977 7.78597 10.9258 7.24972 10.3874L6.76405 9.9055L6.30874 10.3618C6.05073 10.6182 5.78766 10.8335 5.70671 10.854C5.50435 10.9053 5.30199 10.7412 5.28176 10.5105C5.27164 10.3515 5.30705 10.2952 5.74719 9.8491L6.23285 9.36716L5.75224 8.86984C5.35258 8.45968 5.27164 8.35201 5.27164 8.21358C5.27164 8.00337 5.42847 7.84956 5.63589 7.84956C5.77754 7.84956 5.87366 7.92134 6.28344 8.33663ZM10.0271 8.33663L10.5077 8.82369L10.9883 8.33663C11.3981 7.92134 11.4892 7.84956 11.6308 7.84956C11.8332 7.84956 12.0001 8.01875 12.0001 8.22383C12.0001 8.33663 11.899 8.46993 11.5246 8.86471L11.044 9.36203L11.5246 9.85423C12.0507 10.3977 12.0963 10.5207 11.8737 10.7463C11.6511 10.977 11.5296 10.9258 10.9934 10.3874L10.5077 9.9055L10.0524 10.3618C9.7944 10.6182 9.53133 10.8335 9.45039 10.854C9.24803 10.9053 9.04567 10.7412 9.02543 10.5105C9.01531 10.3515 9.05073 10.2952 9.49086 9.8491L9.97653 9.36716L9.49592 8.86984C9.09626 8.45968 9.01531 8.35201 9.01531 8.21358C9.01531 8.00337 9.17214 7.84956 9.37956 7.84956C9.52122 7.84956 9.61734 7.92134 10.0271 8.33663ZM13.7708 8.33663L14.2514 8.82369L14.732 8.33663C15.1418 7.92134 15.2329 7.84956 15.3745 7.84956C15.5769 7.84956 15.7438 8.01875 15.7438 8.22383C15.7438 8.33663 15.6426 8.46993 15.2683 8.86471L14.7877 9.36203L15.2683 9.85423C15.7944 10.3977 15.8399 10.5207 15.6173 10.7463C15.3947 10.977 15.2733 10.9258 14.7371 10.3874L14.2514 9.9055L13.7961 10.3618C13.5381 10.6182 13.275 10.8335 13.1941 10.854C12.9917 10.9053 12.7893 10.7412 12.7691 10.5105C12.759 10.3515 12.7944 10.2952 13.2345 9.8491L13.7202 9.36716L13.2396 8.86984C12.8399 8.45968 12.759 8.35201 12.759 8.21358C12.759 8.00337 12.9158 7.84956 13.1232 7.84956C13.2649 7.84956 13.361 7.92134 13.7708 8.33663ZM19.3863 7.96235C19.4824 8.07002 19.4875 8.13667 19.4875 9.34665V10.6233L19.361 10.7463L19.2396 10.8745H18.0052C16.8315 10.8745 16.7607 10.8694 16.6342 10.7668L16.5027 10.6643V9.35691C16.5027 8.12129 16.5077 8.04951 16.6038 7.9521C16.7 7.85469 16.7708 7.84956 17.9951 7.84956C19.2548 7.84956 19.2851 7.84956 19.3863 7.96235ZM4.4116 11.7564C4.50772 11.864 4.51278 11.9307 4.51278 13.1407V14.4173L4.38631 14.5403L4.26489 14.6685H3.03049C1.8568 14.6685 1.78597 14.6634 1.6595 14.5608L1.52796 14.4583V13.1509C1.52796 11.9153 1.53302 11.8435 1.62914 11.7461C1.72526 11.6487 1.79609 11.6436 3.02037 11.6436C4.28007 11.6436 4.31042 11.6436 4.4116 11.7564ZM8.15528 11.7564C8.2514 11.864 8.25646 11.9307 8.25646 13.1407V14.4173L8.12998 14.5403L8.00857 14.6685H6.77417C5.60047 14.6685 5.52965 14.6634 5.40317 14.5608L5.27164 14.4583V13.1509C5.27164 11.9153 5.2767 11.8435 5.37282 11.7461C5.46894 11.6487 5.53977 11.6436 6.76405 11.6436C8.02375 11.6436 8.0541 11.6436 8.15528 11.7564ZM11.899 11.7564C11.9951 11.864 12.0001 11.9307 12.0001 13.1407V14.4173L11.8737 14.5403L11.7522 14.6685H10.5178C9.34415 14.6685 9.27332 14.6634 9.14685 14.5608L9.01531 14.4583V13.1509C9.01531 11.9153 9.02037 11.8435 9.11649 11.7461C9.21262 11.6487 9.28344 11.6436 10.5077 11.6436C11.7674 11.6436 11.7978 11.6436 11.899 11.7564ZM15.6426 11.7564C15.7388 11.864 15.7438 11.9307 15.7438 13.1407V14.4173L15.6173 14.5403L15.4959 14.6685H14.2615C13.0878 14.6685 13.017 14.6634 12.8905 14.5608L12.759 14.4583V13.1509C12.759 11.9153 12.764 11.8435 12.8602 11.7461C12.9563 11.6487 13.0271 11.6436 14.2514 11.6436C15.5111 11.6436 15.5415 11.6436 15.6426 11.7564ZM4.4116 15.5504C4.50772 15.658 4.51278 15.7247 4.51278 16.9346V18.2113L4.38631 18.3343L4.26489 18.4625H3.03049C1.8568 18.4625 1.78597 18.4574 1.6595 18.3548L1.52796 18.2523V16.9449C1.52796 15.7093 1.53302 15.6375 1.62914 15.5401C1.72526 15.4427 1.79609 15.4376 3.02037 15.4376C4.28007 15.4376 4.31042 15.4376 4.4116 15.5504ZM8.15528 15.5504C8.2514 15.658 8.25646 15.7247 8.25646 16.9346V18.2113L8.12998 18.3343L8.00857 18.4625H6.77417C5.60047 18.4625 5.52965 18.4574 5.40317 18.3548L5.27164 18.2523V16.9449C5.27164 15.7093 5.2767 15.6375 5.37282 15.5401C5.46894 15.4427 5.53977 15.4376 6.76405 15.4376C8.02375 15.4376 8.0541 15.4376 8.15528 15.5504ZM11.899 15.5504C11.9951 15.658 12.0001 15.7247 12.0001 16.9346V18.2113L11.8737 18.3343L11.7522 18.4625H10.5178C9.34415 18.4625 9.27332 18.4574 9.14685 18.3548L9.01531 18.2523V16.9449C9.01531 15.7093 9.02037 15.6375 9.11649 15.5401C9.21262 15.4427 9.28344 15.4376 10.5077 15.4376C11.7674 15.4376 11.7978 15.4376 11.899 15.5504Z" fill="white"/>
<path d="M17.2615 9.33654V10.1056H17.995H18.7286V9.33654V8.56748H17.995H17.2615V9.33654Z" fill="white"/>
<path d="M2.28662 13.1304V13.8994H3.02018H3.75374V13.1304V12.3613H3.02018H2.28662V13.1304Z" fill="white"/>
<path d="M6.03027 13.1304V13.8994H6.76383H7.49739V13.1304V12.3613H6.76383H6.03027V13.1304Z" fill="white"/>
<path d="M9.77393 13.1304V13.8994H10.5075H11.241V13.1304V12.3613H10.5075H9.77393V13.1304Z" fill="white"/>
<path d="M13.5176 13.1304V13.8994H14.2511H14.9847V13.1304V12.3613H14.2511H13.5176V13.1304Z" fill="white"/>
<path d="M2.28662 16.9244V17.6935H3.02018H3.75374V16.9244V16.1554H3.02018H2.28662V16.9244Z" fill="white"/>
<path d="M6.03027 16.9244V17.6935H6.76383H7.49739V16.9244V16.1554H6.76383H6.03027V16.9244Z" fill="white"/>
<path d="M9.77393 16.9244V17.6935H10.5075H11.241V16.9244V16.1554H10.5075H9.77393V16.9244Z" fill="white"/>
<path d="M18.5011 14.3044C18.1115 14.4018 17.7827 14.7095 17.6714 15.0735C17.641 15.1811 17.6157 15.4683 17.6157 15.7143V16.1553H18.1722H18.7287V15.7964V15.4375H19.867H21.0053V15.7964V16.1553H21.5668H22.1284L22.1081 15.6272C22.093 15.1658 22.0727 15.0735 21.9513 14.8633C21.6427 14.3249 21.3948 14.2583 19.8468 14.2634C19.1891 14.2685 18.5871 14.2839 18.5011 14.3044Z" fill="white"/>
<path d="M16.1532 17.0373C15.8294 17.2065 15.7434 17.4014 15.7434 17.9756V18.437L17.2004 18.8369C17.9997 19.0574 18.6675 19.2368 18.6928 19.2317C18.7131 19.2317 18.7282 19.1189 18.7282 18.9805C18.7282 18.8062 18.7586 18.6934 18.8345 18.596L18.9357 18.4627H19.8412C20.9238 18.4627 20.9542 18.478 20.9947 18.9395C21.0048 19.1035 21.0301 19.2317 21.0503 19.2317C21.0655 19.2317 21.7383 19.0523 22.5377 18.8369L23.9997 18.437L23.9795 17.9397C23.9643 17.4065 23.9087 17.2783 23.6152 17.0578C23.4787 16.9502 23.423 16.9502 19.9272 16.9348L16.3758 16.9245L16.1532 17.0373Z" fill="white"/>
<path d="M15.7434 20.8415C15.7434 22.4206 15.7434 22.4514 15.8598 22.6155C15.9205 22.7078 16.0368 22.8359 16.1127 22.8923C16.2544 23 16.2847 23 19.8665 23C23.4331 23 23.4787 23 23.6152 22.8923C23.6911 22.8359 23.8024 22.7231 23.8581 22.6462C23.9593 22.5129 23.9643 22.4309 23.9795 20.8672C23.9846 19.9699 23.9744 19.2316 23.9542 19.2316C23.934 19.2368 23.2662 19.4162 22.4719 19.6367L21.0301 20.0366L21.0048 20.457C20.9643 21.0876 20.9441 21.0979 19.9778 21.1184C19.1684 21.1389 18.8699 21.0927 18.7991 20.9338C18.7788 20.8877 18.7485 20.6672 18.7333 20.4416L18.7029 20.0417L17.2358 19.6367C16.4314 19.4162 15.7636 19.2316 15.7586 19.2316C15.7485 19.2316 15.7434 19.9545 15.7434 20.8415Z" fill="white"/>
<path d="M19.4875 19.7956V20.3596H19.867H20.2464V19.7956V19.2317H19.867H19.4875V19.7956Z" fill="white"/>
</svg>
