<svg width="24" height="24" viewBox="0 0 24 24" fill="none" xmlns="http://www.w3.org/2000/svg">
<g clip-path="url(#clip0_967_3384)">
<path opacity="0.988" fill-rule="evenodd" clip-rule="evenodd" d="M2.03389 2.00207C2.63116 2.00207 3.22842 2.00207 3.82568 2.00207C3.82016 2.54415 3.82569 3.08611 3.84227 3.62796C4.01704 3.99037 4.27695 4.06779 4.62204 3.86023C4.68836 3.79408 4.73814 3.71666 4.77135 3.62796C4.78794 3.08611 4.79348 2.54415 4.78794 2.00207C7.46458 2.00207 10.1412 2.00207 12.8178 2.00207C12.8123 2.54415 12.8178 3.08611 12.8344 3.62796C13.0106 3.99089 13.2705 4.06831 13.6142 3.86023C13.6846 3.79548 13.7344 3.71806 13.7635 3.62796C13.7801 3.08611 13.7856 2.54415 13.7801 2.00207C14.3885 1.99654 14.9968 2.00208 15.605 2.01866C16.3039 2.15368 16.7629 2.55739 16.9821 3.22978C16.9987 3.9265 17.0042 4.6233 16.9987 5.3202C11.6675 5.3202 6.33641 5.3202 1.00527 5.3202C0.9904 4.54449 1.00699 3.77027 1.05504 2.99751C1.21161 2.49258 1.53789 2.16077 2.03389 2.00207Z" fill="white"/>
<path opacity="0.993" fill-rule="evenodd" clip-rule="evenodd" d="M1.00531 6.34888C6.35855 6.34888 11.7118 6.34888 17.0651 6.34888C17.0706 9.46795 17.0651 12.587 17.0485 15.706C16.8374 16.3925 16.3784 16.8183 15.6714 16.9835C11.1367 17.0056 6.6019 17.0056 2.06711 16.9835C1.48246 16.8387 1.13406 16.4681 1.0219 15.8719C1.00531 12.6976 0.999778 9.52323 1.00531 6.34888ZM4.2239 8.20703C4.66643 8.20149 5.10887 8.20703 5.55115 8.22362C5.66947 8.24685 5.76351 8.30767 5.83319 8.40612C5.88741 8.91183 5.89849 9.4206 5.86637 9.93246C5.8166 10.0707 5.7226 10.1647 5.58433 10.2145C5.10874 10.2366 4.63312 10.2366 4.15753 10.2145C3.9909 10.1584 3.89689 10.0422 3.87549 9.8661C3.85336 9.43474 3.85336 9.00338 3.87549 8.57202C3.90914 8.36703 4.02527 8.24535 4.2239 8.20703ZM8.17247 8.20703C8.61501 8.20149 9.05745 8.20703 9.49972 8.22362C9.61805 8.24685 9.71208 8.30767 9.78176 8.40612C9.83552 8.92371 9.84657 9.44356 9.81494 9.96564C9.79205 10.0551 9.74228 10.127 9.66563 10.1813C9.14803 10.2351 8.62818 10.2461 8.10611 10.2145C7.95444 10.1623 7.86043 10.0572 7.82407 9.89928C7.80193 9.45687 7.80193 9.01443 7.82407 8.57202C7.85771 8.36703 7.97385 8.24535 8.17247 8.20703ZM12.1542 8.20703C12.6078 8.20149 13.0613 8.20703 13.5147 8.22362C13.7165 8.27064 13.8216 8.39782 13.8299 8.60521C13.852 9.02551 13.852 9.44579 13.8299 9.8661C13.8321 10.0443 13.7492 10.1605 13.581 10.2145C13.0833 10.2366 12.5856 10.2366 12.0879 10.2145C11.9607 10.1758 11.8777 10.0928 11.839 9.96564C11.8169 9.46792 11.8169 8.9702 11.839 8.47248C11.9107 8.33959 12.0158 8.25113 12.1542 8.20703ZM4.15753 12.7197C4.6443 12.7141 5.13097 12.7197 5.61751 12.7363C5.74469 12.775 5.82765 12.858 5.86637 12.9851C5.8885 13.4607 5.8885 13.9363 5.86637 14.4119C5.81006 14.6008 5.68284 14.7059 5.48479 14.7272C5.06448 14.7493 4.6442 14.7493 4.2239 14.7272C4.01927 14.6995 3.90313 14.5834 3.87549 14.3788C3.85336 13.9474 3.85336 13.516 3.87549 13.0847C3.90346 12.9079 3.9975 12.7862 4.15753 12.7197ZM8.07293 12.7197C8.57078 12.7141 9.0685 12.7197 9.56608 12.7363C9.69327 12.775 9.77622 12.858 9.81494 12.9851C9.83708 13.4829 9.83708 13.9806 9.81494 14.4783C9.76862 14.6352 9.66357 14.7181 9.49972 14.7272C9.05732 14.7493 8.61488 14.7493 8.17247 14.7272C7.96784 14.6995 7.85171 14.5834 7.82407 14.3788C7.80193 13.9363 7.80193 13.4939 7.82407 13.0515C7.86432 12.9065 7.94727 12.7959 8.07293 12.7197ZM12.0879 12.7197C12.5746 12.7141 13.0613 12.7197 13.5478 12.7363C13.7145 12.7924 13.8085 12.9086 13.8299 13.0847C13.852 13.516 13.852 13.9474 13.8299 14.3788C13.8022 14.5834 13.6861 14.6995 13.4815 14.7272C13.0391 14.7493 12.5966 14.7493 12.1542 14.7272C12.0359 14.7039 11.9419 14.6431 11.8722 14.5447C11.8179 14.0279 11.8069 13.508 11.839 12.9851C11.8839 12.8574 11.9669 12.7689 12.0879 12.7197Z" fill="white"/>
<path opacity="0.957" d="M15.2029 8.00776L15.156 8.00852L15.1101 8.01797C14.1849 8.20844 13.5069 8.75171 13.1152 9.61322L12.8029 10.2999L13.557 10.32C15.9096 10.3827 18.2623 10.3827 20.6149 10.32L21.3725 10.2998L21.0558 9.61126C20.7109 8.86132 20.1321 8.34976 19.346 8.10126L19.285 8.08197L19.221 8.07867C17.8836 8.00975 16.5442 7.98611 15.2029 8.00776Z" fill="white" stroke="#02468B"/>
<path opacity="0.988" d="M24.4766 12.4922V12.4124L24.4517 12.3366C24.1707 11.4784 23.5566 10.9381 22.6687 10.7598L22.6221 10.7504L22.5746 10.75C18.9155 10.7187 15.2564 10.7187 11.5973 10.75L11.5527 10.7504L11.5089 10.7587C11.0783 10.8398 10.6968 11.0114 10.3874 11.2893C10.078 11.5672 9.86673 11.9282 9.74009 12.3477L9.72009 12.4139L9.71883 12.4831L9.70711 13.1277L9.69539 13.7722L9.69538 13.7722L9.69534 13.7757C9.68959 14.29 9.71396 14.8019 9.76846 15.311L9.77476 15.3699L9.79463 15.4257C10.0872 16.2468 10.6595 16.819 11.4806 17.1116L11.4983 17.1179L11.5163 17.1229C12.6103 17.4225 13.7027 17.7268 14.7934 18.0358L15.3414 18.191L15.4244 17.6275C15.4609 17.3794 15.4847 17.1302 15.4958 16.8798C15.5176 16.8469 15.5445 16.8253 15.5822 16.8093C16.5757 16.7699 17.5665 16.7831 18.5548 16.8487C18.5723 16.8644 18.5883 16.8813 18.6032 16.8997C18.6395 17.1235 18.6626 17.349 18.6723 17.5762L18.6997 18.214L19.3124 18.0345C20.355 17.7291 21.4041 17.4416 22.4597 17.1719L22.4597 17.172L22.4691 17.1695C23.4877 16.8881 24.1677 16.2199 24.4573 15.2079L24.4766 15.1404V15.0703V15.0653V15.0603V15.0552V15.0502V15.0451V15.0401V15.0351V15.03V15.025V15.02V15.0149V15.0099V15.0049V14.9998V14.9948V14.9898V14.9847V14.9797V14.9747V14.9696V14.9646V14.9595V14.9545V14.9495V14.9444V14.9394V14.9344V14.9293V14.9243V14.9193V14.9142V14.9092V14.9042V14.8991V14.8941V14.8891V14.884V14.879V14.8739V14.8689V14.8639V14.8588V14.8538V14.8488V14.8437V14.8387V14.8337V14.8286V14.8236V14.8186V14.8135V14.8085V14.8035V14.7984V14.7934V14.7883V14.7833V14.7783V14.7732V14.7682V14.7632V14.7581V14.7531V14.7481V14.743V14.738V14.733V14.7279V14.7229V14.7179V14.7128V14.7078V14.7027V14.6977V14.6927V14.6876V14.6826V14.6776V14.6725V14.6675V14.6625V14.6574V14.6524V14.6474V14.6423V14.6373V14.6322V14.6272V14.6222V14.6171V14.6121V14.6071V14.602V14.597V14.592V14.5869V14.5819V14.5769V14.5718V14.5668V14.5618V14.5567V14.5517V14.5466V14.5416V14.5366V14.5315V14.5265V14.5215V14.5164V14.5114V14.5064V14.5013V14.4963V14.4913V14.4862V14.4812V14.4762V14.4711V14.4661V14.461V14.456V14.451V14.4459V14.4409V14.4359V14.4308V14.4258V14.4208V14.4157V14.4107V14.4057V14.4006V14.3956V14.3905V14.3855V14.3805V14.3754V14.3704V14.3654V14.3603V14.3553V14.3503V14.3452V14.3402V14.3352V14.3301V14.3251V14.3201V14.315V14.31V14.3049V14.2999V14.2949V14.2898V14.2848V14.2798V14.2747V14.2697V14.2647V14.2596V14.2546V14.2496V14.2445V14.2395V14.2345V14.2294V14.2244V14.2193V14.2143V14.2093V14.2042V14.1992V14.1942V14.1891V14.1841V14.1791V14.174V14.169V14.164V14.1589V14.1539V14.1488V14.1438V14.1388V14.1337V14.1287V14.1237V14.1186V14.1136V14.1086V14.1035V14.0985V14.0935V14.0884V14.0834V14.0784V14.0733V14.0683V14.0632V14.0582V14.0532V14.0481V14.0431V14.0381V14.033V14.028V14.023V14.0179V14.0129V14.0079V14.0028V13.9978V13.9928V13.9877V13.9827V13.9776V13.9726V13.9676V13.9625V13.9575V13.9525V13.9474V13.9424V13.9374V13.9323V13.9273V13.9223V13.9172V13.9122V13.9071V13.9021V13.8971V13.892V13.887V13.882V13.8769V13.8719V13.8669V13.8618V13.8568V13.8518V13.8467V13.8417V13.8367V13.8316V13.8266V13.8215V13.8165V13.8115V13.8064V13.8014V13.7964V13.7913V13.7863V13.7813V13.7762V13.7712V13.7662V13.7611V13.7561V13.751V13.746V13.741V13.7359V13.7309V13.7259V13.7208V13.7158V13.7108V13.7057V13.7007V13.6957V13.6906V13.6856V13.6806V13.6755V13.6705V13.6654V13.6604V13.6554V13.6503V13.6453V13.6403V13.6352V13.6302V13.6252V13.6201V13.6151V13.6101V13.605V13.6V13.595V13.5899V13.5849V13.5798V13.5748V13.5698V13.5647V13.5597V13.5547V13.5496V13.5446V13.5396V13.5345V13.5295V13.5245V13.5194V13.5144V13.5093V13.5043V13.4993V13.4942V13.4892V13.4842V13.4791V13.4741V13.4691V13.464V13.459V13.454V13.4489V13.4439V13.4389V13.4338V13.4288V13.4237V13.4187V13.4137V13.4086V13.4036V13.3986V13.3935V13.3885V13.3835V13.3784V13.3734V13.3684V13.3633V13.3583V13.3532V13.3482V13.3432V13.3381V13.3331V13.3281V13.323V13.318V13.313V13.3079V13.3029V13.2979V13.2928V13.2878V13.2828V13.2777V13.2727V13.2676V13.2626V13.2576V13.2525V13.2475V13.2425V13.2374V13.2324V13.2274V13.2223V13.2173V13.2123V13.2072V13.2022V13.1972V13.1921V13.1871V13.182V13.177V13.172V13.1669V13.1619V13.1569V13.1518V13.1468V13.1418V13.1367V13.1317V13.1267V13.1216V13.1166V13.1115V13.1065V13.1015V13.0964V13.0914V13.0864V13.0813V13.0763V13.0713V13.0662V13.0612V13.0562V13.0511V13.0461V13.0411V13.036V13.031V13.0259V13.0209V13.0159V13.0108V13.0058V13.0008V12.9957V12.9907V12.9857V12.9806V12.9756V12.9706V12.9655V12.9605V12.9555V12.9504V12.9454V12.9403V12.9353V12.9303V12.9252V12.9202V12.9152V12.9101V12.9051V12.9001V12.895V12.89V12.885V12.8799V12.8749V12.8699V12.8648V12.8598V12.8547V12.8497V12.8447V12.8396V12.8346V12.8296V12.8245V12.8195V12.8145V12.8094V12.8044V12.7994V12.7943V12.7893V12.7842V12.7792V12.7742V12.7691V12.7641V12.7591V12.754V12.749V12.744V12.7389V12.7339V12.7289V12.7238V12.7188V12.7138V12.7087V12.7037V12.6986V12.6936V12.6886V12.6835V12.6785V12.6735V12.6684V12.6634V12.6584V12.6533V12.6483V12.6433V12.6382V12.6332V12.6282V12.6231V12.6181V12.613V12.608V12.603V12.5979V12.5929V12.5879V12.5828V12.5778V12.5728V12.5677V12.5627V12.5577V12.5526V12.5476V12.5426V12.5375V12.5325V12.5274V12.5224V12.5174V12.5123V12.5073V12.5023V12.4972V12.4922Z" fill="white" stroke="#02468B"/>
<path opacity="0.982" d="M10.7682 17.1656L10.0293 16.7507L10.0235 17.5981C10.0156 18.7435 10.0235 19.8886 10.047 21.0337L10.0482 21.0948L10.0642 21.1538C10.197 21.6458 10.4312 22.0666 10.7831 22.3879C11.135 22.7091 11.5754 22.9043 12.0777 22.9925L12.1182 22.9996L12.1593 23C15.4437 23.0313 18.7282 23.0313 22.0126 23L22.0537 22.9996L22.0942 22.9925C22.5965 22.9043 23.0369 22.7091 23.3888 22.3879C23.7407 22.0666 23.9748 21.6458 24.1077 21.1538L24.1232 21.0965L24.1248 21.0371C24.1563 19.8874 24.1563 18.7376 24.1248 17.5879L24.1014 16.735L23.3688 17.1722C23.1991 17.2735 23.0219 17.3595 22.837 17.4304C21.5699 17.7779 20.2999 18.1108 19.0272 18.429L18.6327 18.5276L18.6488 18.934C18.6611 19.2425 18.6452 19.5487 18.6011 19.8528C18.5869 19.8703 18.5714 19.8863 18.5548 19.9013C17.5665 19.9669 16.5757 19.9801 15.5822 19.9408C15.5451 19.925 15.5185 19.9038 15.4969 19.8718C15.4865 19.5485 15.463 19.226 15.4265 18.9045L15.3887 18.5721L15.0671 18.4802C13.8689 18.1378 12.6684 17.8025 11.4655 17.4745C11.2204 17.3921 10.9882 17.2891 10.7682 17.1656Z" fill="white" stroke="#02468B"/>
<path opacity="0.937" fill-rule="evenodd" clip-rule="evenodd" d="M16.3359 17.6484C16.8203 17.6484 17.3047 17.6484 17.7891 17.6484C17.7891 18.1328 17.7891 18.6172 17.7891 19.1016C17.3047 19.1016 16.8203 19.1016 16.3359 19.1016C16.3359 18.6172 16.3359 18.1328 16.3359 17.6484Z" fill="white"/>
</g>
<defs>
<clipPath id="clip0_967_3384">
<rect width="24" height="24" fill="white"/>
</clipPath>
</defs>
</svg>
