<svg width="24" height="24" viewBox="0 0 24 24" fill="none" xmlns="http://www.w3.org/2000/svg">
<g clip-path="url(#clip0_967_3415)">
<path opacity="0.975" fill-rule="evenodd" clip-rule="evenodd" d="M13.8984 -0.0234375C14.5234 -0.0234375 15.1484 -0.0234375 15.7734 -0.0234375C19.6376 0.553491 22.2392 2.67849 23.5781 6.35156C23.7612 6.95653 23.894 7.56591 23.9766 8.17969C23.9766 8.80467 23.9766 9.4297 23.9766 10.0547C23.5506 13.1502 22.0037 15.5018 19.3359 17.1094C16.7727 18.4489 14.1321 18.6208 11.4141 17.625C9.03125 16.6172 7.33593 14.9219 6.32811 12.5391C5.20729 9.47939 5.53541 6.58875 7.31249 3.86719C8.951 1.63741 11.1463 0.340539 13.8984 -0.0234375ZM14.0859 2.13281C17.1406 1.96837 19.4453 3.18712 21 5.78906C22.3157 8.53983 22.0657 11.1336 20.25 13.5703C18.2029 15.8344 15.6951 16.5766 12.7266 15.7969C9.92943 14.7899 8.31224 12.8133 7.87499 9.86719C7.68777 6.81141 8.89869 4.5067 11.5078 2.95312C12.3246 2.52663 13.1841 2.25319 14.0859 2.13281ZM16.5234 7.05469C17.791 6.94064 18.6113 7.48748 18.9844 8.69531C19.1212 9.96394 18.5822 10.7843 17.3672 11.1562C16.2513 11.2937 15.4544 10.8562 14.9766 9.84375C14.4612 9.82031 13.9455 9.81248 13.4297 9.82031C13.4297 10.2891 13.4297 10.7578 13.4297 11.2266C12.9609 11.2266 12.4922 11.2266 12.0234 11.2266C12.0234 10.7578 12.0234 10.2891 12.0234 9.82031C11.5547 9.82031 11.0859 9.82031 10.6172 9.82031C10.6172 9.35156 10.6172 8.88281 10.6172 8.41406C12.0704 8.42189 13.5235 8.41406 14.9766 8.39062C15.2856 7.69823 15.8013 7.25292 16.5234 7.05469Z" fill="white"/>
<path opacity="0.975" d="M18.9844 8.69542C18.6113 7.4876 17.791 6.94075 16.5234 7.0548C15.8013 7.25303 15.2857 7.69835 14.9766 8.39074C13.5235 8.41417 12.0704 8.422 10.6172 8.41417V9.82042H12.0234V11.2267H13.4297V9.82042C13.9455 9.8126 14.4612 9.82042 14.9766 9.84386C15.4545 10.8563 16.2513 11.2938 17.3672 11.1564C18.5822 10.7844 19.1213 9.96405 18.9844 8.69542Z" fill="#02468B"/>
<path opacity="0.984" fill-rule="evenodd" clip-rule="evenodd" d="M14.1328 3.49224C16.5201 3.33053 18.3717 4.23678 19.6875 6.21099C20.5752 7.84084 20.7002 9.52834 20.0625 11.2735C18.873 13.7555 16.8965 14.904 14.1328 14.7188C11.8452 14.3373 10.2905 13.0638 9.46872 10.8985C8.815 8.56379 9.35407 6.55599 11.0859 4.87505C11.9766 4.13272 12.9922 3.67178 14.1328 3.49224ZM16.5234 7.05474C15.8013 7.25298 15.2856 7.69829 14.9765 8.39068C13.5235 8.41412 12.0704 8.42194 10.6172 8.41412C10.6172 8.88287 10.6172 9.35162 10.6172 9.82037C11.0859 9.82037 11.5547 9.82037 12.0234 9.82037C12.0234 10.2891 12.0234 10.7579 12.0234 11.2266C12.4922 11.2266 12.9609 11.2266 13.4297 11.2266C13.4297 10.7579 13.4297 10.2891 13.4297 9.82037C13.9455 9.81254 14.4611 9.82037 14.9765 9.8438C15.4544 10.8563 16.2513 11.2938 17.3672 11.1563C18.5822 10.7843 19.1212 9.96399 18.9843 8.69537C18.6113 7.48754 17.791 6.94069 16.5234 7.05474Z" fill="white"/>
<path opacity="0.928" fill-rule="evenodd" clip-rule="evenodd" d="M16.6641 8.414C17.4213 8.31964 17.7416 8.64776 17.625 9.39837C17.4212 9.79283 17.1009 9.92562 16.6641 9.79681C16.2696 9.593 16.1368 9.2727 16.2656 8.83587C16.3448 8.6397 16.4776 8.49908 16.6641 8.414Z" fill="white"/>
<path opacity="0.953" fill-rule="evenodd" clip-rule="evenodd" d="M5.97656 14.9297C6.04767 14.9302 6.10238 14.9614 6.14063 15.0234C6.56231 15.6643 7.0545 16.2502 7.61719 16.7812C8.07919 17.1758 8.54794 17.5586 9.02344 17.9297C8.53191 18.4447 8.03194 18.9525 7.52344 19.4531C7.47656 19.4844 7.42969 19.4844 7.38281 19.4531C6.42188 18.4922 5.46094 17.5312 4.5 16.5703C4.46875 16.5234 4.46875 16.4766 4.5 16.4297C5.00166 15.9359 5.49384 15.4358 5.97656 14.9297Z" fill="white"/>
<path opacity="0.977" fill-rule="evenodd" clip-rule="evenodd" d="M2.55469 23.9766C2.24219 23.9766 1.92969 23.9766 1.61719 23.9766C0.773438 23.7266 0.226562 23.1797 -0.0234375 22.3359C-0.0234375 22.0234 -0.0234375 21.711 -0.0234375 21.3984C0.0773972 21.0563 0.24146 20.7438 0.46875 20.4609C1.46094 19.4687 2.45312 18.4766 3.44531 17.4844C3.47656 17.4531 3.50781 17.4531 3.53906 17.4844C4.5319 18.4694 5.5163 19.4616 6.49219 20.4609C5.50064 21.4759 4.50065 22.4837 3.49219 23.4844C3.20935 23.7117 2.89685 23.8757 2.55469 23.9766Z" fill="white"/>
</g>
<defs>
<clipPath id="clip0_967_3415">
<rect width="24" height="24" fill="white"/>
</clipPath>
</defs>
</svg>
