<svg width="24" height="24" viewBox="0 0 24 24" fill="none" xmlns="http://www.w3.org/2000/svg">
<path opacity="0.972" fill-rule="evenodd" clip-rule="evenodd" d="M4.28906 3.35146C5.65898 3.20071 6.7215 3.6929 7.47656 4.82802C9.03905 4.84363 10.6016 4.85929 12.1641 4.8749C12.207 4.89243 12.2461 4.91587 12.2813 4.94521C12.5312 5.32021 12.7813 5.69521 13.0313 6.07021C13.1008 6.2203 13.1164 6.37658 13.0781 6.53896C12.8068 6.99688 12.5021 7.42658 12.1641 7.82802C11.7891 7.85929 11.4141 7.85929 11.0391 7.82802C10.9961 7.81049 10.957 7.78705 10.9219 7.75771C10.8713 7.64071 10.8087 7.5313 10.7344 7.42958C10.5999 7.57977 10.4515 7.71257 10.2891 7.82802C10.1136 7.87157 9.9495 7.84813 9.79688 7.75771C9.74625 7.64071 9.68372 7.5313 9.60938 7.42958C9.47489 7.57977 9.32649 7.71257 9.16406 7.82802C8.60156 7.84363 8.03906 7.85929 7.47656 7.8749C6.56423 9.19743 5.32983 9.63491 3.77344 9.1874C2.54402 8.64337 1.88777 7.69804 1.80469 6.35146C1.92771 4.75902 2.75583 3.75901 4.28906 3.35146ZM4.80469 4.66396C6.00961 4.82962 6.56433 5.51713 6.46875 6.72646C6.0067 7.90658 5.18639 8.25815 4.00781 7.78115C3.13686 7.12274 2.9728 6.31804 3.51563 5.36708C3.85291 4.95252 4.2826 4.71815 4.80469 4.66396Z" fill="white"/>
<path opacity="0.998" fill-rule="evenodd" clip-rule="evenodd" d="M18.3984 4.10156C19.1174 4.09375 19.8361 4.10157 20.5547 4.125C20.9375 4.25781 21.1953 4.51562 21.3281 4.89844C21.3516 9.25776 21.3594 13.6171 21.3516 17.9766C20.1016 17.9766 18.8516 17.9766 17.6016 17.9766C17.5937 13.6171 17.6016 9.25776 17.625 4.89844C17.7665 4.51479 18.0243 4.24917 18.3984 4.10156Z" fill="white"/>
<path opacity="0.998" fill-rule="evenodd" clip-rule="evenodd" d="M13.5234 7.85157C14.2424 7.84374 14.9611 7.85157 15.6797 7.87501C16.0625 8.0078 16.3203 8.26562 16.4531 8.64844C16.4766 11.7578 16.4844 14.8672 16.4766 17.9766C15.2266 17.9766 13.9766 17.9766 12.7266 17.9766C12.7187 14.8672 12.7266 11.7578 12.75 8.64844C12.8915 8.26482 13.1493 7.99918 13.5234 7.85157Z" fill="white"/>
<path opacity="0.997" fill-rule="evenodd" clip-rule="evenodd" d="M8.64844 10.4766C9.36737 10.4687 10.0861 10.4766 10.8047 10.5C11.1337 10.6102 11.3759 10.8211 11.5313 11.1328C11.6009 13.4113 11.6244 15.6925 11.6016 17.9766C10.3516 17.9766 9.10158 17.9766 7.85157 17.9766C7.84374 15.7421 7.85157 13.5078 7.87501 11.2734C8.01652 10.8898 8.27433 10.6242 8.64844 10.4766Z" fill="white"/>
<path opacity="0.995" fill-rule="evenodd" clip-rule="evenodd" d="M3.77344 13.1016C4.49236 13.0937 5.21109 13.1016 5.92969 13.125C6.31251 13.2578 6.57033 13.5156 6.70312 13.8984C6.72656 15.2577 6.73439 16.6171 6.72656 17.9766C5.47655 17.9766 4.22656 17.9766 2.97656 17.9766C2.96875 16.6171 2.97656 15.2577 3 13.8984C3.14152 13.5148 3.39933 13.2492 3.77344 13.1016Z" fill="white"/>
<path opacity="0.996" fill-rule="evenodd" clip-rule="evenodd" d="M1.33591 18.7266C8.42969 18.7187 15.5234 18.7266 22.6172 18.75C23.2361 19.0632 23.4002 19.5398 23.1093 20.1797C22.9877 20.362 22.8236 20.4948 22.6172 20.5781C15.5234 20.6094 8.42965 20.6094 1.33591 20.5781C0.716979 20.2649 0.552916 19.7883 0.843724 19.1484C0.976826 18.9691 1.14089 18.8284 1.33591 18.7266Z" fill="white"/>
</svg>
