<svg width="24" height="24" viewBox="0 0 24 24" fill="none" xmlns="http://www.w3.org/2000/svg">
<path d="M12.5249 11.9468L12.3651 8.46734L9.17845 7.55712L12.3154 6.4376L12.1276 2.78198L14.2967 5.73053L17.4337 4.61101L15.5433 7.33309L17.6225 10.1276L14.3814 9.09722L12.5249 11.9468Z" fill="white"/>
<path d="M9.04999 4.48376C7.88749 4.58376 6.83624 4.94501 5.85624 5.58501C5.20249 6.01126 4.59249 6.58501 4.11374 7.22501C3.17124 8.48501 2.68249 10.0025 2.71624 11.5625C2.73249 12.3138 2.84874 12.9775 3.08124 13.6613C3.31374 14.3438 3.58999 14.8813 4.00499 15.4625C4.63999 16.3525 5.49749 17.0913 6.48124 17.595C7.09124 17.9075 7.67624 18.1125 8.33749 18.2425C8.77749 18.3288 9.07499 18.3613 9.53749 18.3713C10.1787 18.385 10.76 18.3213 11.3375 18.1738C12.3087 17.925 13.1637 17.4988 13.9375 16.8763C14.0237 16.8075 14.0962 16.7513 14.1 16.7513C14.1037 16.7513 14.345 17.01 14.6375 17.3275C14.93 17.6438 15.3337 18.08 15.5362 18.2975C15.7375 18.5163 15.9625 18.7588 16.0362 18.8388C16.1087 18.9175 16.3775 19.2075 16.6312 19.4813C16.8862 19.755 17.2425 20.14 17.4237 20.3363C18.1875 21.1638 18.2862 21.2538 18.5687 21.3925C18.8687 21.5413 19.0887 21.5938 19.4125 21.5925C19.575 21.5925 19.6487 21.5875 19.7587 21.565C20.1262 21.4913 20.4387 21.33 20.7025 21.0763C21.1462 20.6513 21.355 20.055 21.2675 19.4663C21.2112 19.085 21.0475 18.7513 20.7862 18.4813C20.6462 18.3375 20.5875 18.2925 20.1875 18.0288C20.0262 17.9225 19.59 17.6338 19.2187 17.3888C17.8487 16.48 16.7287 15.7388 16.1912 15.3838C15.8875 15.1825 15.6387 15.015 15.6387 15.01C15.6375 15.0063 15.6637 14.9575 15.6962 14.9038C15.8537 14.6375 16.0925 14.1325 16.2175 13.795C16.3787 13.3638 16.5225 12.7838 16.58 12.325C16.6462 11.8113 16.6512 11.2225 16.5925 10.7313C16.5837 10.6488 16.575 10.575 16.575 10.5675C16.575 10.56 16.5425 10.57 16.5037 10.5888C16.3975 10.64 16.0825 10.7413 15.875 10.7925C15.58 10.865 15.235 10.9125 15.0062 10.9125H14.9062V11.39C14.9062 11.82 14.9025 11.8913 14.8762 12.0813C14.74 13.0925 14.3437 14 13.7025 14.775C13.5637 14.9425 13.2187 15.29 13.0562 15.4263C12.2587 16.0963 11.3137 16.5 10.2375 16.6338C9.99124 16.6638 9.37249 16.6638 9.11874 16.6325C8.39124 16.545 7.68999 16.3175 7.09374 15.9763C5.61874 15.13 4.64749 13.6575 4.45499 11.975C4.44499 11.8888 4.43374 11.7 4.42999 11.5563C4.39124 10.2225 4.87999 8.90376 5.78124 7.90751C6.45374 7.16501 7.29124 6.64001 8.23749 6.36876C8.72749 6.22876 9.16999 6.16751 9.61999 6.17751L9.88374 6.18376L9.89124 5.91376C9.90249 5.48501 9.96874 5.11876 10.1212 4.65876C10.1462 4.58501 10.1637 4.52126 10.16 4.51876C10.1575 4.51501 10.065 4.50376 9.95499 4.49376C9.77874 4.47626 9.20499 4.47001 9.04999 4.48376Z" fill="white"/>
</svg>
