<svg class="svg-icon" style="width: 1em;height: 1em;vertical-align: middle;fill: currentColor;overflow: hidden;" viewBox="0 0 1024 1024" version="1.1" xmlns="http://www.w3.org/2000/svg"><path d="M600 276.8h-153.6c-4.8 0-8-3.2-8-8s3.2-8 8-8h153.6c4.8 0 8 3.2 8 8s-3.2 8-8 8zM600 643.2h-153.6c-4.8 0-8-3.2-8-8s3.2-8 8-8h153.6c4.8 0 8 3.2 8 8s-3.2 8-8 8zM683.2 396.8H446.4c-4.8 0-8-3.2-8-8s3.2-8 8-8h236.8c4.8 0 8 3.2 8 8s-3.2 8-8 8zM600 521.6h-153.6c-4.8 0-8-3.2-8-8s3.2-8 8-8h153.6c4.8 0 8 3.2 8 8s-3.2 8-8 8z"  /><path d="M742.4 889.6h-416c-46.4 0-84.8-38.4-84.8-84.8V209.6c0-46.4 38.4-84.8 84.8-84.8h416c46.4 0 84.8 38.4 84.8 84.8v595.2c-1.6 48-38.4 84.8-84.8 84.8z m-416-715.2c-19.2 0-36.8 16-36.8 36.8v595.2c0 19.2 16 36.8 36.8 36.8h416c19.2 0 36.8-16 36.8-36.8V209.6c0-19.2-16-36.8-36.8-36.8h-416z"  /><path d="M305.6 302.4h-86.4c-12.8 0-24-11.2-24-24s11.2-24 24-24h86.4c12.8 0 24 11.2 24 24s-11.2 24-24 24zM305.6 460.8h-86.4c-12.8 0-24-11.2-24-24s11.2-24 24-24h86.4c12.8 0 24 11.2 24 24s-11.2 24-24 24zM305.6 611.2h-86.4c-12.8 0-24-11.2-24-24s11.2-24 24-24h86.4c12.8 0 24 11.2 24 24s-11.2 24-24 24zM305.6 758.4h-86.4c-12.8 0-24-11.2-24-24s11.2-24 24-24h86.4c12.8 0 24 11.2 24 24s-11.2 24-24 24z"  /></svg>