<svg xmlns="http://www.w3.org/2000/svg" xmlns:xlink="http://www.w3.org/1999/xlink" version="1.1" width="24" height="24" viewBox="0 0 256 256" fill="white" xml:space="preserve">

<defs>
</defs>
<g style="stroke: none; stroke-width: 0; stroke-dasharray: none; stroke-linecap: butt; stroke-linejoin: miter; stroke-miterlimit: 10; fill: white; fill-rule: nonzero; opacity: 1;" transform="translate(1.4065934065934016 1.4065934065934016) scale(2.81 2.81)" >
	<path d="M 78.207 77.042 H 11.793 c -2.958 0 -5.366 -2.407 -5.366 -5.366 c 0 -3.685 1.607 -7.171 4.409 -9.563 c 1.911 -1.633 3.007 -4.01 3.007 -6.522 V 31.157 C 13.843 13.977 27.82 0 45 0 s 31.157 13.977 31.157 31.157 V 55.59 c 0 2.513 1.096 4.891 3.006 6.522 c 2.802 2.393 4.409 5.878 4.409 9.563 C 83.572 74.635 81.165 77.042 78.207 77.042 z M 45 4 C 30.026 4 17.843 16.183 17.843 31.157 V 55.59 c 0 3.685 -1.607 7.171 -4.409 9.563 c -1.911 1.633 -3.007 4.01 -3.007 6.522 c 0 0.753 0.613 1.366 1.366 1.366 h 66.414 c 0.753 0 1.365 -0.613 1.365 -1.366 c 0 -2.513 -1.096 -4.891 -3.007 -6.522 c -2.802 -2.393 -4.408 -5.879 -4.408 -9.563 V 31.157 C 72.157 16.183 59.975 4 45 4 z" style="stroke: none; stroke-width: 1; stroke-dasharray: none; stroke-linecap: butt; stroke-linejoin: miter; stroke-miterlimit: 10; fill: white; fill-rule: nonzero; opacity: 1;" transform=" matrix(1 0 0 1 0 0) " stroke-linecap="round" />
	<path d="M 45 90 c -8.202 0 -14.875 -6.673 -14.875 -14.876 c 0 -0.039 0.002 -0.105 0.005 -0.153 c 0.038 -1.072 0.918 -1.929 1.999 -1.929 c 1.104 0 2 0.896 2 2 c 0 0.032 -0.001 0.083 -0.004 0.128 C 34.149 81.146 39.019 86 45 86 c 5.979 0 10.847 -4.85 10.876 -10.822 c -0.002 -0.024 -0.003 -0.05 -0.004 -0.064 c -0.039 -1.104 0.824 -2.03 1.928 -2.07 c 1.145 -0.037 2.03 0.824 2.07 1.928 c 0.001 0.023 0.006 0.13 0.006 0.153 C 59.876 83.327 53.203 90 45 90 z" style="stroke: none; stroke-width: 1; stroke-dasharray: none; stroke-linecap: butt; stroke-linejoin: miter; stroke-miterlimit: 10; fill: white; fill-rule: nonzero; opacity: 1;" transform=" matrix(1 0 0 1 0 0) " stroke-linecap="round" />
</g>
</svg>