<svg width="24" height="24" viewBox="0 0 24 24" fill="none" xmlns="http://www.w3.org/2000/svg">
<path opacity="0.966" fill-rule="evenodd" clip-rule="evenodd" d="M9.53906 2.50774C9.66502 2.50005 9.79003 2.50787 9.91406 2.53118C10.9037 2.90883 11.8881 3.29945 12.8672 3.70306C9.90928 4.86087 6.94837 6.00931 3.98438 7.14837C2.93255 6.77435 1.89349 6.36809 0.867188 5.92962C3.76574 4.79703 6.65634 3.6564 9.53906 2.50774Z" fill="white"/>
<path opacity="0.962" fill-rule="evenodd" clip-rule="evenodd" d="M15.9141 4.89844C16.8182 5.20505 17.7088 5.54883 18.5859 5.92969C15.6384 7.0987 12.6853 8.25492 9.72656 9.39844C8.8605 9.0668 8.00114 8.72306 7.14844 8.36719C10.0734 7.21008 12.9952 6.05386 15.9141 4.89844Z" fill="white"/>
<path opacity="0.984" fill-rule="evenodd" clip-rule="evenodd" d="M0.351581 6.49219C1.39193 6.89367 2.431 7.29994 3.46877 7.71094C3.47689 8.61281 3.50032 9.51127 3.53908 10.4062C4.03908 10.2812 4.53908 10.1563 5.03908 10.0312C5.51753 10.4629 6.00972 10.877 6.51564 11.2734C6.56974 10.4988 6.60878 9.71756 6.63283 8.92969C7.54581 9.29386 8.45988 9.65325 9.37502 10.0078C9.42171 13.4988 9.4061 16.9832 9.32814 20.4609C6.40296 19.3035 3.47326 18.1551 0.539081 17.0156C0.50002 16.9766 0.460955 16.9375 0.421893 16.8984C0.351875 13.4335 0.328437 9.96478 0.351581 6.49219Z" fill="white"/>
<path opacity="0.988" fill-rule="evenodd" clip-rule="evenodd" d="M19.0547 6.49219C19.1015 8.21859 19.1171 9.95297 19.1016 11.6953C16.7289 11.83 15.0804 12.9862 14.1563 15.1641C13.7311 16.401 13.7545 17.6275 14.2266 18.8438C12.8586 19.383 11.4914 19.9221 10.125 20.4609C10.0937 16.9766 10.0937 13.4922 10.125 10.0078C13.1073 8.83945 16.0839 7.66758 19.0547 6.49219Z" fill="white"/>
<path opacity="0.978" fill-rule="evenodd" clip-rule="evenodd" d="M18.7266 12.3986C20.5583 12.3494 21.9724 13.0838 22.9687 14.6017C23.9163 16.4177 23.7913 18.152 22.5937 19.8048C21.3022 21.23 19.7163 21.7222 17.8359 21.2814C15.9526 20.6637 14.8667 19.3746 14.5781 17.4142C14.4772 14.9696 15.5788 13.3524 17.8828 12.5626C18.1679 12.4924 18.4491 12.4377 18.7266 12.3986ZM21.1641 14.6954C21.738 14.7656 21.949 15.0781 21.7969 15.6329C20.6797 16.8126 19.5313 17.9611 18.3516 19.0782C18.1239 19.1818 17.9051 19.1662 17.6953 19.0314C17.154 18.3808 16.6306 17.7167 16.125 17.0392C16.0147 16.6735 16.1318 16.4 16.4766 16.2189C16.7628 16.1445 17.0049 16.2148 17.2031 16.4298C17.4826 16.8263 17.7873 17.2013 18.1172 17.5548C19.0306 16.6648 19.9369 15.7664 20.8359 14.8595C20.9496 14.8026 21.059 14.748 21.1641 14.6954Z" fill="white"/>
</svg>
