<svg width="24" height="24" viewBox="0 0 24 24" fill="none" xmlns="http://www.w3.org/2000/svg">
<g clip-path="url(#clip0_967_3306)">
<path opacity="0.979" fill-rule="evenodd" clip-rule="evenodd" d="M11.6953 -0.0234375C11.8828 -0.0234375 12.0703 -0.0234375 12.2578 -0.0234375C15.2112 0.825506 18.1643 1.68488 21.1172 2.55469C18.0735 3.42337 15.0267 4.28275 11.9766 5.13281C8.92073 4.28692 5.87386 3.41973 2.83594 2.53125C5.79572 1.68244 8.74884 0.830873 11.6953 -0.0234375Z" fill="white"/>
<path opacity="0.981" fill-rule="evenodd" clip-rule="evenodd" d="M-0.0234375 6.21094C-0.0234375 5.97656 -0.0234375 5.74219 -0.0234375 5.50781C0.437511 4.64898 0.945323 3.82086 1.5 3.02344C4.75509 3.94701 8.01291 4.86108 11.2734 5.76562C11.2979 5.79192 11.3135 5.82319 11.3203 5.85938C10.7718 6.79219 10.2172 7.72186 9.65625 8.64844C9.40584 8.96897 9.07772 9.14081 8.67188 9.16406C6.0172 8.46328 3.36876 7.73672 0.726562 6.98438C0.370002 6.82322 0.120001 6.56541 -0.0234375 6.21094Z" fill="white"/>
<path opacity="0.981" fill-rule="evenodd" clip-rule="evenodd" d="M23.9766 5.50781C23.9766 5.74219 23.9766 5.97656 23.9766 6.21094C23.8331 6.56541 23.5831 6.82322 23.2266 6.98438C20.5844 7.73672 17.9359 8.46328 15.2812 9.16406C14.8754 9.14081 14.5473 8.96897 14.2969 8.64844C13.7328 7.71703 13.1782 6.77953 12.6328 5.83594C12.6426 5.80847 12.6583 5.78503 12.6797 5.76562C15.9406 4.86248 19.1985 3.94844 22.4531 3.02344C23.0078 3.82086 23.5156 4.64898 23.9766 5.50781Z" fill="white"/>
<path opacity="0.978" fill-rule="evenodd" clip-rule="evenodd" d="M11.5078 7.05469C11.5546 8.26537 11.5702 9.48412 11.5547 10.7109C10.039 10.7031 8.52337 10.7109 7.00781 10.7344C6.1559 10.9145 5.67933 11.4379 5.57812 12.3047C5.5703 13.758 5.54686 15.2112 5.50781 16.6641C4.30703 16.3209 3.10391 15.9849 1.89844 15.6562C1.81039 15.5839 1.74008 15.498 1.6875 15.3984C1.64844 12.9608 1.65625 10.5233 1.71094 8.08594C3.91171 8.71036 6.11484 9.32756 8.32031 9.9375C9.11147 10.038 9.75989 9.78019 10.2656 9.16406C10.7044 8.47378 11.1185 7.77066 11.5078 7.05469Z" fill="white"/>
<path opacity="0.978" fill-rule="evenodd" clip-rule="evenodd" d="M12.3984 7.05469C12.8269 7.75481 13.2566 8.45794 13.6875 9.16406C14.3743 9.951 15.2102 10.1619 16.1953 9.79688C18.2126 9.23123 20.2282 8.66091 22.2422 8.08594C22.2578 9.30469 22.2735 10.5234 22.2891 11.7422C22.2965 12.9962 22.273 14.2462 22.2187 15.4922C22.142 15.6005 22.0404 15.6708 21.9141 15.7031C20.7535 16.0093 19.5973 16.3296 18.4453 16.6641C18.4063 15.2112 18.3828 13.758 18.375 12.3047C18.2738 11.4379 17.7972 10.9145 16.9453 10.7344C15.4297 10.7109 13.9141 10.7031 12.3984 10.7109C12.3984 9.49219 12.3984 8.27344 12.3984 7.05469Z" fill="white"/>
<path opacity="0.975" fill-rule="evenodd" clip-rule="evenodd" d="M16.9922 23.9766C13.6485 23.9766 10.3047 23.9766 6.96095 23.9766C6.84278 23.9054 6.72559 23.8272 6.60939 23.7422C6.53504 23.6405 6.47251 23.5311 6.42189 23.4141C6.39062 19.6485 6.39062 15.8828 6.42189 12.1172C6.54282 11.7716 6.78498 11.5763 7.14845 11.5313C10.3672 11.5 13.5859 11.5 16.8047 11.5313C17.1682 11.5763 17.4103 11.7716 17.5313 12.1172C17.5625 15.8828 17.5625 19.6485 17.5313 23.4141C17.4806 23.5311 17.4181 23.6405 17.3438 23.7422C17.2276 23.8272 17.1104 23.9054 16.9922 23.9766ZM9.6797 12.8672C10.1178 12.8593 10.2819 13.0624 10.1719 13.4766C9.69531 13.9532 9.21878 14.4297 8.7422 14.9063C8.61718 14.9375 8.49221 14.9375 8.3672 14.9063C8.10301 14.6816 7.88425 14.4238 7.71095 14.1328C7.74221 13.8828 7.88284 13.7422 8.13282 13.7109C8.27223 13.7338 8.38159 13.8041 8.46095 13.9219C8.50782 13.9532 8.5547 13.9532 8.60157 13.9219C8.95604 13.5595 9.31539 13.208 9.6797 12.8672ZM11.4609 13.7109C12.961 13.7031 14.461 13.7109 15.9609 13.7344C16.3154 13.9606 16.331 14.2106 16.0078 14.4844C14.4609 14.5157 12.9141 14.5157 11.3672 14.4844C11.0444 14.1804 11.0757 13.9225 11.4609 13.7109ZM9.6797 15.4453C10.1178 15.4374 10.2819 15.6406 10.1719 16.0547C9.71096 16.5156 9.25 16.9766 8.78907 17.4375C8.65473 17.5058 8.51411 17.5214 8.3672 17.4844C8.10301 17.2597 7.88425 17.0019 7.71095 16.7109C7.73987 16.4711 7.87271 16.3305 8.10939 16.2891C8.28911 16.3443 8.45317 16.4147 8.60157 16.5C8.95604 16.1377 9.31539 15.7861 9.6797 15.4453ZM11.4141 16.2891C12.9298 16.2812 14.4454 16.2891 15.9609 16.3125C16.3359 16.5625 16.3359 16.8125 15.9609 17.0625C14.4453 17.0938 12.9297 17.0938 11.4141 17.0625C11.044 16.8052 11.044 16.5474 11.4141 16.2891ZM9.6797 18.0234C10.1157 18.0137 10.2797 18.2168 10.1719 18.6328C9.71096 19.0937 9.25 19.5547 8.78907 20.0156C8.63284 20.1094 8.47656 20.1094 8.32032 20.0156C8.062 19.8048 7.85884 19.5548 7.71095 19.2656C7.75351 19.0277 7.89414 18.8949 8.13282 18.8672C8.30846 18.9139 8.4647 18.9842 8.60157 19.0781C8.95604 18.7158 9.31539 18.3642 9.6797 18.0234ZM11.4141 18.8672C12.9298 18.8594 14.4454 18.8672 15.9609 18.8906C16.3359 19.1406 16.3359 19.3907 15.9609 19.6406C14.4453 19.6719 12.9297 19.6719 11.4141 19.6406C11.044 19.3833 11.044 19.1255 11.4141 18.8672ZM9.63282 20.6016C10.1529 20.5661 10.317 20.7849 10.125 21.2578C9.6797 21.7031 9.23439 22.1484 8.78907 22.5938C8.63284 22.6875 8.47656 22.6875 8.32032 22.5938C8.062 22.3829 7.85884 22.1329 7.71095 21.8438C7.75351 21.6059 7.89414 21.473 8.13282 21.4453C8.30846 21.4921 8.4647 21.5624 8.60157 21.6563C8.95482 21.3109 9.29856 20.9593 9.63282 20.6016ZM11.3672 21.4453C12.9142 21.4375 14.461 21.4453 16.0078 21.4688C16.331 21.7426 16.3154 21.9926 15.9609 22.2188C14.4609 22.25 12.9609 22.25 11.4609 22.2188C11.0658 22.0087 11.0345 21.7509 11.3672 21.4453Z" fill="white"/>
</g>
<defs>
<clipPath id="clip0_967_3306">
<rect width="24" height="24" fill="white"/>
</clipPath>
</defs>
</svg>
