<svg width="24" height="24" viewBox="0 0 24 24" fill="none" xmlns="http://www.w3.org/2000/svg">
<g clip-path="url(#clip0_967_3068)">
<path opacity="0.945" fill-rule="evenodd" clip-rule="evenodd" d="M14.9766 0.773422C15.2426 0.765636 15.5083 0.77345 15.7734 0.79686C15.882 0.848863 15.9523 0.934799 15.9844 1.05467C16.0157 3.53905 16.0157 6.02342 15.9844 8.5078C15.9318 8.60736 15.8615 8.69328 15.7734 8.76561C15.5078 8.79688 15.2422 8.79688 14.9766 8.76561C14.8885 8.69328 14.8182 8.60736 14.7656 8.5078C14.7344 6.02342 14.7344 3.53905 14.7656 1.05467C14.8033 0.930646 14.8736 0.836896 14.9766 0.773422Z" fill="white"/>
<path opacity="0.973" fill-rule="evenodd" clip-rule="evenodd" d="M13.8984 1.80469C13.9609 2.78075 13.9922 3.77294 13.9922 4.78125C13.9766 5.77345 13.9609 6.76561 13.9453 7.75781C13.1599 7.34559 12.3709 6.93933 11.5781 6.53906C11.5391 5.35125 11.5469 4.16376 11.6015 2.97656C12.3773 2.59651 13.143 2.20589 13.8984 1.80469Z" fill="white"/>
<path opacity="0.977" fill-rule="evenodd" clip-rule="evenodd" d="M7.8047 3.16406C8.80468 3.16406 9.80471 3.16406 10.8047 3.16406C10.8047 4.24219 10.8047 5.32031 10.8047 6.39844C9.80457 6.40627 8.80459 6.39844 7.8047 6.375C7.73762 6.3532 7.68296 6.31411 7.64063 6.25781C7.56362 5.30888 7.54801 4.35575 7.59376 3.39844C7.6418 3.29592 7.71212 3.2178 7.8047 3.16406Z" fill="white"/>
<path opacity="0.906" fill-rule="evenodd" clip-rule="evenodd" d="M16.7578 3.63281C17.2944 3.82158 17.5756 4.20439 17.6015 4.78125C17.5658 5.32463 17.3002 5.70741 16.8047 5.92969C16.7578 5.16469 16.7422 4.39907 16.7578 3.63281Z" fill="white"/>
<path opacity="0.91" fill-rule="evenodd" clip-rule="evenodd" d="M6.21095 3.96094C6.41406 3.96094 6.61721 3.96094 6.82032 3.96094C6.82032 4.50781 6.82032 5.05467 6.82032 5.60156C6.58131 5.6168 6.34693 5.59336 6.1172 5.53125C6.0609 5.48892 6.02181 5.43427 6.00001 5.36719C5.96875 4.97658 5.96875 4.58594 6.00001 4.19531C6.04806 4.0928 6.11837 4.01467 6.21095 3.96094Z" fill="white"/>
<path opacity="0.953" fill-rule="evenodd" clip-rule="evenodd" d="M8.36719 7.14844C8.77346 7.14844 9.17968 7.14844 9.58594 7.14844C9.59377 7.758 9.58594 8.36738 9.56251 8.97656C9.4178 9.17775 9.22248 9.25584 8.97657 9.21094C8.73066 9.25584 8.53533 9.17775 8.39063 8.97656C8.36719 8.36738 8.35937 7.758 8.36719 7.14844Z" fill="white"/>
<path opacity="0.882" fill-rule="evenodd" clip-rule="evenodd" d="M10.3359 7.14842C10.602 7.14064 10.8676 7.14846 11.1328 7.17186C11.311 7.86101 11.0453 8.13443 10.3359 7.99217C10.3359 7.71092 10.3359 7.42967 10.3359 7.14842Z" fill="white"/>
<path opacity="0.98" fill-rule="evenodd" clip-rule="evenodd" d="M3.39844 11.5547C5.99222 11.5469 8.586 11.5547 11.1797 11.5781C10.3737 12.5575 9.58463 13.5497 8.8125 14.5547C8.74017 14.6427 8.65425 14.713 8.55469 14.7656C5.96081 14.8047 3.36705 14.7969 0.773438 14.7422C1.58705 13.7333 2.39174 12.7177 3.1875 11.6953C3.26492 11.6532 3.33523 11.6063 3.39844 11.5547Z" fill="white"/>
<path opacity="0.98" fill-rule="evenodd" clip-rule="evenodd" d="M12.7734 11.6015C15.3593 11.5469 17.953 11.5391 20.5547 11.5781C20.6288 11.6112 20.6991 11.6503 20.7656 11.6953C21.5614 12.7177 22.3661 13.7332 23.1797 14.7421C20.5861 14.7968 17.9923 14.8046 15.3984 14.7656C15.2989 14.713 15.213 14.6427 15.1406 14.5546C14.3732 13.5499 13.5841 12.5655 12.7734 11.6015Z" fill="white"/>
<path opacity="0.978" fill-rule="evenodd" clip-rule="evenodd" d="M11.5078 12.3047C11.6014 15.9137 11.6327 19.5387 11.6016 23.1797C8.99213 23.1875 6.38278 23.1797 3.77344 23.1562C3.66909 23.0987 3.59878 23.0128 3.5625 22.8984C3.53906 20.4454 3.53125 17.9922 3.53906 15.5391C5.24227 15.5469 6.94538 15.5391 8.64844 15.5156C8.96892 15.4301 9.22674 15.2504 9.42188 14.9766C10.1284 14.0909 10.8237 13.2003 11.5078 12.3047ZM5.41406 19.1953C6.32044 19.1875 7.22672 19.1953 8.13281 19.2188C8.43141 19.2861 8.62674 19.4657 8.71875 19.7578C8.75002 20.3047 8.75002 20.8515 8.71875 21.3984C8.62674 21.6905 8.43141 21.8702 8.13281 21.9375C7.22658 21.9688 6.3203 21.9688 5.41406 21.9375C5.12499 21.8359 4.9297 21.6406 4.82813 21.3516C4.79686 20.8359 4.79686 20.3203 4.82813 19.8047C4.90697 19.4837 5.1023 19.2806 5.41406 19.1953Z" fill="white"/>
<path opacity="0.986" fill-rule="evenodd" clip-rule="evenodd" d="M12.3516 12.3047C13.0997 13.1708 13.8263 14.0614 14.5312 14.9766C14.6991 15.1759 14.8944 15.3399 15.1172 15.4688C16.8805 15.5379 18.6462 15.5613 20.4141 15.5391C20.4219 17.9922 20.4141 20.4454 20.3906 22.8984C20.338 22.998 20.2677 23.0839 20.1797 23.1562C17.5703 23.1797 14.961 23.1875 12.3516 23.1797C12.3516 19.5547 12.3516 15.9297 12.3516 12.3047Z" fill="white"/>
<path opacity="0.934" fill-rule="evenodd" clip-rule="evenodd" d="M5.55469 19.9453C6.36717 19.9453 7.1797 19.9453 7.99219 19.9453C7.99219 20.3672 7.99219 20.7891 7.99219 21.2109C7.1797 21.2109 6.36717 21.2109 5.55469 21.2109C5.55469 20.7891 5.55469 20.3672 5.55469 19.9453Z" fill="white"/>
</g>
<defs>
<clipPath id="clip0_967_3068">
<rect width="24" height="24" fill="white"/>
</clipPath>
</defs>
</svg>
