<svg width="24" height="24" viewBox="0 0 24 24" fill="none" xmlns="http://www.w3.org/2000/svg">
<g clip-path="url(#clip0_185_7632)">
<mask id="mask0_185_7632" style="mask-type:alpha" maskUnits="userSpaceOnUse" x="-1" y="-1" width="25" height="25">
<rect x="-0.151367" y="-0.269329" width="24" height="24" fill="#D9D9D9"/>
</mask>
<g mask="url(#mask0_185_7632)">
<path d="M2.84863 19.7307V8.43067C2.5653 8.24734 2.3278 8.014 2.13613 7.73067C1.94447 7.44734 1.84863 7.114 1.84863 6.73067V3.73067C1.84863 3.18067 2.04447 2.70984 2.43613 2.31817C2.8278 1.9265 3.29863 1.73067 3.84863 1.73067H19.8486C20.3986 1.73067 20.8695 1.9265 21.2611 2.31817C21.6528 2.70984 21.8486 3.18067 21.8486 3.73067V6.73067C21.8486 7.114 21.7528 7.44734 21.5611 7.73067C21.3695 8.014 21.132 8.24734 20.8486 8.43067V19.7307C20.8486 20.2807 20.6528 20.7515 20.2611 21.1432C19.8695 21.5348 19.3986 21.7307 18.8486 21.7307H4.84863C4.29863 21.7307 3.8278 21.5348 3.43613 21.1432C3.04447 20.7515 2.84863 20.2807 2.84863 19.7307ZM19.8486 6.73067V3.73067H3.84863V6.73067H19.8486ZM8.84863 13.7307H14.8486V11.7307H8.84863V13.7307Z" fill="white"/>
</g>
</g>
<defs>
<clipPath id="clip0_185_7632">
<rect width="24" height="24" fill="white"/>
</clipPath>
</defs>
</svg>
