<svg width="24" height="24" viewBox="0 0 24 24" fill="none" xmlns="http://www.w3.org/2000/svg">
<path opacity="0.965" fill-rule="evenodd" clip-rule="evenodd" d="M10.9922 1.47647C14.5191 1.24788 17.48 2.41976 19.875 4.99209C22.2664 7.86933 23.0164 11.1349 22.125 14.789C21.876 15.6227 21.5557 16.4274 21.1641 17.203C21.1699 17.2793 21.1934 17.3496 21.2344 17.414C21.3828 17.5312 21.5312 17.6483 21.6797 17.7655C20.8786 18.0403 20.0662 18.2825 19.2422 18.4921C19.2266 17.6478 19.2422 16.804 19.2891 15.9608C19.4471 16.1056 19.6189 16.1446 19.8047 16.078C19.9356 15.9336 20.0372 15.7695 20.1094 15.5858C21.4187 12.3145 21.0281 9.26761 18.9375 6.44522C16.6041 3.71923 13.6588 2.66454 10.1016 3.28116C9.07889 3.50732 8.12578 3.89795 7.24219 4.45303C7.19531 4.48428 7.14844 4.48428 7.10156 4.45303C6.82031 4.01553 6.53906 3.57803 6.25781 3.14053C7.7062 2.20727 9.2843 1.65258 10.9922 1.47647Z" fill="black"/>
<path opacity="0.961" fill-rule="evenodd" clip-rule="evenodd" d="M4.5703 5.46094C4.61717 5.46094 4.66405 5.46094 4.71092 5.46094C4.72653 6.30525 4.71092 7.149 4.66405 7.99219C4.5136 7.86459 4.34172 7.8255 4.14842 7.875C4.01749 8.01942 3.91594 8.18348 3.84373 8.36719C2.57744 11.5167 2.90556 14.4855 4.82811 17.2734C5.02016 17.5166 5.22327 17.751 5.43748 17.9766C5.47419 18.0618 5.45075 18.1243 5.36717 18.1641C4.75302 17.8397 4.1124 17.5897 3.4453 17.4141C3.31075 17.4432 3.17794 17.4745 3.04686 17.5078C1.53717 15.0346 1.09967 12.3784 1.73436 9.53906C1.97517 8.56655 2.32673 7.63683 2.78905 6.75C2.78318 6.67373 2.75975 6.60342 2.71873 6.53906C2.56226 6.4215 2.41382 6.29648 2.27342 6.16406C3.04623 5.93597 3.81185 5.70159 4.5703 5.46094Z" fill="black"/>
<path opacity="0.979" fill-rule="evenodd" clip-rule="evenodd" d="M10.0078 5.60156C11.3207 5.58595 12.6332 5.60156 13.9453 5.64843C13.6469 6.14235 13.3578 6.64237 13.0781 7.14843C13.0427 7.27982 13.0583 7.40484 13.125 7.52343C14.3858 7.90373 15.3858 8.63812 16.125 9.72656C16.4986 10.3317 16.733 10.988 16.8281 11.6953C16.8594 13.4766 16.8594 15.2578 16.8281 17.0391C15.1561 16.3175 13.5077 16.3721 11.8828 17.2031C10.8032 17.2067 9.72506 17.2379 8.64844 17.2969C8.0625 17.4453 7.69533 17.8125 7.54688 18.3984C7.52761 18.6611 7.51983 18.9111 7.52344 19.1484C7.029 18.909 6.52903 18.6824 6.02344 18.4687C6.32662 18.1186 6.64697 17.7827 6.98438 17.4609C7.02478 17.3865 7.05605 17.3084 7.07812 17.2266C7.09373 15.3672 7.10939 13.5078 7.125 11.6484C7.52747 9.57402 8.73844 8.22243 10.7578 7.59374C10.8841 7.46938 10.9231 7.32093 10.875 7.14843C10.5739 6.63721 10.2848 6.12159 10.0078 5.60156ZM10.1016 8.69531C10.1426 8.68917 10.1739 8.70477 10.1953 8.74218C10.2831 8.92556 10.3768 9.10523 10.4766 9.28124C10.3047 9.38282 10.1328 9.48435 9.96094 9.58593C9.80977 9.44249 9.68475 9.27843 9.58594 9.09374C9.59808 9.03463 9.62934 8.98776 9.67969 8.95312C9.82331 8.86598 9.96394 8.78006 10.1016 8.69531ZM11.6016 9.35156C11.8515 9.35156 12.1016 9.35156 12.3516 9.35156C12.3516 9.6172 12.3516 9.88279 12.3516 10.1484C13.2578 10.2109 13.7422 10.6953 13.8047 11.6016C13.5703 11.6016 13.3359 11.6016 13.1016 11.6016C13.086 11.1172 12.8359 10.8672 12.3516 10.8516C12.3516 11.3672 12.3516 11.8828 12.3516 12.3984C13.2576 12.4607 13.742 12.9451 13.8047 13.8516C13.742 14.758 13.2576 15.2424 12.3516 15.3047C12.3516 15.5703 12.3516 15.8359 12.3516 16.1016C12.1016 16.1016 11.8515 16.1016 11.6016 16.1016C11.6016 15.8359 11.6016 15.5703 11.6016 15.3047C10.6953 15.2422 10.2109 14.7578 10.1484 13.8516C10.3828 13.8516 10.6172 13.8516 10.8516 13.8516C10.8672 14.3359 11.1172 14.5859 11.6016 14.6016C11.6016 14.0859 11.6016 13.5703 11.6016 13.0547C10.6956 12.9924 10.2112 12.508 10.1484 11.6016C10.2112 10.6951 10.6956 10.2107 11.6016 10.1484C11.6016 9.88279 11.6016 9.6172 11.6016 9.35156ZM8.88281 9.63281C9.08302 9.75473 9.25486 9.91096 9.39844 10.1016C8.77434 10.8647 8.50875 11.7396 8.60156 12.7266C8.35158 12.7266 8.10155 12.7266 7.85156 12.7266C7.81266 11.562 8.15639 10.5308 8.88281 9.63281Z" fill="black"/>
<path opacity="0.938" fill-rule="evenodd" clip-rule="evenodd" d="M11.3203 10.8516C11.414 10.8516 11.5078 10.8516 11.6015 10.8516C11.6015 11.3516 11.6015 11.8515 11.6015 12.3516C10.9818 12.286 10.7396 11.9422 10.875 11.3203C10.9698 11.1084 11.1182 10.9522 11.3203 10.8516Z" fill="black"/>
<path opacity="0.937" fill-rule="evenodd" clip-rule="evenodd" d="M12.3516 13.1016C12.8357 13.1169 13.0857 13.3669 13.1016 13.8516C13.0857 14.3362 12.8357 14.5862 12.3516 14.6016C12.3516 14.1015 12.3516 13.6016 12.3516 13.1016Z" fill="black"/>
<path opacity="0.988" fill-rule="evenodd" clip-rule="evenodd" d="M14.2266 17.2265C15.1441 17.1906 16.0113 17.3781 16.8281 17.789C16.8516 19.3514 16.8594 20.9139 16.8516 22.4765C14.1328 22.4843 11.414 22.4765 8.69531 22.4531C8.21845 22.3879 7.76531 22.2472 7.33593 22.0312C5.84081 21.289 4.35645 20.539 2.88281 19.7812C2.61551 19.4791 2.52957 19.1275 2.625 18.7265C2.84548 18.225 3.22829 18.0453 3.77343 18.1874C5.25225 18.8721 6.73664 19.5441 8.22656 20.2031C9.60145 20.2265 10.9765 20.2343 12.3516 20.2265C12.3516 19.9765 12.3516 19.7265 12.3516 19.4765C11.1327 19.4843 9.91397 19.4765 8.69531 19.4531C8.27428 19.2434 8.12582 18.9074 8.25 18.4453C8.33592 18.2343 8.48437 18.0859 8.69531 17.9999C9.74217 17.9843 10.7891 17.9687 11.8359 17.9531C12.2105 17.7971 12.5855 17.6408 12.9609 17.4843C13.3826 17.3641 13.8045 17.2781 14.2266 17.2265Z" fill="black"/>
<path opacity="0.978" fill-rule="evenodd" clip-rule="evenodd" d="M17.6016 17.9766C17.9141 17.9766 18.2265 17.9766 18.5391 17.9766C18.5313 18.3519 18.5391 18.7269 18.5625 19.1016C18.6307 19.2183 18.7323 19.2964 18.8672 19.3359C19.6939 19.0942 20.522 18.8598 21.3516 18.6328C21.3516 19.914 21.3516 21.1953 21.3516 22.4766C20.1015 22.4766 18.8516 22.4766 17.6016 22.4766C17.6016 20.9766 17.6016 19.4766 17.6016 17.9766ZM18.8672 20.2734C19.6765 20.262 19.9499 20.637 19.6875 21.3984C19.3945 21.7036 19.0585 21.7583 18.6797 21.5625C18.3745 21.2695 18.3198 20.9335 18.5156 20.5547C18.6147 20.4318 18.7319 20.3381 18.8672 20.2734Z" fill="black"/>
</svg>
