<svg id="Layer_1" data-name="Layer 1" xmlns="http://www.w3.org/2000/svg" viewBox="0 0 333.41 332.65"><defs><style>.cls-1{fill:#0baf36;}.cls-2{fill:#fff;}</style></defs><path class="cls-1" d="M159.76,462.87c.66-2.13,1.24-7.41,3.75-11.49,8.68-14.1,3.69-22.92-8.5-32.33-21.37-16.51-21.23-30.13.51-46.42,12-9,14.32-17.1,8.41-31.13-10.73-25.45-3.45-37.12,24.06-40.88,13.6-1.85,20.24-7.25,22.41-21.79,4.43-29.74,15.08-35.4,43-24,11.53,4.72,18.53,3.5,26.62-6.59,19.85-24.79,32.58-24.73,51.84.14,7.54,9.74,14.14,11.18,25.22,6.81,30.09-11.84,39.26-6.66,44.71,25.13,2.05,11.94,6.63,17.21,19.35,19.37,32.66,5.53,37.37,14.75,25.12,46-3.93,10-3.26,16.93,6.06,22.78,3.77,2.36,7.06,5.57,10.31,8.66,13,12.4,13.11,25.18.23,37.46-2.89,2.75-5.83,5.67-9.27,7.57-11.17,6.14-11.84,14.51-6.61,25,12.84,25.78,3.16,44.53-25.44,45.1-12.65.25-17.29,6.65-19.46,19-5.77,32.7-14.66,37.35-46,24.93-10.16-4-16.87-3-22.73,6.2a69.61,69.61,0,0,1-9.69,11.4c-11.45,11.42-24.11,11.37-35.45-.1a55,55,0,0,1-8.59-10.36c-5.91-10-13.54-12.08-23.75-6.78a62.67,62.67,0,0,1-12.58,4.77c-17.25,4.61-29-3.53-32.49-21.21-6-30.27,2.08-22.8-29.37-29.06C166.52,488.11,158.93,479.62,159.76,462.87ZM286,455.2c6.35-3.11,17.08-5.09,22.45-11.53,25.51-30.6,49.9-62.17,73.63-94.18,2.58-3.47.26-13.77-3.33-17.52-2.43-2.54-11.51-.25-16.75,1.95-3.65,1.53-5.91,6.5-8.67,10-19,24.39-38.12,48.66-56.78,73.3-7.67,10.13-15.48,11.14-25.3,3.45-7.84-6.13-15.54-12.83-24.33-17.19-4.13-2-12.11-.92-15.72,2-3,2.39-4.57,12.15-2.45,14.22C244.28,434.93,259.86,450.66,286,455.2Z" transform="translate(-139.1 -229.72)"/><path class="cls-2" d="M286,455.2c-26.14-4.54-41.72-20.27-57.25-35.45-2.12-2.07-.52-11.83,2.45-14.22,3.61-2.93,11.59-4.06,15.72-2,8.79,4.36,16.49,11.06,24.33,17.19,9.82,7.69,17.63,6.68,25.3-3.45,18.66-24.64,37.8-48.91,56.78-73.3,2.76-3.54,5-8.51,8.67-10,5.24-2.2,14.32-4.49,16.75-1.95,3.59,3.75,5.91,14,3.33,17.52-23.73,32-48.12,63.58-73.63,94.18C303.08,450.11,292.35,452.09,286,455.2Z" transform="translate(-139.1 -229.72)"/></svg>