<svg width="24" height="24" viewBox="0 0 24 24" fill="none" xmlns="http://www.w3.org/2000/svg">
<path opacity="0.969" fill-rule="evenodd" clip-rule="evenodd" d="M11.7891 3.16406C15.3175 3.25149 17.9035 4.84523 19.5469 7.94531C19.7376 8.35345 19.886 8.77533 19.9922 9.21094C20.8228 9.18483 21.4713 9.51295 21.9375 10.1953C22.8271 11.8238 22.8427 13.4644 21.9844 15.1172C21.6748 15.6455 21.2451 16.044 20.6953 16.3125C20.1118 16.484 19.5415 16.4449 18.9844 16.1953C17.8375 17.8588 16.2984 18.9916 14.3672 19.5938C14.2445 19.6323 14.1195 19.6557 13.9922 19.6641C14.0435 20.1477 13.856 20.4992 13.4297 20.7188C12.5411 20.7938 11.6505 20.8095 10.7578 20.7656C10.3338 20.701 10.076 20.4588 9.98439 20.0391C9.92388 19.6636 9.97075 19.3043 10.125 18.9609C10.2311 18.8235 10.364 18.7219 10.5235 18.6563C12.2966 18.827 13.9685 18.4988 15.5391 17.6719C16.9869 16.802 18.0103 15.5754 18.6094 13.9922C18.7491 13.0452 18.8976 12.0998 19.0547 11.1563C18.7666 8.37 17.376 6.35438 14.8828 5.10938C11.921 3.95182 9.27255 4.44401 6.93752 6.58594C5.72913 7.85775 5.04944 9.37336 4.89845 11.1328C5.1302 12.5675 5.34897 14.005 5.5547 15.4453C5.54467 15.7865 5.38844 16.0286 5.08595 16.1719C3.73633 16.7272 2.69727 16.3756 1.96877 15.1172C1.19115 13.6065 1.14428 12.0753 1.82814 10.5234C2.30214 9.6968 3.01308 9.25927 3.96095 9.21094C4.61723 6.98405 5.96097 5.30433 7.9922 4.17188C9.19103 3.56095 10.4567 3.22501 11.7891 3.16406ZM8.9297 10.4766C9.75555 10.5288 10.1383 10.9663 10.0781 11.7891C9.75156 12.5968 9.19689 12.8078 8.41408 12.4219C7.93834 11.971 7.86803 11.4632 8.20314 10.8984C8.40349 10.6774 8.64569 10.5368 8.9297 10.4766ZM11.8828 10.4766C12.8187 10.5991 13.1703 11.1148 12.9375 12.0234C12.4709 12.7039 11.9006 12.8054 11.2266 12.3281C10.7594 11.7397 10.8063 11.1929 11.3672 10.6875C11.5338 10.5881 11.7056 10.5178 11.8828 10.4766ZM14.7891 10.4766C15.6402 10.5383 16.023 10.9914 15.9375 11.8359C15.682 12.4676 15.221 12.7098 14.5547 12.5625C13.8125 12.1483 13.6641 11.578 14.1094 10.8516C14.3025 10.6575 14.529 10.5325 14.7891 10.4766Z" fill="white"/>
<g opacity="0.969">
<path d="M10.0782 11.7891C10.1384 10.9663 9.75557 10.5288 8.92973 10.4766C8.64571 10.5368 8.40351 10.6774 8.20317 10.8984C7.86806 11.4632 7.93837 11.971 8.4141 12.4219C9.19692 12.8077 9.75159 12.5968 10.0782 11.7891Z" fill="#02468B"/>
<path d="M12.9375 12.0234C13.1703 11.1148 12.8188 10.5991 11.8829 10.4766C11.7057 10.5178 11.5338 10.5881 11.3672 10.6875C10.8063 11.1929 10.7594 11.7397 11.2266 12.3281C11.9006 12.8054 12.4709 12.7039 12.9375 12.0234Z" fill="#02468B"/>
<path d="M15.9375 11.8359C16.023 10.9914 15.6402 10.5383 14.7891 10.4766C14.529 10.5325 14.3025 10.6575 14.1094 10.8516C13.6641 11.578 13.8126 12.1483 14.5547 12.5625C15.2211 12.7098 15.682 12.4676 15.9375 11.8359Z" fill="#02468B"/>
</g>
<path opacity="0.983" fill-rule="evenodd" clip-rule="evenodd" d="M11.9297 5.74219C14.6487 5.84569 16.5003 7.15819 17.4844 9.67969C18.2151 12.2982 17.5511 14.4779 15.4922 16.2188C13.6682 17.4504 11.7229 17.677 9.65627 16.8984C9.10675 17.1693 8.56769 17.4583 8.03908 17.7656C7.61528 17.8576 7.39657 17.6858 7.38283 17.25C7.48413 16.6809 7.60914 16.1184 7.75783 15.5625C6.49816 14.1894 5.99036 12.5722 6.23439 10.7109C6.64436 8.33208 7.99591 6.76177 10.2891 6C10.8343 5.85858 11.3812 5.77266 11.9297 5.74219ZM8.92971 10.4766C8.64569 10.5368 8.40349 10.6774 8.20314 10.8984C7.86803 11.4632 7.93835 11.971 8.41408 12.4219C9.19689 12.8078 9.75157 12.5968 10.0781 11.7891C10.1383 10.9663 9.75555 10.5288 8.92971 10.4766ZM11.8828 10.4766C11.7056 10.5178 11.5338 10.5881 11.3672 10.6875C10.8063 11.1929 10.7594 11.7397 11.2266 12.3281C11.9006 12.8054 12.4709 12.7039 12.9375 12.0234C13.1703 11.1148 12.8187 10.5991 11.8828 10.4766ZM14.7891 10.4766C14.529 10.5325 14.3025 10.6575 14.1094 10.8516C13.6641 11.578 13.8125 12.1483 14.5547 12.5625C15.221 12.7098 15.682 12.4676 15.9375 11.8359C16.023 10.9914 15.6402 10.5383 14.7891 10.4766Z" fill="white"/>
</svg>
