<svg width="63" height="63" viewBox="0 0 63 63" fill="none" xmlns="http://www.w3.org/2000/svg">
<circle cx="31.5" cy="31.5" r="31.5" fill="white"/>
<mask id="mask0_284_7448" style="mask-type:alpha" maskUnits="userSpaceOnUse" x="14" y="14" width="34" height="34">
<rect x="14" y="14" width="34" height="34" fill="#D9D9D9"/>
</mask>
<g mask="url(#mask0_284_7448)">
<mask id="mask1_284_7448" style="mask-type:alpha" maskUnits="userSpaceOnUse" x="12" y="12" width="38" height="38">
<rect x="12" y="12" width="38" height="38" fill="#D9D9D9"/>
</mask>
<g mask="url(#mask1_284_7448)">
<path d="M31 46.8333C28.8097 46.8333 26.7514 46.4177 24.825 45.5864C22.8986 44.7552 21.2229 43.627 19.7979 42.202C18.3729 40.777 17.2448 39.1013 16.4135 37.175C15.5823 35.2486 15.1667 33.1902 15.1667 31C15.1667 28.8097 15.5823 26.7513 16.4135 24.825C17.2448 22.8986 18.3729 21.2229 19.7979 19.7979C21.2229 18.3729 22.8986 17.2448 24.825 16.4135C26.7514 15.5823 28.8097 15.1666 31 15.1666C33.1903 15.1666 35.2486 15.5823 37.175 16.4135C39.1014 17.2448 40.7771 18.3729 42.2021 19.7979C43.6271 21.2229 44.7552 22.8986 45.5864 24.825C46.4177 26.7513 46.8333 28.8097 46.8333 31C46.8333 33.1902 46.4177 35.2486 45.5864 37.175C44.7552 39.1013 43.6271 40.777 42.2021 42.202C40.7771 43.627 39.1014 44.7552 37.175 45.5864C35.2486 46.4177 33.1903 46.8333 31 46.8333ZM22.0146 39.9854L31 31V18.3333C27.4639 18.3333 24.4687 19.5604 22.0146 22.0145C19.5604 24.4687 18.3333 27.4638 18.3333 31C18.3333 32.6888 18.65 34.3118 19.2833 35.8687C19.9167 37.4257 20.8271 38.7979 22.0146 39.9854Z" fill="#1C1B1F"/>
</g>
</g>
</svg>
