<svg width="24" height="24" viewBox="0 0 24 24" fill="none" xmlns="http://www.w3.org/2000/svg">
<g clip-path="url(#clip0_193_7703)">
<mask id="mask0_193_7703" style="mask-type:alpha" maskUnits="userSpaceOnUse" x="0" y="0" width="24" height="24">
<rect width="24" height="24" fill="#D9D9D9"/>
</mask>
<g mask="url(#mask0_193_7703)">
<path d="M12 22C10.6333 22 9.34167 21.7375 8.125 21.2125C6.90833 20.6875 5.84583 19.9708 4.9375 19.0625C4.02917 18.1542 3.3125 17.0917 2.7875 15.875C2.2625 14.6583 2 13.3667 2 12C2 10.6167 2.27083 9.31667 2.8125 8.1C3.35417 6.88333 4.0875 5.825 5.0125 4.925C5.9375 4.025 7.01667 3.3125 8.25 2.7875C9.48333 2.2625 10.8 2 12.2 2C13.5333 2 14.7917 2.22917 15.975 2.6875C17.1583 3.14583 18.1958 3.77917 19.0875 4.5875C19.9792 5.39583 20.6875 6.35417 21.2125 7.4625C21.7375 8.57083 22 9.76667 22 11.05C22 12.9667 21.4167 14.4375 20.25 15.4625C19.0833 16.4875 17.6667 17 16 17H14.15C14 17 13.8958 17.0417 13.8375 17.125C13.7792 17.2083 13.75 17.3 13.75 17.4C13.75 17.6 13.875 17.8875 14.125 18.2625C14.375 18.6375 14.5 19.0667 14.5 19.55C14.5 20.3833 14.2708 21 13.8125 21.4C13.3542 21.8 12.75 22 12 22ZM6.5 13C6.93333 13 7.29167 12.8583 7.575 12.575C7.85833 12.2917 8 11.9333 8 11.5C8 11.0667 7.85833 10.7083 7.575 10.425C7.29167 10.1417 6.93333 10 6.5 10C6.06667 10 5.70833 10.1417 5.425 10.425C5.14167 10.7083 5 11.0667 5 11.5C5 11.9333 5.14167 12.2917 5.425 12.575C5.70833 12.8583 6.06667 13 6.5 13ZM9.5 9C9.93333 9 10.2917 8.85833 10.575 8.575C10.8583 8.29167 11 7.93333 11 7.5C11 7.06667 10.8583 6.70833 10.575 6.425C10.2917 6.14167 9.93333 6 9.5 6C9.06667 6 8.70833 6.14167 8.425 6.425C8.14167 6.70833 8 7.06667 8 7.5C8 7.93333 8.14167 8.29167 8.425 8.575C8.70833 8.85833 9.06667 9 9.5 9ZM14.5 9C14.9333 9 15.2917 8.85833 15.575 8.575C15.8583 8.29167 16 7.93333 16 7.5C16 7.06667 15.8583 6.70833 15.575 6.425C15.2917 6.14167 14.9333 6 14.5 6C14.0667 6 13.7083 6.14167 13.425 6.425C13.1417 6.70833 13 7.06667 13 7.5C13 7.93333 13.1417 8.29167 13.425 8.575C13.7083 8.85833 14.0667 9 14.5 9ZM17.5 13C17.9333 13 18.2917 12.8583 18.575 12.575C18.8583 12.2917 19 11.9333 19 11.5C19 11.0667 18.8583 10.7083 18.575 10.425C18.2917 10.1417 17.9333 10 17.5 10C17.0667 10 16.7083 10.1417 16.425 10.425C16.1417 10.7083 16 11.0667 16 11.5C16 11.9333 16.1417 12.2917 16.425 12.575C16.7083 12.8583 17.0667 13 17.5 13Z" fill="white"/>
<path d="M11.1791 16L11.0597 15.04C10.995 15.015 10.9341 14.985 10.8769 14.95C10.8197 14.915 10.7637 14.8775 10.709 14.8375L9.8209 15.2125L9 13.7875L9.76866 13.2025C9.76368 13.1675 9.76119 13.1338 9.76119 13.1013V12.8988C9.76119 12.8663 9.76368 12.8325 9.76866 12.7975L9 12.2125L9.8209 10.7875L10.709 11.1625C10.7637 11.1225 10.8209 11.085 10.8806 11.05C10.9403 11.015 11 10.985 11.0597 10.96L11.1791 10H12.8209L12.9403 10.96C13.005 10.985 13.0659 11.015 13.1231 11.05C13.1803 11.085 13.2363 11.1225 13.291 11.1625L14.1791 10.7875L15 12.2125L14.2313 12.7975C14.2363 12.8325 14.2388 12.8663 14.2388 12.8988V13.1013C14.2388 13.1338 14.2338 13.1675 14.2239 13.2025L14.9925 13.7875L14.1716 15.2125L13.291 14.8375C13.2363 14.8775 13.1791 14.915 13.1194 14.95C13.0597 14.985 13 15.015 12.9403 15.04L12.8209 16H11.1791ZM12.0149 14.05C12.3035 14.05 12.5498 13.9475 12.7537 13.7425C12.9577 13.5375 13.0597 13.29 13.0597 13C13.0597 12.71 12.9577 12.4625 12.7537 12.2575C12.5498 12.0525 12.3035 11.95 12.0149 11.95C11.7214 11.95 11.4739 12.0525 11.2724 12.2575C11.0709 12.4625 10.9701 12.71 10.9701 13C10.9701 13.29 11.0709 13.5375 11.2724 13.7425C11.4739 13.9475 11.7214 14.05 12.0149 14.05Z" fill="black"/>
</g>
</g>
<defs>
<clipPath id="clip0_193_7703">
<rect width="24" height="24" fill="white"/>
</clipPath>
</defs>
</svg>
