<svg width="24" height="24" viewBox="0 0 24 24" fill="none" xmlns="http://www.w3.org/2000/svg">
<path d="M9.87571 1.27452L9.65751 0.998876L9.46877 1.29547C9.11203 1.85607 8.7528 2.41832 8.39113 2.98222L8.2033 3.27507L8.54077 3.35968C8.69054 3.39723 8.84235 3.42177 8.99605 3.43327C9.02579 3.45226 9.05358 3.47378 9.07954 3.498C9.10187 5.05807 9.10923 6.61822 9.10157 8.17846L9.10033 8.42969H9.35156H9.35303H9.35449H9.35596H9.35742H9.35889H9.36035H9.36182H9.36328H9.36475H9.36621H9.36767H9.36914H9.3706H9.37207H9.37353H9.375H9.37646H9.37793H9.37939H9.38086H9.38232H9.38379H9.38525H9.38672H9.38818H9.38965H9.39111H9.39258H9.39404H9.39551H9.39697H9.39844H9.3999H9.40136H9.40283H9.40429H9.40576H9.40722H9.40869H9.41015H9.41162H9.41308H9.41455H9.41601H9.41748H9.41894H9.42041H9.42187H9.42334H9.4248H9.42627H9.42773H9.4292H9.43066H9.43213H9.43359H9.43506H9.43652H9.43798H9.43945H9.44091H9.44238H9.44384H9.44531H9.44677H9.44824H9.4497H9.45117H9.45263H9.4541H9.45556H9.45703H9.45849H9.45996H9.46142H9.46289H9.46435H9.46582H9.46728H9.46875H9.47021H9.47168H9.47314H9.47461H9.47607H9.47753H9.479H9.48046H9.48193H9.48339H9.48486H9.48632H9.48779H9.48925H9.49072H9.49218H9.49365H9.49511H9.49658H9.49804H9.49951H9.50097H9.50244H9.5039H9.50537H9.50683H9.5083H9.50976H9.51123H9.51269H9.51416H9.51562H9.51709H9.51855H9.52002H9.52148H9.52294H9.52441H9.52587H9.52734H9.5288H9.53027H9.53173H9.5332H9.53466H9.53613H9.53759H9.53906H9.54052H9.54199H9.54345H9.54492H9.54638H9.54785H9.54931H9.55078H9.55224H9.55371H9.55517H9.55664H9.5581H9.55957H9.56103H9.5625H9.56396H9.56543H9.56689H9.56836H9.56982H9.57129H9.57275H9.57421H9.57568H9.57714H9.57861H9.58007H9.58154H9.583H9.58447H9.58593H9.5874H9.58886H9.59033H9.59179H9.59326H9.59472H9.59619H9.59765H9.59912H9.60058H9.60205H9.60351H9.60498H9.60644H9.60791H9.60937H9.61084H9.6123H9.61377H9.61523H9.6167H9.61816H9.61963H9.62109H9.62256H9.62402H9.62549H9.62695H9.62842H9.62988H9.63134H9.63281H9.63427H9.63574H9.6372H9.63867H9.64013H9.6416H9.64306H9.64453H9.64599H9.64746H9.64892H9.65039H9.65185H9.65332H9.65478H9.65625H9.65771H9.65918H9.66064H9.66211H9.66357H9.66504H9.6665H9.66797H9.66943H9.6709H9.67236H9.67383H9.67529H9.67676H9.67822H9.67969H9.68115H9.68262H9.68408H9.68555H9.68701H9.68848H9.68994H9.69141H9.69287H9.69433H9.6958H9.69726H9.69873H9.70019H9.70166H9.70312H9.70459H9.70605H9.70752H9.70898H9.71045H9.71191H9.71338H9.71484H9.71631H9.71777H9.71924H9.7207H9.72217H9.72363H9.7251H9.72656H9.72803H9.72949H9.73096H9.73242H9.73389H9.73535H9.73682H9.73828H9.73975H9.74121H9.74268H9.74414H9.74561H9.74707H9.74854H9.75H9.75147H9.75293H9.7544H9.75586H9.75733H9.75879H9.76025H9.76172H9.76318H9.76465H9.76611H9.76758H9.76904H9.77051H9.77197H9.77344H9.7749H9.77637H9.77783H9.7793H9.78076H9.78223H9.78369H9.78516H9.78662H9.78809H9.78955H9.79102H9.79248H9.79395H9.79541H9.79688H9.79834H9.79981H9.80127H9.80274H9.8042H9.80567H9.80713H9.8086H9.81006H9.81153H9.81299H9.81446H9.81592H9.81739H9.81885H9.82032H9.82178H9.82325H9.82471H9.82617H9.82764H9.8291H9.83057H9.83203H9.8335H9.83496H9.83643H9.83789H9.83936H9.84082H9.84229H9.84375H9.84522H9.84668H9.84815H9.84961H9.85108H9.85254H9.85401H9.85547H9.85694H9.8584H9.85987H9.86133H9.8628H9.86426H9.86573H9.86719H9.86866H9.87012H9.87159H9.87305H9.87452H9.87598H9.87745H9.87891H9.88038H9.88184H9.8833H9.88477H9.88623H9.8877H9.88916H9.89063H9.89209H9.89356H9.89502H9.89649H9.89795H9.89942H9.90088H9.90235H9.90381H9.90528H9.90674H9.90821H9.90967H9.91114H9.9126H9.91407H9.91553H9.917H9.91846H9.91993H9.92139H9.92286H9.92432H9.92579H9.92725H9.92872H9.93018H9.93165H9.93311H9.93457H9.93604H9.9375H9.93897H9.94043H9.9419H9.94336H9.94483H9.94629H9.94776H9.94922H9.95069H9.95215H9.95362H9.95508H9.95655H9.95801H9.95948H9.96094H9.96241H9.96387H9.96534H9.9668H9.96827H9.96973H9.9712H9.97266H9.97413H9.97559H9.97706H9.97852H9.97998H9.98145H9.98291H9.98438H9.98584H9.98731H9.98877H9.99024H9.9917H9.99317H9.99463H9.9961H9.99756H9.99903H10.0005H10.002H10.0034H10.0049H10.0064H10.0078H10.0093H10.0107H10.0122H10.0137H10.0151H10.0166H10.0181H10.0195H10.021H10.0225H10.0239H10.0254H10.0269H10.0283H10.0298H10.0313H10.0327H10.0342H10.0356H10.0371H10.0386H10.04H10.0415H10.043H10.0444H10.0459H10.0474H10.0488H10.0503H10.0518H10.0532H10.0547H10.0562H10.0576H10.0591H10.0605H10.062H10.0635H10.0649H10.0664H10.0679H10.0693H10.0708H10.0723H10.0737H10.0752H10.0767H10.0781H10.0796H10.0811H10.0825H10.084H10.0855H10.0869H10.0884H10.0898H10.0913H10.0928H10.0942H10.0957H10.0972H10.0986H10.1001H10.1016H10.3528L10.3516 8.17846C10.3439 6.62005 10.3512 5.06172 10.3735 3.50349L10.3739 3.50312L10.3743 3.5027L10.3747 3.50229L10.3751 3.50188L10.3755 3.50147L10.3759 3.50106L10.3763 3.50064L10.3768 3.50023L10.3772 3.49982L10.3776 3.49941L10.378 3.499L10.3784 3.49858L10.3788 3.49817L10.3792 3.49776L10.3796 3.49735L10.3801 3.49694L10.3805 3.49652L10.3809 3.49611L10.3813 3.4957L10.3817 3.49529L10.3821 3.49488L10.3825 3.49446L10.3829 3.49405L10.3834 3.49364L10.3838 3.49323L10.3842 3.49282L10.3846 3.4924L10.385 3.49199L10.3854 3.49158L10.3858 3.49117L10.3862 3.49076L10.3866 3.49034L10.3871 3.48993L10.3875 3.48952L10.3879 3.48911L10.3883 3.4887L10.3887 3.48828L10.3891 3.48787L10.3895 3.48746L10.3899 3.48705L10.3904 3.48664L10.3908 3.48622L10.3912 3.48581L10.3916 3.4854L10.392 3.48499L10.3924 3.48458L10.3928 3.48416L10.3932 3.48375L10.3936 3.48334L10.3941 3.48293L10.3945 3.48252L10.3949 3.48211L10.3953 3.48169L10.3957 3.48128L10.3961 3.48087L10.3965 3.48046L10.3969 3.48005L10.3974 3.47963L10.3978 3.47922L10.3982 3.47881L10.3986 3.4784L10.399 3.47799L10.3994 3.47757L10.3998 3.47716L10.4002 3.47675L10.4007 3.47634L10.4011 3.47593L10.4015 3.47551L10.4019 3.4751L10.4023 3.47469L10.4027 3.47428L10.4031 3.47387L10.4035 3.47345L10.4039 3.47304L10.4044 3.47263L10.4048 3.47222L10.4052 3.47181L10.4056 3.47139L10.406 3.47098L10.4064 3.47057L10.4068 3.47016L10.4072 3.46975L10.4077 3.46933L10.4081 3.46892L10.4085 3.46851L10.4089 3.4681L10.4093 3.46769L10.4097 3.46727L10.4101 3.46686L10.4105 3.46645L10.411 3.46604L10.4114 3.46563L10.4118 3.46521L10.4122 3.4648L10.4126 3.46439L10.413 3.46398L10.4134 3.46357L10.4138 3.46315L10.4142 3.46274L10.4147 3.46233L10.4151 3.46192L10.4155 3.46151L10.4159 3.46109L10.4163 3.46068L10.4167 3.46027L10.4171 3.45986L10.4175 3.45945L10.418 3.45903L10.4184 3.45862L10.4188 3.45821L10.4192 3.4578L10.4196 3.45739L10.42 3.45697L10.4204 3.45656L10.4208 3.45615L10.4213 3.45574L10.4217 3.45533L10.4221 3.45491L10.4225 3.4545L10.4229 3.45409L10.4233 3.45368L10.4237 3.45327L10.4241 3.45285L10.4245 3.45244L10.425 3.45203L10.4254 3.45162L10.4258 3.45121L10.4262 3.45079L10.4266 3.45038L10.427 3.44997L10.4274 3.44956L10.4278 3.44915L10.4283 3.44873L10.4287 3.44832L10.4291 3.44791L10.4295 3.4475L10.4299 3.44709L10.4303 3.44667L10.4307 3.44626L10.4311 3.44585L10.4316 3.44544L10.432 3.44503L10.4324 3.44461L10.4328 3.4442L10.4332 3.44379L10.4336 3.44338L10.434 3.44297L10.4344 3.44255L10.4348 3.44214L10.4353 3.44173L10.4357 3.44132L10.4361 3.44091L10.4365 3.44049L10.4369 3.44008L10.4373 3.43967L10.4377 3.43926L10.4381 3.43885L10.4386 3.43843L10.439 3.43802L10.4394 3.43761L10.4398 3.4372L10.4402 3.43679L10.4406 3.43637L10.441 3.43596L10.4414 3.43555L10.4419 3.43514L10.4423 3.43473L10.4427 3.43431L10.4431 3.4339L10.4435 3.43349L10.4439 3.43308L10.4443 3.43267L10.4447 3.43225L10.4451 3.43184L10.4456 3.43143L10.4459 3.43109C10.6012 3.419 10.7549 3.39561 10.9071 3.36094L11.2452 3.28389L11.0653 2.98745C10.7005 2.38657 10.304 1.81556 9.87571 1.27452Z" fill="black" stroke="black" stroke-width="0.5"/>
<path fill-rule="evenodd" clip-rule="evenodd" d="M22.1484 1.57031C22.3105 1.83254 22.373 2.1216 22.3359 2.4375C22.3847 2.79924 22.3066 3.12736 22.1016 3.42188C22.1941 3.4451 22.2878 3.45291 22.3828 3.44531C20.2657 3.49991 18.1407 3.50773 16.0078 3.46875C15.7656 3.41406 15.6172 3.26563 15.5625 3.02344C15.5312 2.67969 15.5312 2.33594 15.5625 1.99219C15.6328 1.79687 15.7656 1.66406 15.9609 1.59375C18.0234 1.57031 20.0859 1.5625 22.1484 1.57031Z" fill="black"/>
<path fill-rule="evenodd" clip-rule="evenodd" d="M22.1484 1.57021C22.476 1.55031 22.7026 1.69094 22.8281 1.99208C22.8594 2.35146 22.8594 2.71083 22.8281 3.07021C22.7557 3.28948 22.6072 3.41447 22.3828 3.44521C22.2878 3.45281 22.194 3.445 22.1016 3.42177C22.3065 3.12726 22.3846 2.79914 22.3359 2.4374C22.373 2.1215 22.3105 1.83243 22.1484 1.57021Z" fill="black"/>
<path fill-rule="evenodd" clip-rule="evenodd" d="M22.1953 4.24219C22.332 4.6995 22.371 5.16825 22.3125 5.64844C22.2733 5.82145 22.203 5.97769 22.1015 6.11719C20.664 6.12502 19.2265 6.11719 17.789 6.09375C17.0812 5.74125 16.3312 5.57719 15.539 5.60156C15.5313 5.28867 15.539 4.97616 15.5625 4.66406C15.6301 4.48711 15.7473 4.3543 15.914 4.26563C18.0077 4.24219 20.1015 4.23437 22.1953 4.24219Z" fill="black"/>
<path fill-rule="evenodd" clip-rule="evenodd" d="M22.1953 4.24208C22.4932 4.21956 22.7041 4.34457 22.8281 4.61708C22.8594 4.97647 22.8594 5.33581 22.8281 5.6952C22.7042 6.03463 22.4621 6.17525 22.1016 6.11708C22.203 5.97758 22.2733 5.82134 22.3125 5.64833C22.371 5.16814 22.332 4.69939 22.1953 4.24208Z" fill="black"/>
<path fill-rule="evenodd" clip-rule="evenodd" d="M18.1172 7.19532C18.2249 7.40968 18.3577 7.61279 18.5156 7.80469C19.2967 9.22913 19.2967 10.651 18.5156 12.0703C18.2854 12.4569 17.9885 12.785 17.625 13.0547C17.6032 13.0825 17.5954 13.1138 17.6016 13.1484C15.8406 14.0333 14.2859 13.7521 12.9375 12.3047C11.8289 10.7284 11.8446 9.16594 12.9844 7.61719C14.1944 6.33446 15.6241 6.01416 17.2734 6.65626C17.5815 6.80199 17.8628 6.98166 18.1172 7.19532Z" fill="black"/>
<path fill-rule="evenodd" clip-rule="evenodd" d="M22.3828 6.91415C22.3203 6.91415 22.2578 6.91415 22.1953 6.91415C21.1091 6.89864 20.031 6.91425 18.9609 6.96103C18.9355 6.95822 18.9199 6.94261 18.9141 6.91415C20.078 6.85186 21.2342 6.85186 22.3828 6.91415Z" fill="black"/>
<path fill-rule="evenodd" clip-rule="evenodd" d="M22.1953 6.914C22.2338 7.02238 22.2728 7.13178 22.3125 7.24213C22.3438 7.58586 22.3438 7.92964 22.3125 8.27338C22.2644 8.45741 22.194 8.6293 22.1016 8.789C21.3984 8.789 20.6953 8.789 19.9922 8.789C19.8055 8.08714 19.4618 7.47777 18.9609 6.96088C20.031 6.9141 21.1091 6.89849 22.1953 6.914Z" fill="black"/>
<path fill-rule="evenodd" clip-rule="evenodd" d="M22.1953 6.91406C22.2578 6.91406 22.3203 6.91406 22.3828 6.91406C22.6096 6.94556 22.758 7.07053 22.8281 7.28906C22.8594 7.64845 22.8594 8.0078 22.8281 8.36719C22.6898 8.68256 22.4476 8.82319 22.1016 8.78906C22.194 8.62936 22.2644 8.45747 22.3125 8.27344C22.3438 7.9297 22.3438 7.58592 22.3125 7.24219C22.2728 7.13184 22.2338 7.02244 22.1953 6.91406Z" fill="black"/>
<path fill-rule="evenodd" clip-rule="evenodd" d="M15.6797 7.05469C16.0696 7.10147 16.2258 7.32023 16.1484 7.71094C16.6862 7.80295 17.069 8.09981 17.2968 8.60156C17.3729 9.03703 17.1932 9.20109 16.7578 9.09375C16.6328 8.92186 16.5078 8.75002 16.3828 8.57812C16.0138 8.38261 15.6388 8.367 15.2578 8.53125C14.8676 8.86908 14.8832 9.18155 15.3047 9.46875C15.6592 9.58031 16.0186 9.67406 16.3828 9.75C17.3558 10.0944 17.6449 10.7429 17.25 11.6953C16.9675 12.0514 16.6003 12.2545 16.1484 12.3047C16.2076 12.8008 16.0045 12.9804 15.539 12.8437C15.4361 12.6811 15.3735 12.5014 15.3515 12.3047C14.7588 12.1844 14.3604 11.8406 14.1562 11.2734C14.0885 10.8252 14.2683 10.6611 14.6953 10.7812C15.0837 11.6191 15.6931 11.8222 16.5234 11.3906C16.8101 11.0082 16.732 10.7113 16.289 10.5C15.9673 10.3981 15.6392 10.32 15.3047 10.2656C14.331 9.91997 14.0419 9.27155 14.4375 8.32031C14.6719 7.98052 14.9922 7.77736 15.3984 7.71094C15.329 7.41417 15.4227 7.19541 15.6797 7.05469Z" fill="white"/>
<path fill-rule="evenodd" clip-rule="evenodd" d="M18.1172 7.19531C19.4179 8.3827 19.7538 9.80456 19.125 11.4609C18.7889 12.1799 18.281 12.7424 17.6016 13.1484C17.5954 13.1138 17.6033 13.0825 17.625 13.0547C17.9885 12.785 18.2854 12.4569 18.5156 12.0703C19.2967 10.651 19.2967 9.22913 18.5156 7.80469C18.3578 7.61278 18.2249 7.40967 18.1172 7.19531Z" fill="black"/>
<path fill-rule="evenodd" clip-rule="evenodd" d="M22.4297 9.58585C22.35 9.57835 22.2719 9.58613 22.1953 9.60928C22.2592 9.70045 22.2983 9.80203 22.3125 9.91397C22.3438 10.2734 22.3438 10.6327 22.3125 10.9921C22.2727 11.142 22.2024 11.2748 22.1016 11.3905C22.2098 11.4138 22.3192 11.4216 22.4297 11.414C21.6098 11.4607 20.7816 11.4763 19.9453 11.4608C20.1407 10.8352 20.2188 10.1946 20.1797 9.53897C20.9379 9.5235 21.6879 9.53916 22.4297 9.58585Z" fill="black"/>
<path fill-rule="evenodd" clip-rule="evenodd" d="M22.4297 9.58601C22.6291 9.63687 22.7619 9.76189 22.8281 9.96101C22.8594 10.3204 22.8594 10.6797 22.8281 11.0391C22.7619 11.2383 22.6291 11.3633 22.4297 11.4141C22.3192 11.4218 22.2098 11.414 22.1016 11.3907C22.2024 11.275 22.2728 11.1422 22.3125 10.9923C22.3438 10.6329 22.3438 10.2735 22.3125 9.91414C22.2983 9.8022 22.2592 9.70062 22.1953 9.60945C22.2719 9.58629 22.35 9.57851 22.4297 9.58601Z" fill="black"/>
<path fill-rule="evenodd" clip-rule="evenodd" d="M11.1328 14.7423C9.22927 15.8819 7.30739 16.9991 5.36719 18.0938C5.26444 18.1438 5.18634 18.2142 5.13281 18.3048C4.79813 17.7296 4.46219 17.1514 4.125 16.5704C4.09375 16.5235 4.09375 16.4766 4.125 16.4298C5.2148 15.8029 6.3007 15.17 7.38281 14.5313C7.94259 14.1727 8.55197 14.0164 9.21094 14.0626C9.86124 14.2663 10.5019 14.4928 11.1328 14.7423Z" fill="black"/>
<path fill-rule="evenodd" clip-rule="evenodd" d="M5.13281 18.3046C5.18634 18.214 5.26444 18.1437 5.36719 18.0937C7.30739 16.9989 9.22927 15.8818 11.1328 14.7421C12.0844 15.0738 13.0532 15.3473 14.0391 15.5625C14.5485 15.9658 14.5953 16.4189 14.1797 16.9218C14.0098 17.0371 13.8223 17.0918 13.6172 17.0859C12.6058 16.8799 11.6058 16.6299 10.6172 16.3359C10.307 16.3731 10.1898 16.545 10.2656 16.8515C10.2874 16.9186 10.3265 16.9733 10.3828 17.0156C11.2065 17.2632 12.0346 17.4976 12.8672 17.7187C13.5127 17.894 14.169 17.9565 14.8359 17.9062C15.0921 17.8675 15.342 17.805 15.5859 17.7187C17.1137 16.8624 18.6293 15.9874 20.1328 15.0937C20.5893 14.8265 21.0736 14.6234 21.5859 14.4843C22.4575 14.3519 22.8716 14.7191 22.8281 15.5859C22.7976 15.7798 22.7116 15.9439 22.5703 16.0781C19.9609 17.6874 17.3516 19.2968 14.7422 20.9062C14.2278 21.187 13.6809 21.2807 13.1016 21.1875C11.1246 20.66 9.14808 20.1366 7.17188 19.6171C6.83105 19.7641 6.50292 19.936 6.1875 20.1328C5.8117 19.5375 5.46014 18.9281 5.13281 18.3046Z" fill="black"/>
<path fill-rule="evenodd" clip-rule="evenodd" d="M2.60155 15.5391C3.737 17.5754 4.88544 19.6066 6.04686 21.6328C6.12847 21.7645 6.18318 21.9051 6.21093 22.0547C5.80766 22.3349 5.38579 22.5927 4.9453 22.8281C4.82694 22.8701 4.72536 22.8467 4.64061 22.7578C3.46874 20.6953 2.29686 18.6328 1.12499 16.5703C1.07621 16.4233 1.11528 16.3061 1.24218 16.2188C1.54672 16.0587 1.8436 15.8868 2.1328 15.7031C2.27629 15.6077 2.43254 15.5531 2.60155 15.5391Z" fill="black"/>
<path fill-rule="evenodd" clip-rule="evenodd" d="M2.60156 15.5391C2.71104 15.6096 2.79698 15.7033 2.85938 15.8203C3.98438 17.8203 5.10938 19.8203 6.23438 21.8203C6.27094 21.9088 6.26311 21.9869 6.21094 22.0547C6.18319 21.9051 6.12848 21.7645 6.04688 21.6328C4.88545 19.6066 3.73701 17.5754 2.60156 15.5391Z" fill="black"/>
<path fill-rule="evenodd" clip-rule="evenodd" d="M2.17971 16.3827C2.60298 16.3761 2.78267 16.5792 2.71877 16.9921C2.55631 17.2238 2.34538 17.2785 2.08596 17.1562C1.81614 16.8577 1.84739 16.5999 2.17971 16.3827Z" fill="black"/>
</svg>
