<svg width="24" height="24" viewBox="0 0 24 24" fill="none" xmlns="http://www.w3.org/2000/svg">
<g id="User Manual" clip-path="url(#clip0_936_2661)">
<g id="event_available">
<mask id="mask0_936_2661" style="mask-type:alpha" maskUnits="userSpaceOnUse" x="0" y="0" width="24" height="24">
<rect id="Bounding box" width="24" height="24" fill="#D9D9D9"/>
</mask>
<g mask="url(#mask0_936_2661)">
<path id="Vector" d="M20.6023 5.98637H19.3823V3.46027C19.3823 3.31728 19.2952 3.17429 19.208 3.07897C19.1209 2.98364 18.903 2.98364 18.7723 3.03131L11.9318 5.98637H3.4357C3.17428 5.98637 3 6.17702 3 6.46299V20.5234C3 20.8094 3.17428 21 3.4357 21H20.5587C20.8201 21 20.9944 20.8094 20.9944 20.5234V6.46299C21.038 6.17702 20.8201 5.98637 20.6023 5.98637ZM13.2825 8.46481L17.2909 6.70131C17.5088 6.60598 17.7702 6.70131 17.8574 6.93962C17.9445 7.17793 17.8574 7.4639 17.6395 7.55923L13.6311 9.32273C13.5439 9.3704 13.1954 9.46572 13.0647 9.08442C12.9775 8.79845 13.0211 8.56014 13.2825 8.46481ZM17.5959 9.70403L13.5875 11.4675C13.5439 11.4675 13.1954 11.6105 13.0211 11.2292C12.934 10.9909 13.0211 10.7049 13.2825 10.6096L17.2909 8.84611C17.5088 8.75079 17.7702 8.84611 17.8574 9.13208C17.9009 9.32273 17.8138 9.60871 17.5959 9.70403ZM13.2389 12.8021L17.2474 10.9433C17.4652 10.8479 17.7266 10.9433 17.8138 11.1816C17.9009 11.4199 17.8138 11.7058 17.5959 11.8012L13.5875 13.66C13.4568 13.7077 13.1518 13.7553 13.0211 13.4217C12.934 13.1834 13.0211 12.8974 13.2389 12.8021ZM13.2825 14.9945L17.2909 13.231C17.5088 13.1357 17.7702 13.231 17.8574 13.517C17.9445 13.7553 17.8574 14.0413 17.5959 14.1366L13.5875 15.9001C13.5439 15.9001 13.5004 15.9478 13.4132 15.9478C13.2389 15.9478 13.0647 15.8525 13.0211 15.6618C12.934 15.3758 13.0211 15.0899 13.2825 14.9945ZM13.0211 17.8543C12.934 17.616 13.0211 17.33 13.2389 17.2347L17.2474 15.3282C17.4652 15.2329 17.7266 15.3282 17.8138 15.5665C17.9009 15.8048 17.8138 16.0908 17.5959 16.1861L13.5875 18.0926C13.5004 18.1403 13.1518 18.2356 13.0211 17.8543ZM3.8714 6.93962H11.5833V20.0468H3.8714V6.93962ZM20.1666 20.0468H14.3282L19.1209 17.9973C19.2952 17.9019 19.3823 17.759 19.3823 17.5683V6.93962H20.1666V20.0468ZM11.104 11.5629C11.104 12.5638 10.7555 13.4694 10.1019 14.1843C9.84048 14.4703 9.57906 14.6609 9.27407 14.8516V20.0468H6.13704V14.8516C5.83205 14.6609 5.57063 14.4703 5.30921 14.1843C4.65566 13.4694 4.3071 12.5638 4.3071 11.5629C4.3071 10.562 4.65566 9.65637 5.30921 8.94143C5.6142 8.6078 5.96276 8.32182 6.35489 8.17884C6.4856 8.13118 6.70345 8.13118 6.79059 8.2265C6.9213 8.32182 6.96487 8.46481 6.96487 8.6078L7.00844 11.1339L7.74913 11.6105L8.44624 11.1816L8.40268 8.65546C8.40268 8.51247 8.48981 8.32182 8.57695 8.27416C8.70766 8.17884 8.83837 8.17884 8.96908 8.2265C9.36121 8.41715 9.70977 8.65546 10.0583 9.03676C10.7555 9.65637 11.104 10.6096 11.104 11.5629ZM4.78637 15.7571C4.65566 15.7571 4.56852 15.6618 4.56852 15.5188V14.6133C4.56852 14.4703 4.65566 14.3749 4.78637 14.3749C4.91708 14.3749 5.00422 14.4703 5.00422 14.6133V15.5188C5.00422 15.6142 4.91708 15.7571 4.78637 15.7571ZM5.48349 19.0458H4.78637C4.65566 19.0458 4.56852 18.9505 4.56852 18.8075V16.2814C4.56852 16.1384 4.65566 16.0431 4.78637 16.0431C4.91708 16.0431 5.00422 16.1384 5.00422 16.2814V18.5692H5.43992C5.57063 18.5692 5.65777 18.6645 5.65777 18.8075C5.65777 18.9505 5.57063 19.0458 5.48349 19.0458ZM10.6683 19.0458H10.2762C10.1455 19.0458 10.0583 18.9505 10.0583 18.8075C10.0583 18.6645 10.1455 18.5692 10.2762 18.5692H10.4505V17.616C10.4505 17.473 10.5376 17.3777 10.6683 17.3777C10.799 17.3777 10.8862 17.473 10.8862 17.616V18.8075C10.8862 18.9029 10.799 19.0458 10.6683 19.0458ZM4.78637 8.84611C4.65566 8.84611 4.56852 8.75079 4.56852 8.6078V7.8452C4.56852 7.70221 4.65566 7.60689 4.78637 7.60689H5.1785C5.30921 7.60689 5.39635 7.70221 5.39635 7.8452C5.39635 7.98819 5.30921 8.08351 5.1785 8.08351H5.00422V8.65546C5.00422 8.75079 4.91708 8.84611 4.78637 8.84611Z" fill="white"/>
</g>
</g>
</g>
<defs>
<clipPath id="clip0_936_2661">
<rect width="24" height="24" fill="white"/>
</clipPath>
</defs>
</svg>
