<svg width="610" height="221" viewBox="0 0 610 221" fill="none" xmlns="http://www.w3.org/2000/svg">
  <rect width="610" height="221" fill="transparent" />
  <g clip-path="url(#clip0_19_123)" filter="url(#filter0_d_19_123)">
    <path d="M98.8745 110.559C98.8745 97.0108 105.269 82.1549 117.312 73.4142C113.942 71.934 110.421 71.1777 106.759 71.1885C106.208 71.1885 105.668 71.2101 105.128 71.2317C93.9493 71.8043 84.2501 78.8704 79.1736 88.8535C75.8686 95.3686 74 102.748 74 110.559C74 117.582 75.5121 124.259 78.2232 130.267C82.9 140.649 92.3184 148.364 103.627 149.628C104.653 149.747 105.701 149.801 106.759 149.812C110.777 149.822 114.611 148.904 118.262 147.132C105.96 138.424 98.8745 124.259 98.8745 110.559Z" fill="white" />
    <path d="M170.096 134.729C180 146.592 190.931 156.154 202.898 158.628C219.726 162.107 232.774 157.893 232.774 157.893C213.505 156.424 197.336 134.534 183.791 113.487C182.69 115.238 181.599 116.966 180.53 118.663C176.803 124.594 173.369 130.05 170.096 134.729Z" fill="white" />
    <path d="M160.343 79.0864C143.266 61.2809 122.043 62.5018 122.043 62.5018C108.239 61.7995 94.8782 70.7995 94.8782 70.7995C94.8782 70.7995 113.013 61.2809 130.089 79.0972C136.019 85.2881 142.834 95.9952 150.514 107.61C155.342 100.393 160.526 92.97 166.056 86.1417C164.08 83.3974 162.168 80.9988 160.343 79.0864Z" fill="white" />
    <path d="M200.187 73.3817C194.884 77.6495 190.164 82.7059 185.8 88.054C181.458 93.4346 177.354 99.0528 173.466 104.844C165.592 116.372 158.42 128.441 149.866 139.85C147.695 142.681 145.437 145.479 142.878 148.072C140.274 150.643 137.445 152.977 134.356 154.933C132.282 156.218 130.089 157.299 127.832 158.196C135.317 157.299 148.775 153.971 160.332 141.914C177.408 124.097 200.824 65.5486 232.774 63.1068C232.774 63.1068 232.72 63.096 232.687 63.0852C227.794 63.096 222.934 63.5606 218.203 64.5978C211.463 65.8187 205.523 69.1465 200.187 73.3817Z" fill="white" />
    <path d="M146.291 137.224C150.265 131.552 154.002 125.631 157.761 119.711C161.563 113.812 165.311 107.837 169.351 102.035C173.39 96.2329 177.549 90.4634 182.215 85.0612C186.859 79.6483 191.914 74.4838 197.768 70.2053C200.684 68.066 203.816 66.1537 207.175 64.6843C210.502 63.2149 214.174 62.1885 217.706 61.7563C219.294 61.5402 220.893 61.389 222.491 61.2701C217.296 60.8055 210.491 60.8055 202.909 62.3721C171.532 68.8547 147.176 124.097 130.111 141.903C113.035 159.708 94.8998 150.2 94.8998 150.2C94.8998 150.2 105.733 157.472 117.971 158.412C123.22 157.483 128.188 155.203 132.476 152.08C138.006 148.18 142.316 142.918 146.291 137.224Z" fill="white" />
  </g>
<path d="M224.162 114.879H236.562L230.562 100.079H230.162L224.162 114.879ZM234.962 96.6792L246.362 124.679H240.602L237.962 117.879H222.762L220.122 124.679H214.362L225.762 96.6792H234.962ZM264.994 121.879V106.679H259.994C259.087 106.679 258.247 106.826 257.474 107.119C256.727 107.386 256.074 107.826 255.514 108.439C254.98 109.053 254.554 109.839 254.234 110.799C253.94 111.759 253.794 112.919 253.794 114.279C253.794 115.639 253.94 116.799 254.234 117.759C254.554 118.719 254.98 119.506 255.514 120.119C256.074 120.733 256.727 121.186 257.474 121.479C258.247 121.746 259.087 121.879 259.994 121.879H264.994ZM259.994 124.679C258.154 124.679 256.474 124.439 254.954 123.959C253.46 123.479 252.18 122.786 251.114 121.879C250.047 120.973 249.22 119.879 248.634 118.599C248.074 117.319 247.794 115.879 247.794 114.279C247.794 112.679 248.074 111.239 248.634 109.959C249.22 108.679 250.047 107.586 251.114 106.679C252.18 105.773 253.46 105.079 254.954 104.599C256.474 104.119 258.154 103.879 259.994 103.879H264.994V96.6792H270.594V124.679H259.994ZM290.576 124.679H281.776L273.776 103.879H279.376L285.976 121.279H286.376L292.976 103.879H298.576L290.576 124.679ZM312.981 122.679C314.288 122.679 315.501 122.453 316.621 121.999C317.768 121.546 318.888 120.906 319.981 120.079L321.581 122.479C321.074 122.933 320.474 123.346 319.781 123.719C319.114 124.093 318.381 124.413 317.581 124.679C316.808 124.919 315.994 125.106 315.141 125.239C314.288 125.399 313.434 125.479 312.581 125.479C310.688 125.479 308.954 125.226 307.381 124.719C305.834 124.239 304.514 123.533 303.421 122.599C302.328 121.639 301.474 120.466 300.861 119.079C300.274 117.693 299.981 116.093 299.981 114.279C299.981 112.493 300.261 110.906 300.821 109.519C301.408 108.106 302.208 106.933 303.221 105.999C304.261 105.039 305.488 104.319 306.901 103.839C308.314 103.333 309.874 103.079 311.581 103.079C313.181 103.079 314.688 103.319 316.101 103.799C317.514 104.279 318.741 104.986 319.781 105.919C320.821 106.826 321.648 107.933 322.261 109.239C322.874 110.546 323.181 112.026 323.181 113.679V116.479H306.101C306.421 118.693 307.181 120.279 308.381 121.239C309.608 122.199 311.141 122.679 312.981 122.679ZM311.581 105.679C310.808 105.679 310.088 105.826 309.421 106.119C308.754 106.413 308.168 106.879 307.661 107.519C307.181 108.159 306.781 108.986 306.461 109.999C306.168 111.013 306.008 112.239 305.981 113.679H317.181C317.181 112.293 317.021 111.093 316.701 110.079C316.381 109.066 315.954 108.239 315.421 107.599C314.914 106.933 314.314 106.453 313.621 106.159C312.954 105.839 312.274 105.679 311.581 105.679ZM343.578 106.679H338.778C336.965 106.679 335.578 107.173 334.618 108.159C333.658 109.119 333.178 110.559 333.178 112.479V124.679H327.578V112.479C327.578 109.759 328.431 107.653 330.138 106.159C331.871 104.639 334.351 103.879 337.578 103.879H343.578V106.679ZM348.562 106.679H344.762V103.879H348.562V97.4792H354.162V103.879H360.362V106.679H354.162V117.079C354.162 118.093 354.269 118.959 354.482 119.679C354.722 120.373 355.029 120.946 355.402 121.399C355.802 121.826 356.256 122.146 356.762 122.359C357.269 122.573 357.802 122.679 358.362 122.679C359.162 122.679 359.936 122.559 360.682 122.319C361.429 122.053 362.056 121.773 362.562 121.479L363.762 124.079C362.962 124.479 362.042 124.813 361.002 125.079C359.989 125.346 358.976 125.479 357.962 125.479C354.949 125.479 352.629 124.733 351.002 123.239C349.376 121.746 348.562 119.693 348.562 117.079V106.679ZM372.758 124.679H367.158V104.279H372.758V124.679ZM372.958 98.8792C372.958 99.6792 372.678 100.386 372.118 100.999C371.584 101.586 370.864 101.879 369.958 101.879C369.051 101.879 368.318 101.586 367.758 100.999C367.224 100.386 366.958 99.6792 366.958 98.8792C366.958 98.0792 367.224 97.3859 367.758 96.7992C368.318 96.1859 369.051 95.8792 369.958 95.8792C370.838 95.8792 371.558 96.1859 372.118 96.7992C372.678 97.3859 372.958 98.0792 372.958 98.8792ZM383.359 108.279C383.359 108.893 383.626 109.453 384.159 109.959C384.719 110.466 385.652 110.906 386.959 111.279L393.159 113.079C395.079 113.639 396.559 114.399 397.599 115.359C398.639 116.319 399.159 117.559 399.159 119.079C399.159 120.039 398.959 120.919 398.559 121.719C398.159 122.493 397.506 123.159 396.599 123.719C395.692 124.279 394.519 124.706 393.079 124.999C391.639 125.319 389.866 125.479 387.759 125.479C386.666 125.479 385.586 125.399 384.519 125.239C383.479 125.079 382.479 124.866 381.519 124.599C380.586 124.306 379.732 123.986 378.959 123.639C378.186 123.266 377.519 122.879 376.959 122.479L378.559 120.079C379.679 120.773 380.986 121.386 382.479 121.919C383.999 122.426 385.759 122.679 387.759 122.679C389.759 122.679 391.159 122.413 391.959 121.879C392.759 121.346 393.159 120.679 393.159 119.879C393.159 119.266 392.879 118.719 392.319 118.239C391.759 117.733 390.772 117.279 389.359 116.879L383.159 115.079C381.452 114.573 380.052 113.853 378.959 112.919C377.892 111.959 377.359 110.679 377.359 109.079C377.359 108.226 377.546 107.439 377.919 106.719C378.319 105.973 378.932 105.333 379.759 104.799C380.586 104.266 381.639 103.853 382.919 103.559C384.199 103.239 385.746 103.079 387.559 103.079C389.772 103.079 391.772 103.386 393.559 103.999C395.372 104.586 396.839 105.279 397.959 106.079L396.359 108.479C395.266 107.786 394.026 107.186 392.639 106.679C391.252 106.146 389.559 105.879 387.559 105.879C386.146 105.879 385.092 106.106 384.399 106.559C383.706 107.013 383.359 107.586 383.359 108.279ZM415.169 122.679C416.475 122.679 417.689 122.453 418.809 121.999C419.955 121.546 421.075 120.906 422.169 120.079L423.769 122.479C423.262 122.933 422.662 123.346 421.969 123.719C421.302 124.093 420.569 124.413 419.769 124.679C418.995 124.919 418.182 125.106 417.329 125.239C416.475 125.399 415.622 125.479 414.769 125.479C412.875 125.479 411.142 125.226 409.569 124.719C408.022 124.239 406.702 123.533 405.609 122.599C404.515 121.639 403.662 120.466 403.049 119.079C402.462 117.693 402.169 116.093 402.169 114.279C402.169 112.493 402.449 110.906 403.009 109.519C403.595 108.106 404.395 106.933 405.409 105.999C406.449 105.039 407.675 104.319 409.089 103.839C410.502 103.333 412.062 103.079 413.769 103.079C415.369 103.079 416.875 103.319 418.289 103.799C419.702 104.279 420.929 104.986 421.969 105.919C423.009 106.826 423.835 107.933 424.449 109.239C425.062 110.546 425.369 112.026 425.369 113.679V116.479H408.289C408.609 118.693 409.369 120.279 410.569 121.239C411.795 122.199 413.329 122.679 415.169 122.679ZM413.769 105.679C412.995 105.679 412.275 105.826 411.609 106.119C410.942 106.413 410.355 106.879 409.849 107.519C409.369 108.159 408.969 108.986 408.649 109.999C408.355 111.013 408.195 112.239 408.169 113.679H419.369C419.369 112.293 419.209 111.093 418.889 110.079C418.569 109.066 418.142 108.239 417.609 107.599C417.102 106.933 416.502 106.453 415.809 106.159C415.142 105.839 414.462 105.679 413.769 105.679ZM449.75 124.679H443.95V96.6792H449.75V124.679ZM470.556 95.8792C472.956 95.8792 475.129 96.1992 477.076 96.8392C479.049 97.4792 480.729 98.4259 482.116 99.6792C483.529 100.933 484.623 102.479 485.396 104.319C486.169 106.159 486.556 108.279 486.556 110.679C486.556 113.746 485.943 116.346 484.716 118.479C483.489 120.613 481.783 122.266 479.596 123.439L482.156 126.279L479.356 128.879L475.796 124.879C474.196 125.279 472.449 125.479 470.556 125.479C468.156 125.479 465.969 125.159 463.996 124.519C462.023 123.879 460.329 122.933 458.916 121.679C457.529 120.426 456.449 118.879 455.676 117.039C454.929 115.199 454.556 113.079 454.556 110.679C454.556 108.279 454.929 106.159 455.676 104.319C456.449 102.479 457.529 100.933 458.916 99.6792C460.329 98.4259 462.023 97.4792 463.996 96.8392C465.969 96.1992 468.156 95.8792 470.556 95.8792ZM470.556 98.6792C469.196 98.6792 467.916 98.9192 466.716 99.3992C465.543 99.8792 464.516 100.613 463.636 101.599C462.756 102.586 462.049 103.839 461.516 105.359C461.009 106.853 460.756 108.626 460.756 110.679C460.756 112.733 461.009 114.519 461.516 116.039C462.049 117.533 462.756 118.773 463.636 119.759C464.516 120.746 465.543 121.479 466.716 121.959C467.916 122.439 469.196 122.679 470.556 122.679C471.596 122.679 472.556 122.546 473.436 122.279L471.156 119.679L473.956 117.079L476.876 120.359C477.943 119.399 478.783 118.119 479.396 116.519C480.036 114.919 480.356 112.973 480.356 110.679C480.356 108.626 480.089 106.853 479.556 105.359C479.049 103.839 478.356 102.586 477.476 101.599C476.596 100.613 475.556 99.8792 474.356 99.3992C473.183 98.9192 471.916 98.6792 470.556 98.6792Z" fill="white"/>
<defs>
<filter id="filter0_d_19_123" x="65" y="55" width="176.774" height="117" filterUnits="userSpaceOnUse" color-interpolation-filters="sRGB">
<feFlood flood-opacity="0" result="BackgroundImageFix"/>
<feColorMatrix in="SourceAlpha" type="matrix" values="0 0 0 0 0 0 0 0 0 0 0 0 0 0 0 0 0 0 127 0" result="hardAlpha"/>
<feOffset dy="3"/>
<feGaussianBlur stdDeviation="4.5"/>
<feComposite in2="hardAlpha" operator="out"/>
<feColorMatrix type="matrix" values="0 0 0 0 0 0 0 0 0 0 0 0 0 0 0 0 0 0 0.25 0"/>
<feBlend mode="normal" in2="BackgroundImageFix" result="effect1_dropShadow_19_123"/>
<feBlend mode="normal" in="SourceGraphic" in2="effect1_dropShadow_19_123" result="shape"/>
</filter>
<linearGradient id="paint0_linear_19_123" x1="96.1312" y1="94.4985" x2="96.1312" y2="165.642" gradientUnits="userSpaceOnUse">
<stop stop-color="#0D0EA7"/>
<stop offset="1" stop-color="#0D0E59"/>
</linearGradient>
<linearGradient id="paint1_linear_19_123" x1="124.851" y1="43.3264" x2="172.844" y2="107.821" gradientUnits="userSpaceOnUse">
<stop stop-color="#3CBBF2"/>
<stop offset="0.5477" stop-color="#2374F2"/>
<stop offset="1" stop-color="#0D37F2"/>
</linearGradient>
<linearGradient id="paint2_linear_19_123" x1="111.652" y1="53.1491" x2="159.644" y2="117.644" gradientUnits="userSpaceOnUse">
<stop stop-color="#3CBBF2"/>
<stop offset="0.5477" stop-color="#2374F2"/>
<stop offset="1" stop-color="#0D37F2"/>
</linearGradient>
<linearGradient id="paint3_linear_19_123" x1="135.359" y1="171.087" x2="209.189" y2="71.8713" gradientUnits="userSpaceOnUse">
<stop stop-color="#0D37F2"/>
<stop offset="0.00392973" stop-color="#0D38F2"/>
<stop offset="0.364" stop-color="#2284F8"/>
<stop offset="0.6614" stop-color="#32BCFC"/>
<stop offset="0.8814" stop-color="#3BDFFE"/>
<stop offset="1" stop-color="#3FECFF"/>
</linearGradient>
<linearGradient id="paint4_linear_19_123" x1="119.088" y1="158.979" x2="192.918" y2="59.7634" gradientUnits="userSpaceOnUse">
<stop stop-color="#0D37F2"/>
<stop offset="0.00392973" stop-color="#0D38F2"/>
<stop offset="0.364" stop-color="#2284F8"/>
<stop offset="0.6614" stop-color="#32BCFC"/>
<stop offset="0.8814" stop-color="#3BDFFE"/>
<stop offset="1" stop-color="#3FECFF"/>
</linearGradient>
<clipPath id="clip0_19_123">
<rect width="158.774" height="99" fill="white" transform="translate(74 61)"/>
</clipPath>
</defs>
</svg>
